<svg id="Grupo_58413" data-name="Grupo 58413" xmlns="http://www.w3.org/2000/svg" xmlns:xlink="http://www.w3.org/1999/xlink" width="66.312" height="56.597" viewBox="0 0 66.312 56.597">
  <defs>
    <linearGradient id="linear-gradient" x1="0.746" y1="-0.026" x2="0.237" y2="0.939" gradientUnits="objectBoundingBox">
      <stop offset="0.354" stop-color="#bef6f4"/>
      <stop offset="0.504" stop-color="#3ae4df"/>
      <stop offset="0.642" stop-color="#00afc9"/>
    </linearGradient>
    <linearGradient id="linear-gradient-2" x1="0.745" y1="-0.043" x2="0.236" y2="0.965" gradientUnits="objectBoundingBox">
      <stop offset="0" stop-color="#84eeeb"/>
      <stop offset="1" stop-color="#3ae4df"/>
    </linearGradient>
    <filter id="Trazado_105285" x="20.124" y="14.917" width="25.326" height="20.81" filterUnits="userSpaceOnUse">
      <feOffset dx="-0.369" dy="0.369" input="SourceAlpha"/>
      <feGaussianBlur stdDeviation="0.184" result="blur"/>
      <feFlood flood-opacity="0.102"/>
      <feComposite operator="in" in2="blur"/>
      <feComposite in="SourceGraphic"/>
    </filter>
  </defs>
  <path id="Trazado_105283" data-name="Trazado 105283" d="M-49.542-144.114H-99.448a8.2,8.2,0,0,0-8.2,8.2v33.5a8.2,8.2,0,0,0,8.2,8.2h18.265l6.691,6.691,6.691-6.691h18.259a8.2,8.2,0,0,0,8.2-8.2v-33.5A8.2,8.2,0,0,0-49.542-144.114Z" transform="translate(107.651 144.114)" fill="url(#linear-gradient)"/>
  <path id="Trazado_105284" data-name="Trazado 105284" d="M-80.314-94.094H-98.8a7.677,7.677,0,0,1-7.668-7.668v-33.5a7.677,7.677,0,0,1,7.668-7.668h49.906a7.677,7.677,0,0,1,7.668,7.668v33.5a7.677,7.677,0,0,1-7.668,7.668h-18.48l-6.47,6.47Z" transform="translate(107.003 143.466)" fill="url(#linear-gradient-2)"/>
  <g transform="matrix(1, 0, 0, 1, 0, 0)" filter="url(#Trazado_105285)">
    <path id="Trazado_105285-2" data-name="Trazado 105285" d="M-45.522-93.246l-3.461,2.24-3.462-2.237c-8.652-5.593-8.652-9.589-8.652-11.092a6.372,6.372,0,0,1,6.374-6.374,6.389,6.389,0,0,1,5.739,3.591,6.372,6.372,0,0,1,5.732-3.591,6.372,6.372,0,0,1,6.374,6.374C-36.877-102.832-36.877-98.839-45.522-93.246Z" transform="translate(82.14 125.81)" fill="#f2f1ff"/>
  </g>
</svg>
