<svg xmlns="http://www.w3.org/2000/svg" xmlns:xlink="http://www.w3.org/1999/xlink" width="29.159" height="26.039" viewBox="0 0 29.159 26.039">
  <defs>
    <linearGradient id="linear-gradient" x1="0.5" y1="1" x2="0.5" gradientUnits="objectBoundingBox">
      <stop offset="0" stop-color="#71ebe8"/>
      <stop offset="0.508" stop-color="#e6fffe"/>
      <stop offset="0.621" stop-color="#bff8f7"/>
      <stop offset="0.777" stop-color="#acf5f3"/>
      <stop offset="0.944" stop-color="#8bf0ed"/>
      <stop offset="1" stop-color="#71ebe8"/>
    </linearGradient>
  </defs>
  <g id="Grupo_90956" data-name="Grupo 90956" transform="translate(0 0)">
    <circle id="Elipse_4384" data-name="Elipse 4384" cx="11.348" cy="11.348" r="11.348" transform="translate(3.12 22.403) rotate(-80.782)" fill="url(#linear-gradient)"/>
    <circle id="Elipse_4385" data-name="Elipse 4385" cx="11.348" cy="11.348" r="11.348" transform="translate(0 22.403) rotate(-80.782)" fill="#71ebe8"/>
    <g id="Grupo_90955" data-name="Grupo 90955" transform="translate(1.671 1.287)" style="mix-blend-mode: soft-light;isolation: isolate">
      <g id="Grupo_90954" data-name="Grupo 90954">
        <path id="Trazado_105535" data-name="Trazado 105535" d="M77.29,242.155s.021.25.06.722a9.971,9.971,0,0,0,.376,2.029,11.241,11.241,0,0,0,4.208,6.058,11.033,11.033,0,0,0,10.418,1.429,10.839,10.839,0,0,0,5.017-3.831,10.879,10.879,0,0,0,0-12.813,10.839,10.839,0,0,0-5.017-3.83,11.038,11.038,0,0,0-10.418,1.427,11.243,11.243,0,0,0-4.208,6.059,9.97,9.97,0,0,0-.376,2.029c-.039.472-.06.721-.06.721l.014-.723a9.839,9.839,0,0,1,.261-2.067,11.356,11.356,0,0,1,4.046-6.44,11.475,11.475,0,0,1,4.867-2.273,11.735,11.735,0,1,1,0,23.01,11.475,11.475,0,0,1-4.867-2.273,11.361,11.361,0,0,1-4.046-6.44,9.839,9.839,0,0,1-.261-2.067Z" transform="translate(-77.29 -230.423)" fill="#fff" opacity="0"/>
        <path id="Trazado_105536" data-name="Trazado 105536" d="M99.46,242.152a11.018,11.018,0,0,0-17.107-9.136,11.38,11.38,0,0,0-4.471,5.758c-.123.429-.233.811-.328,1.145-.063.342-.116.634-.159.871-.08.479-.073.75-.084.776.011-.026-.014-.3.038-.781q.044-.364.109-.887c.077-.342.166-.735.267-1.174a11.48,11.48,0,0,1,4.333-6.137,11.651,11.651,0,0,1,16.217,2.7,11.734,11.734,0,0,1-5.318,17.816,11.651,11.651,0,0,1-10.9-1.391,11.48,11.48,0,0,1-4.333-6.137c-.1-.44-.19-.832-.267-1.174q-.065-.522-.109-.887c-.052-.483-.027-.754-.038-.781.011.027,0,.3.084.776.043.237.1.529.159.871.095.334.205.716.328,1.145a11.38,11.38,0,0,0,4.471,5.758,11.143,11.143,0,0,0,10.282,1.005,10.991,10.991,0,0,0,6.825-10.143Z" transform="translate(-77.282 -230.42)" fill="#fff" opacity="0.038"/>
        <path id="Trazado_105537" data-name="Trazado 105537" d="M99.466,242.148a12.219,12.219,0,0,0-.5-3.269,11.809,11.809,0,0,0-1.4-2.893,11.218,11.218,0,0,0-4.647-3.878,11.413,11.413,0,0,0-5.466-.9,11.253,11.253,0,0,0-9.356,6.949,12.356,12.356,0,0,0-.762,2.818,12.3,12.3,0,0,1,.609-2.875,11.368,11.368,0,0,1,4.586-5.816,11.692,11.692,0,0,1,4.85-1.765,11.649,11.649,0,0,1,10.982,4.916,12.481,12.481,0,0,1,1.56,3.142,11.744,11.744,0,0,1,0,7.14,12.481,12.481,0,0,1-1.56,3.142,11.649,11.649,0,0,1-10.982,4.916,11.674,11.674,0,0,1-4.85-1.767,11.361,11.361,0,0,1-4.586-5.815,12.3,12.3,0,0,1-.609-2.875,12.356,12.356,0,0,0,.762,2.818,11.253,11.253,0,0,0,9.356,6.949,11.414,11.414,0,0,0,5.466-.9,11.218,11.218,0,0,0,4.647-3.878,11.81,11.81,0,0,0,1.4-2.893A12.221,12.221,0,0,0,99.466,242.148Z" transform="translate(-77.273 -230.416)" fill="#fff" opacity="0.077"/>
        <path id="Trazado_105538" data-name="Trazado 105538" d="M99.454,242.142a12.378,12.378,0,0,0-.475-3.2,12.079,12.079,0,0,0-1.336-2.843,11.083,11.083,0,0,0-14.413-3.674,11.346,11.346,0,0,0-4.917,5.124,10.554,10.554,0,0,0-.916,2.839,10.611,10.611,0,0,1,.768-2.906,11.448,11.448,0,0,1,4.822-5.494,11.639,11.639,0,0,1,10.535-.522,11.8,11.8,0,0,1,4.9,4.11,12.8,12.8,0,0,1,1.483,3.082,11.74,11.74,0,0,1,0,6.961,12.8,12.8,0,0,1-1.483,3.082,11.8,11.8,0,0,1-4.9,4.11,11.635,11.635,0,0,1-10.535-.524,11.44,11.44,0,0,1-4.822-5.492,10.623,10.623,0,0,1-.768-2.906,10.553,10.553,0,0,0,.916,2.839,11.346,11.346,0,0,0,4.917,5.124,11.087,11.087,0,0,0,14.413-3.674,12.08,12.08,0,0,0,1.336-2.843A12.379,12.379,0,0,0,99.454,242.142Z" transform="translate(-77.248 -230.41)" fill="#fff" opacity="0.115"/>
        <path id="Trazado_105539" data-name="Trazado 105539" d="M99.441,242.138a11.052,11.052,0,0,0-15.758-9.958,11.326,11.326,0,0,0-5.114,4.784,11.65,11.65,0,0,0-1.106,2.846,11.885,11.885,0,0,1,.962-2.921,11.428,11.428,0,0,1,5.043-5.147,11.619,11.619,0,0,1,15.011,3.993,11.656,11.656,0,0,1,0,12.81,11.619,11.619,0,0,1-15.011,3.993,11.428,11.428,0,0,1-5.043-5.147,11.9,11.9,0,0,1-.962-2.921,11.651,11.651,0,0,0,1.106,2.846,11.326,11.326,0,0,0,5.114,4.784,11.122,11.122,0,0,0,9.747-.165,11.016,11.016,0,0,0,6.01-9.795Z" transform="translate(-77.221 -230.406)" fill="#fff" opacity="0.154"/>
        <path id="Trazado_105540" data-name="Trazado 105540" d="M99.413,242.134a11.066,11.066,0,0,0-15.288-10.2,11.3,11.3,0,0,0-5.279,4.458,10.625,10.625,0,0,0-1.278,2.843,10.862,10.862,0,0,1,1.138-2.926,11.409,11.409,0,0,1,5.23-4.814,11.587,11.587,0,0,1,14.58,4.386A11.689,11.689,0,0,1,94.042,252.5a11.633,11.633,0,0,1-10.106.271,11.409,11.409,0,0,1-5.23-4.814,10.861,10.861,0,0,1-1.138-2.926,10.625,10.625,0,0,0,1.278,2.843,11.174,11.174,0,0,0,14.825,3.93A11.116,11.116,0,0,0,99.413,242.134Z" transform="translate(-77.18 -230.402)" fill="#fff" opacity="0.192"/>
        <path id="Trazado_105541" data-name="Trazado 105541" d="M99.383,242.128a11.073,11.073,0,0,0-14.8-10.4,11.26,11.26,0,0,0-6.906,6.935,11.741,11.741,0,0,1,1.328-2.924,11.508,11.508,0,0,1,15.273-3.807,11.653,11.653,0,0,1,0,20.384,11.512,11.512,0,0,1-15.273-3.807,11.764,11.764,0,0,1-1.328-2.924,11.26,11.26,0,0,0,6.906,6.935,11.073,11.073,0,0,0,14.8-10.4Z" transform="translate(-77.136 -230.396)" fill="#fff" opacity="0.231"/>
        <path id="Trazado_105542" data-name="Trazado 105542" d="M99.34,242.126A11.1,11.1,0,0,0,85.032,231.54a11.286,11.286,0,0,0-5.562,3.77,10.621,10.621,0,0,0-1.646,2.805,10.894,10.894,0,0,1,1.519-2.9,11.4,11.4,0,0,1,5.55-4.108,11.545,11.545,0,0,1,9.606,1.01,11.628,11.628,0,0,1,0,20.024,11.545,11.545,0,0,1-9.606,1.01,11.4,11.4,0,0,1-5.55-4.108,10.894,10.894,0,0,1-1.519-2.9,10.62,10.62,0,0,0,1.646,2.805,11.294,11.294,0,0,0,5.562,3.77A11.106,11.106,0,0,0,99.34,242.126Z" transform="translate(-77.079 -230.394)" fill="#fff" opacity="0.269"/>
        <path id="Trazado_105543" data-name="Trazado 105543" d="M99.291,242.121a11.243,11.243,0,0,0-1.4-5.381A11.182,11.182,0,0,0,79.812,234.8a11.286,11.286,0,0,0-1.835,2.768,11.57,11.57,0,0,1,1.715-2.871,11.334,11.334,0,0,1,5.682-3.74,11.572,11.572,0,0,1,13.219,5.385,11.6,11.6,0,0,1,0,11.564,11.572,11.572,0,0,1-13.219,5.385,11.352,11.352,0,0,1-5.682-3.74,11.6,11.6,0,0,1-1.715-2.871,11.236,11.236,0,0,0,16.344,4.668,11.12,11.12,0,0,0,3.565-3.843A11.244,11.244,0,0,0,99.291,242.121Z" transform="translate(-77.018 -230.388)" fill="#fff" opacity="0.308"/>
        <path id="Trazado_105544" data-name="Trazado 105544" d="M99.233,242.116a11.442,11.442,0,0,0-1.322-5.249,11.558,11.558,0,0,0-3.395-3.816,11.2,11.2,0,0,0-14.339,1.261,10.9,10.9,0,0,0-2.018,2.722,11.162,11.162,0,0,1,1.9-2.831,11.426,11.426,0,0,1,5.784-3.386,11.635,11.635,0,0,1,9.064,1.658,11.613,11.613,0,0,1,0,19.287,11.641,11.641,0,0,1-9.064,1.658,11.426,11.426,0,0,1-5.784-3.386,11.162,11.162,0,0,1-1.9-2.831,10.9,10.9,0,0,0,2.018,2.722,11.2,11.2,0,0,0,14.339,1.261,11.061,11.061,0,0,0,4.717-9.067Z" transform="translate(-76.945 -230.384)" fill="#fff" opacity="0.346"/>
        <path id="Trazado_105545" data-name="Trazado 105545" d="M99.169,242.114A11.427,11.427,0,0,0,97.917,237a11.2,11.2,0,0,0-17.352-3.148,11.311,11.311,0,0,0-2.209,2.656,11.618,11.618,0,0,1,2.1-2.769,11.243,11.243,0,0,1,5.867-3.021,11.423,11.423,0,0,1,8.767,1.955,11.645,11.645,0,0,1,3.5,3.97,11.578,11.578,0,0,1,0,10.932,11.65,11.65,0,0,1-3.5,3.972,11.431,11.431,0,0,1-8.768,1.955,11.254,11.254,0,0,1-5.865-3.021,11.58,11.58,0,0,1-2.1-2.769,11.309,11.309,0,0,0,2.209,2.656,11.177,11.177,0,0,0,17.352-3.148A11.428,11.428,0,0,0,99.169,242.114Z" transform="translate(-76.868 -230.382)" fill="#fff" opacity="0.385"/>
        <path id="Trazado_105546" data-name="Trazado 105546" d="M99.1,242.108a11.154,11.154,0,0,0-12.257-11.06,11.464,11.464,0,0,0-5.882,2.366,11.012,11.012,0,0,0-2.385,2.592A11.266,11.266,0,0,1,80.86,233.3a11.579,11.579,0,1,1,0,17.628,11.265,11.265,0,0,1-2.287-2.711,11.044,11.044,0,0,0,2.385,2.592,11.464,11.464,0,0,0,5.882,2.366A11.154,11.154,0,0,0,99.1,242.108Z" transform="translate(-76.781 -230.376)" fill="#fff" opacity="0.423"/>
        <path id="Trazado_105547" data-name="Trazado 105547" d="M99.016,242.106a11.216,11.216,0,0,0-20.208-6.587,11.472,11.472,0,0,1,2.486-2.621,11.24,11.24,0,0,1,5.966-2.3,11.443,11.443,0,0,1,8.165,2.484,11.574,11.574,0,0,1,0,18.052,11.449,11.449,0,0,1-8.165,2.484,11.241,11.241,0,0,1-5.966-2.3,11.475,11.475,0,0,1-2.486-2.62,11.189,11.189,0,0,0,20.208-6.589Z" transform="translate(-76.688 -230.374)" fill="#fff" opacity="0.462"/>
        <path id="Trazado_105548" data-name="Trazado 105548" d="M98.93,242.1a11.221,11.221,0,0,0-19.87-7.056,11.431,11.431,0,0,1,16.5-1.743,11.537,11.537,0,0,1,0,17.6,11.411,11.411,0,0,1-16.5-1.743A11.2,11.2,0,0,0,98.93,242.1Z" transform="translate(-76.588 -230.368)" fill="#fff" opacity="0.5"/>
        <path id="Trazado_105549" data-name="Trazado 105549" d="M98.837,242.1A11.22,11.22,0,0,0,82.264,232.3a10.972,10.972,0,0,0-2.933,2.293,11.332,11.332,0,0,1,8.842-4.019,11.415,11.415,0,0,1,7.519,2.951,11.512,11.512,0,0,1,0,17.142,11.449,11.449,0,0,1-13.5,1.356,11.217,11.217,0,0,1-2.857-2.424,11,11,0,0,0,2.933,2.293,11.206,11.206,0,0,0,16.573-9.8Z" transform="translate(-76.481 -230.363)" fill="#fff" opacity="0.538"/>
        <path id="Trazado_105550" data-name="Trazado 105550" d="M98.739,242.092A11.223,11.223,0,0,0,82.726,232a11.588,11.588,0,0,0-3.113,2.16,11.8,11.8,0,0,1,3.047-2.294,11.435,11.435,0,0,1,13.155,1.889,11.511,11.511,0,0,1,0,16.684,11.435,11.435,0,0,1-13.155,1.889,11.8,11.8,0,0,1-3.047-2.294,11.578,11.578,0,0,0,3.114,2.16,11.208,11.208,0,0,0,16.012-10.1Z" transform="translate(-76.369 -230.36)" fill="#fff" opacity="0.577"/>
        <path id="Trazado_105551" data-name="Trazado 105551" d="M98.632,242.087a11.2,11.2,0,0,0-9.622-11.068,11.5,11.5,0,0,0-5.82.69,10.984,10.984,0,0,0-3.272,2.04,11.171,11.171,0,0,1,3.215-2.177,11.5,11.5,0,1,1,0,21.032,11.171,11.171,0,0,1-3.215-2.177,10.975,10.975,0,0,0,3.273,2.04,11.5,11.5,0,0,0,5.819.69,11.2,11.2,0,0,0,9.622-11.07Z" transform="translate(-76.248 -230.355)" fill="#fff" opacity="0.615"/>
        <path id="Trazado_105552" data-name="Trazado 105552" d="M98.521,242.084a11.239,11.239,0,0,0-14.844-10.6,11.732,11.732,0,0,0-3.448,1.871,11.9,11.9,0,0,1,3.4-2.01,11.248,11.248,0,0,1,5.858-.592,11.374,11.374,0,0,1,6.521,3.481,11.459,11.459,0,0,1,0,15.709,11.374,11.374,0,0,1-6.521,3.481,11.248,11.248,0,0,1-5.858-.592,11.864,11.864,0,0,1-3.4-2.011,11.7,11.7,0,0,0,3.448,1.873,11.235,11.235,0,0,0,14.844-10.606Z" transform="translate(-76.125 -230.352)" fill="#fff" opacity="0.654"/>
        <path id="Trazado_105553" data-name="Trazado 105553" d="M98.4,242.08a11.242,11.242,0,0,0-8.577-10.892,11.518,11.518,0,0,0-5.667.081,10.972,10.972,0,0,0-3.594,1.725,11.084,11.084,0,0,1,3.554-1.866,11.587,11.587,0,0,1,5.781-.268,11.415,11.415,0,0,1,6.186,3.615,11.456,11.456,0,0,1,0,15.212A11.415,11.415,0,0,1,89.9,253.3a11.6,11.6,0,0,1-5.781-.268,11.085,11.085,0,0,1-3.554-1.866,10.966,10.966,0,0,0,3.6,1.725,11.529,11.529,0,0,0,5.665.081A11.241,11.241,0,0,0,98.4,242.08Z" transform="translate(-75.992 -230.347)" fill="#fff" opacity="0.692"/>
        <path id="Trazado_105554" data-name="Trazado 105554" d="M98.283,242.077a11.213,11.213,0,0,0-8.065-10.763,11.207,11.207,0,0,0-5.564-.211,11.512,11.512,0,0,0-3.754,1.54,11.633,11.633,0,0,1,3.722-1.683,11.317,11.317,0,0,1,5.684.039,11.549,11.549,0,0,1,5.855,3.722,11.477,11.477,0,0,1,0,14.712,11.549,11.549,0,0,1-5.855,3.722,11.322,11.322,0,0,1-5.685.039,11.668,11.668,0,0,1-3.72-1.683,11.543,11.543,0,0,0,3.754,1.54,11.247,11.247,0,0,0,5.565-.211,11.215,11.215,0,0,0,8.063-10.764Z" transform="translate(-75.858 -230.345)" fill="#fff" opacity="0.731"/>
        <path id="Trazado_105555" data-name="Trazado 105555" d="M98.154,242.072A11.276,11.276,0,0,0,90.6,231.46a11.42,11.42,0,0,0-5.449-.489,11.146,11.146,0,0,0-3.889,1.363,11.2,11.2,0,0,1,3.865-1.505,11.443,11.443,0,1,1,0,22.487,11.2,11.2,0,0,1-3.864-1.505,11.147,11.147,0,0,0,3.889,1.363,11.438,11.438,0,0,0,5.449-.489,11.28,11.28,0,0,0,7.556-10.613Z" transform="translate(-75.716 -230.34)" fill="#fff" opacity="0.769"/>
        <path id="Trazado_105556" data-name="Trazado 105556" d="M98.023,242.072a11.3,11.3,0,0,0-16.4-10.032,11.387,11.387,0,0,1,14.625,3.213,11.393,11.393,0,0,1,0,13.639,11.372,11.372,0,0,1-14.625,3.213,11.29,11.29,0,0,0,16.4-10.034Z" transform="translate(-75.572 -230.34)" fill="#fff" opacity="0.808"/>
        <path id="Trazado_105557" data-name="Trazado 105557" d="M97.887,242.065a12.464,12.464,0,0,0-.512-3.361,12.114,12.114,0,0,0-1.431-2.955A11.3,11.3,0,0,0,82,231.778a11.378,11.378,0,0,1,14.283,3.734,12.215,12.215,0,0,1,1.519,3.054,11.451,11.451,0,0,1,0,7,12.2,12.2,0,0,1-1.519,3.055A11.379,11.379,0,0,1,82,252.352a11.3,11.3,0,0,0,13.942-3.97,12.114,12.114,0,0,0,1.431-2.955A12.474,12.474,0,0,0,97.887,242.065Z" transform="translate(-75.422 -230.333)" fill="#fff" opacity="0.846"/>
        <path id="Trazado_105558" data-name="Trazado 105558" d="M97.749,242.065a11.308,11.308,0,0,0-15.364-10.522A11.38,11.38,0,0,1,96.3,235.79a11.393,11.393,0,0,1,0,12.55,11.38,11.38,0,0,1-13.916,4.248,11.3,11.3,0,0,0,15.364-10.524Z" transform="translate(-75.27 -230.333)" fill="#fff" opacity="0.885"/>
        <path id="Trazado_105559" data-name="Trazado 105559" d="M97.607,242.059a11.312,11.312,0,0,0-14.828-10.725,11.4,11.4,0,1,1,0,21.451,11.311,11.311,0,0,0,14.828-10.726Z" transform="translate(-75.114 -230.327)" fill="#fff" opacity="0.923"/>
        <path id="Trazado_105560" data-name="Trazado 105560" d="M97.462,242.058a11.329,11.329,0,0,0-14.284-10.9,11.338,11.338,0,0,1,9.261,1.212,11.391,11.391,0,0,1,0,19.382,11.333,11.333,0,0,1-9.261,1.211,11.327,11.327,0,0,0,14.284-10.9Z" transform="translate(-74.956 -230.326)" fill="#fff" opacity="0.962"/>
        <path id="Trazado_105561" data-name="Trazado 105561" d="M97.314,242.054a11.275,11.275,0,0,0-4.719-9.173,11.4,11.4,0,0,0-9.01-1.874,11.334,11.334,0,0,1,9.155,1.67,11.656,11.656,0,0,1,3.557,3.956,11.383,11.383,0,0,1-3.557,14.8,11.339,11.339,0,0,1-9.155,1.67,11.4,11.4,0,0,0,9.01-1.875,11.269,11.269,0,0,0,4.719-9.173Z" transform="translate(-74.794 -230.322)" fill="#fff"/>
      </g>
    </g>
  </g>
</svg>
