<svg xmlns="http://www.w3.org/2000/svg" width="610" height="381" viewBox="0 0 610 381">
  <g id="Grupo_91029" data-name="Grupo 91029" transform="translate(-810 -399)">
    <g id="Grupo_91028" data-name="Grupo 91028">
      <rect id="Rectángulo_5160" data-name="Rectángulo 5160" width="190" height="286" transform="translate(1230 494)" fill="#01549e"/>
      <rect id="Rectángulo_5159" data-name="Rectángulo 5159" width="525" height="363" transform="translate(810 399)" fill="#f3f9ff"/>
    </g>
    <g id="Grupo_54463" data-name="Grupo 54463" transform="translate(847 358.047)">
      <g id="Background_Complete" data-name="Background Complete" transform="translate(0 54.953)">
        <g id="Grupo_54382" data-name="Grupo 54382">
          <rect id="Rectángulo_5434" data-name="Rectángulo 5434" width="450.45" height="0.225" transform="translate(0 294.996)" fill="#ebebeb"/>
          <rect id="Rectángulo_5435" data-name="Rectángulo 5435" width="29.84" height="0.225" transform="translate(375.477 309.497)" fill="#ebebeb"/>
          <rect id="Rectángulo_5436" data-name="Rectángulo 5436" width="7.832" height="0.225" transform="translate(290.565 311.941)" fill="#ebebeb"/>
          <rect id="Rectángulo_5437" data-name="Rectángulo 5437" width="17.29" height="0.225" transform="translate(357.284 301.131)" fill="#ebebeb"/>
          <rect id="Rectángulo_5438" data-name="Rectángulo 5438" width="38.913" height="0.225" transform="translate(47.26 302.644)" fill="#ebebeb"/>
          <rect id="Rectángulo_5439" data-name="Rectángulo 5439" width="5.705" height="0.225" transform="translate(94.194 302.644)" fill="#ebebeb"/>
          <rect id="Rectángulo_5440" data-name="Rectángulo 5440" width="84.393" height="0.225" transform="translate(118.443 306.448)" fill="#ebebeb"/>
          <path id="Trazado_101345" data-name="Trazado 101345" d="M217.312,309.77H43.349a5.149,5.149,0,0,1-5.142-5.142V60.094a5.148,5.148,0,0,1,5.142-5.141H217.312a5.148,5.148,0,0,1,5.141,5.141V304.628A5.148,5.148,0,0,1,217.312,309.77ZM43.349,55.178a4.922,4.922,0,0,0-4.917,4.916V304.628a4.922,4.922,0,0,0,4.917,4.917H217.312a4.922,4.922,0,0,0,4.916-4.917V60.094a4.922,4.922,0,0,0-4.916-4.916Z" transform="translate(-3.786 -54.953)" fill="#ebebeb"/>
          <path id="Trazado_101346" data-name="Trazado 101346" d="M433.609,309.77H259.646a5.148,5.148,0,0,1-5.141-5.142V60.094a5.147,5.147,0,0,1,5.141-5.141H433.609a5.148,5.148,0,0,1,5.143,5.141V304.628A5.149,5.149,0,0,1,433.609,309.77ZM259.646,55.178a4.922,4.922,0,0,0-4.916,4.916V304.628a4.922,4.922,0,0,0,4.916,4.917H433.609a4.923,4.923,0,0,0,4.918-4.917V60.094a4.923,4.923,0,0,0-4.918-4.916Z" transform="translate(-25.221 -54.953)" fill="#ebebeb"/>
        </g>
        <g id="Grupo_54405" data-name="Grupo 54405" transform="translate(53.467 93.419)">
          <g id="Grupo_54401" data-name="Grupo 54401" transform="translate(0 96.622)">
            <g id="Grupo_54383" data-name="Grupo 54383" transform="translate(12.616 25.255)">
              <path id="Trazado_101347" data-name="Trazado 101347" d="M73.352,293.932v11.982L83.6,308.23l298.03-2.951,10.25-7.759-10.25-2.315Z" transform="translate(-73.352 -293.932)" fill="#e0e0e0"/>
              <path id="Trazado_101348" data-name="Trazado 101348" d="M84.73,296.5v11.982l308.28-.636V297.775Z" transform="translate(-74.48 -294.187)" fill="#e6e6e6"/>
            </g>
            <g id="Grupo_54384" data-name="Grupo 54384" transform="translate(12.616 59.453)">
              <path id="Trazado_101349" data-name="Trazado 101349" d="M73.352,331.892v11.982l10.25,2.315,298.03-2.951,10.25-7.759-10.25-2.315Z" transform="translate(-73.352 -331.892)" fill="#e0e0e0"/>
              <path id="Trazado_101350" data-name="Trazado 101350" d="M84.73,334.462v11.982l308.28-.636V335.734Z" transform="translate(-74.48 -332.146)" fill="#e6e6e6"/>
            </g>
            <g id="Grupo_54388" data-name="Grupo 54388" transform="translate(29.282 11.451)">
              <g id="Grupo_54385" data-name="Grupo 54385">
                <path id="Trazado_101351" data-name="Trazado 101351" d="M106.149,278.609H94.167l-2.315,2.336L94.8,348.854l7.759,2.336,2.315-2.336Z" transform="translate(-91.852 -278.609)" fill="#e0e0e0"/>
                <path id="Trazado_101352" data-name="Trazado 101352" d="M103.834,281.2H91.852l.636,70.245h10.074Z" transform="translate(-91.852 -278.866)" fill="#f0f0f0"/>
              </g>
              <g id="Grupo_54386" data-name="Grupo 54386" transform="translate(25.142)">
                <path id="Trazado_101353" data-name="Trazado 101353" d="M134.057,278.609H122.075l-2.315,2.336,2.951,67.909,7.759,2.336,2.315-2.336Z" transform="translate(-119.76 -278.609)" fill="#e0e0e0"/>
                <path id="Trazado_101354" data-name="Trazado 101354" d="M131.742,281.2H119.76l.636,70.245H130.47Z" transform="translate(-119.76 -278.866)" fill="#f0f0f0"/>
              </g>
              <g id="Grupo_54387" data-name="Grupo 54387" transform="translate(50.284)">
                <path id="Trazado_101355" data-name="Trazado 101355" d="M161.965,278.609H149.983l-2.315,2.336,2.951,67.909,7.759,2.336,2.315-2.336Z" transform="translate(-147.668 -278.609)" fill="#e0e0e0"/>
                <path id="Trazado_101356" data-name="Trazado 101356" d="M159.65,281.2H147.668l.636,70.245h10.074Z" transform="translate(-147.668 -278.866)" fill="#f0f0f0"/>
              </g>
            </g>
            <g id="Grupo_54392" data-name="Grupo 54392" transform="translate(134.26 11.451)">
              <g id="Grupo_54389" data-name="Grupo 54389">
                <path id="Trazado_101357" data-name="Trazado 101357" d="M222.674,278.609H210.692l-2.315,2.336,2.951,67.909,7.759,2.336,2.315-2.336Z" transform="translate(-208.377 -278.609)" fill="#e0e0e0"/>
                <path id="Trazado_101358" data-name="Trazado 101358" d="M220.359,281.2H208.377l.636,70.245h10.074Z" transform="translate(-208.377 -278.866)" fill="#f0f0f0"/>
              </g>
              <g id="Grupo_54390" data-name="Grupo 54390" transform="translate(25.142)">
                <path id="Trazado_101359" data-name="Trazado 101359" d="M250.582,278.609H238.6l-2.315,2.336,2.951,67.909,7.759,2.336,2.315-2.336Z" transform="translate(-236.285 -278.609)" fill="#e0e0e0"/>
                <path id="Trazado_101360" data-name="Trazado 101360" d="M248.267,281.2H236.285l.636,70.245h10.074Z" transform="translate(-236.285 -278.866)" fill="#f0f0f0"/>
              </g>
              <g id="Grupo_54391" data-name="Grupo 54391" transform="translate(50.284)">
                <path id="Trazado_101361" data-name="Trazado 101361" d="M278.49,278.609H266.508l-2.315,2.336,2.951,67.909,7.759,2.336,2.315-2.336Z" transform="translate(-264.193 -278.609)" fill="#e0e0e0"/>
                <path id="Trazado_101362" data-name="Trazado 101362" d="M276.175,281.2H264.193l.636,70.245H274.9Z" transform="translate(-264.193 -278.866)" fill="#f0f0f0"/>
              </g>
            </g>
            <g id="Grupo_54396" data-name="Grupo 54396" transform="translate(243.186 11.451)">
              <g id="Grupo_54393" data-name="Grupo 54393">
                <path id="Trazado_101363" data-name="Trazado 101363" d="M343.582,278.609H331.6l-2.315,2.336,2.951,67.909L340,351.19l2.315-2.336Z" transform="translate(-329.285 -278.609)" fill="#e0e0e0"/>
                <path id="Trazado_101364" data-name="Trazado 101364" d="M341.267,281.2H329.285l.636,70.245H340Z" transform="translate(-329.285 -278.866)" fill="#f0f0f0"/>
              </g>
              <g id="Grupo_54394" data-name="Grupo 54394" transform="translate(25.142)">
                <path id="Trazado_101365" data-name="Trazado 101365" d="M371.49,278.609H359.508l-2.315,2.336,2.951,67.909,7.759,2.336,2.315-2.336Z" transform="translate(-357.193 -278.609)" fill="#e0e0e0"/>
                <path id="Trazado_101366" data-name="Trazado 101366" d="M369.175,281.2H357.193l.636,70.245H367.9Z" transform="translate(-357.193 -278.866)" fill="#f0f0f0"/>
              </g>
              <g id="Grupo_54395" data-name="Grupo 54395" transform="translate(50.284)">
                <path id="Trazado_101367" data-name="Trazado 101367" d="M399.4,278.609H387.416l-2.315,2.336,2.951,67.909,7.759,2.336,2.315-2.336Z" transform="translate(-385.101 -278.609)" fill="#e0e0e0"/>
                <path id="Trazado_101368" data-name="Trazado 101368" d="M397.083,281.2H385.1l.636,70.245h10.074Z" transform="translate(-385.101 -278.866)" fill="#f0f0f0"/>
              </g>
            </g>
            <g id="Grupo_54397" data-name="Grupo 54397" transform="translate(105.936)">
              <path id="Trazado_101369" data-name="Trazado 101369" d="M193.587,267.7l-13.37-1.8-3.28,3.076,4.181,89.449,12.793,3.076,3.28-3.076Z" transform="translate(-176.938 -265.899)" fill="#e0e0e0"/>
              <path id="Trazado_101370" data-name="Trazado 101370" d="M190.308,271.116l-13.37-1.8.9,92.525h16.073Z" transform="translate(-176.938 -266.237)" fill="#fafafa"/>
            </g>
            <g id="Grupo_54398" data-name="Grupo 54398" transform="translate(210.972)">
              <path id="Trazado_101371" data-name="Trazado 101371" d="M314.78,265.9l-16.973.9-3.28,3.076,2.379,88.548L309.7,361.5l3.28-3.076Z" transform="translate(-293.626 -265.899)" fill="#e0e0e0"/>
              <path id="Trazado_101372" data-name="Trazado 101372" d="M311.4,269.314l-16.973.9-.9,91.624H309.6Z" transform="translate(-293.527 -266.237)" fill="#fafafa"/>
            </g>
            <g id="Grupo_54399" data-name="Grupo 54399" transform="translate(317.809)">
              <path id="Trazado_101373" data-name="Trazado 101373" d="M432.37,265.9H415.4l-3.28,3.076,4.181,89.449,10.991,3.076,3.28-3.076Z" transform="translate(-412.116 -265.899)" fill="#e0e0e0"/>
              <path id="Trazado_101374" data-name="Trazado 101374" d="M429.09,269.314H412.116l.9,92.525h14.271Z" transform="translate(-412.116 -266.237)" fill="#fafafa"/>
            </g>
            <g id="Grupo_54400" data-name="Grupo 54400">
              <path id="Trazado_101375" data-name="Trazado 101375" d="M79.6,265.9H62.628l-3.28,3.076,4.181,89.449L74.52,361.5l3.28-3.076Z" transform="translate(-59.348 -265.899)" fill="#e0e0e0"/>
              <path id="Trazado_101376" data-name="Trazado 101376" d="M76.322,269.314H59.348l.9,92.525H74.52Z" transform="translate(-59.348 -266.237)" fill="#fafafa"/>
            </g>
          </g>
          <g id="Grupo_54404" data-name="Grupo 54404" transform="translate(22.603)">
            <g id="Grupo_54403" data-name="Grupo 54403">
              <g id="Grupo_54402" data-name="Grupo 54402">
                <path id="Trazado_101377" data-name="Trazado 101377" d="M96.112,170c3.9-.9,8.351,1.92,11.8-.116,4.286-2.534,3.976-10.652,8.926-11.19,8.61-.936,12.057,11.8,17.292,12.215,4.894.387,7.932-6.2,12.818-6.668,6.09-.587,9.674,7.783,15.75,8.5,3.35.4,6.575-1.623,9.945-1.47a7.832,7.832,0,0,1,7.223,8.036H84.438S90.889,171.208,96.112,170Z" transform="translate(-84.438 -158.648)" fill="#fafafa"/>
                <path id="Trazado_101378" data-name="Trazado 101378" d="M237.024,175.138c2.862-1.661,5.444-1.072,8.223-.553s3.084-3.216,6.374-4.822c4.595-2.243,7.386,2.58,8.566,4.553s4.141.892,7.058,1.416c4.041.727,4.18,4.945,4.18,4.945H233.872S233.949,176.922,237.024,175.138Z" transform="translate(-99.247 -159.692)" fill="#f5f5f5"/>
              </g>
            </g>
            <path id="Trazado_101379" data-name="Trazado 101379" d="M237.883,203.745c-1.592-.367-3.41.784-4.816-.047-1.75-1.035-1.623-4.35-3.645-4.569-3.515-.383-4.923,4.818-7.06,4.987-2,.159-3.239-2.53-5.234-2.723-2.486-.24-3.95,3.178-6.431,3.47-1.368.161-2.686-.663-4.061-.6a3.2,3.2,0,0,0-2.949,3.281H242.65S240.015,204.237,237.883,203.745Z" transform="translate(-96.255 -162.658)" fill="#f5f5f5"/>
            <path id="Trazado_101380" data-name="Trazado 101380" d="M377.622,177.265c-1.932-.445-4.137.95-5.843-.058-2.123-1.255-1.969-5.277-4.422-5.543-4.264-.464-5.972,5.846-8.566,6.051-2.424.192-3.929-3.07-6.35-3.3-3.016-.29-4.792,3.856-7.8,4.211-1.659.2-3.258-.8-4.927-.728a3.879,3.879,0,0,0-3.577,3.98H383.4S380.208,177.862,377.622,177.265Z" transform="translate(-109.381 -159.936)" fill="#f5f5f5"/>
          </g>
        </g>
      </g>
      <g id="Shadow" transform="translate(50.551 370.234)">
        <ellipse id="_Path_" data-name="&lt;Path&gt;" cx="174.675" cy="10.201" rx="174.675" ry="10.201" fill="#f5f5f5"/>
      </g>
      <g id="Character_3" data-name="Character 3" transform="translate(274.206 174.525)">
        <g id="Grupo_54419" data-name="Grupo 54419">
          <g id="Grupo_54416" data-name="Grupo 54416" transform="translate(3.153 3.153)">
            <g id="Grupo_54409" data-name="Grupo 54409">
              <g id="Grupo_54408" data-name="Grupo 54408">
                <g id="Grupo_54406" data-name="Grupo 54406">
                  <path id="Trazado_101381" data-name="Trazado 101381" d="M436.459,394.385H307.869V191.178h128.59Zm-127.689-.9H435.558V192.079H308.77Z" transform="translate(-307.869 -191.178)" fill="#263238"/>
                </g>
                <g id="Grupo_54407" data-name="Grupo 54407" opacity="0.6">
                  <path id="Trazado_101382" data-name="Trazado 101382" d="M436.459,394.385H307.869V191.178h128.59Zm-127.689-.9H435.558V192.079H308.77Z" transform="translate(-307.869 -191.178)" fill="#fff"/>
                </g>
              </g>
            </g>
            <g id="Grupo_54415" data-name="Grupo 54415" transform="translate(3.767 3.216)">
              <path id="Trazado_101383" data-name="Trazado 101383" d="M367.354,256.877s-9.028,11.794,3.494,20.821l3.053-7.275s-1.507-2.369-.633-8.63Z" transform="translate(-317.219 -200.905)" fill="#ebb376"/>
              <path id="Trazado_101384" data-name="Trazado 101384" d="M392.125,237.046c-4.568-4.323-11.3-1.859-27,17.493,0,0,6.2,6.506,10.009,8.474,0,0,13.479-11.34,15.848-13.992S397.669,242.295,392.125,237.046Z" transform="translate(-317.311 -198.759)" fill="#407bff"/>
              <path id="Trazado_101385" data-name="Trazado 101385" d="M392.125,237.046c-4.568-4.323-11.3-1.859-27,17.493,0,0,6.2,6.506,10.009,8.474,0,0,13.479-11.34,15.848-13.992S397.669,242.295,392.125,237.046Z" transform="translate(-317.311 -198.759)" fill="#fff" opacity="0.1"/>
              <path id="Trazado_101386" data-name="Trazado 101386" d="M401.357,377.813l4.773-5.453,4.052,3.655-4.825,5.863Z" transform="translate(-320.901 -212.349)" fill="#ebb376"/>
              <path id="Trazado_101387" data-name="Trazado 101387" d="M405.717,382.117l-4.85-4.569a.541.541,0,0,0-.686.064l-5.247,4.271a1.166,1.166,0,0,0-.46,1.376.579.579,0,0,0,.11.137c1.564,1.407,2.8,2.324,4.724,4.135,1.184,1.115,4.59,4.654,6.224,6.194s3.989-.532,3.518-1.372c-2.134-3.748-3.19-7.152-3.008-9.27A1.113,1.113,0,0,0,405.717,382.117Z" transform="translate(-320.21 -212.854)" fill="#263238"/>
              <path id="Trazado_101388" data-name="Trazado 101388" d="M380.561,306.3s13.872,16.134,42.5,24.651c0,0-13.1,8.983-17.937,29.293l-3.05,4.282a14.87,14.87,0,0,0,6.078,4.78l3.027-4.094s19.7-17.525,28.529-37.767c-.125-10.042-46.736-39.448-49.78-36.771S380.561,306.3,380.561,306.3Z" transform="translate(-318.84 -204.238)" fill="#407bff"/>
              <path id="Trazado_101389" data-name="Trazado 101389" d="M380.561,306.3s13.872,16.134,42.5,24.651c0,0-13.1,8.983-17.937,29.293l-3.05,4.282a14.87,14.87,0,0,0,6.078,4.78l3.027-4.094s19.7-17.525,28.529-37.767c-.125-10.042-46.736-39.448-49.78-36.771S380.561,306.3,380.561,306.3Z" transform="translate(-318.84 -204.238)" opacity="0.5"/>
              <path id="Trazado_101390" data-name="Trazado 101390" d="M317.415,399.408,321.1,392.6l4.512,2.921-2.906,5.632Z" transform="translate(-312.582 -214.355)" fill="#ebb376"/>
              <path id="Trazado_101391" data-name="Trazado 101391" d="M322.548,401.354l-5.485-2.449a.539.539,0,0,0-.627.287l-4.146,5.493a1.167,1.167,0,0,0,.019,1.451.569.569,0,0,0,.149.093c1.94.814,3.412,1.271,5.823,2.348,1.486.663,5.868,2.881,7.918,3.8s3.591-1.817,2.869-2.454c-3.25-2.835-5.368-5.7-5.895-7.761A1.11,1.11,0,0,0,322.548,401.354Z" transform="translate(-312.051 -214.977)" fill="#263238"/>
              <path id="Trazado_101392" data-name="Trazado 101392" d="M365.333,341.924c-4.505,9.4-36.767,40.93-36.767,40.93l-3.076,3.9a11.886,11.886,0,0,1-6.1-3.731l2.551-4.177c14.18-33.214,29.842-39.708,29.842-39.708,1.859-33.558,5.74-36.387,9.913-49.816,8.235-2.2,22.16,1.164,22.16,1.164S379.742,317.541,365.333,341.924Z" transform="translate(-312.778 -204.046)" fill="#407bff"/>
              <path id="Trazado_101393" data-name="Trazado 101393" d="M365.333,341.924c-4.505,9.4-36.767,40.93-36.767,40.93l-3.076,3.9a11.886,11.886,0,0,1-6.1-3.731l2.551-4.177c14.18-33.214,29.842-39.708,29.842-39.708,1.859-33.558,5.74-36.387,9.913-49.816,8.235-2.2,22.16,1.164,22.16,1.164S379.742,317.541,365.333,341.924Z" transform="translate(-312.778 -204.046)" opacity="0.3"/>
              <path id="Trazado_101394" data-name="Trazado 101394" d="M392.12,284.51s-8.358,3.312-25.765-.777c0,0,13.309-42,16.1-47.98,2.387-5.114,21.171-5.121,26.368,2.4C414.515,246.384,399.331,279.373,392.12,284.51Z" transform="translate(-317.432 -198.457)" fill="#407bff"/>
              <path id="Trazado_101395" data-name="Trazado 101395" d="M392.12,284.51s-8.358,3.312-25.765-.777c0,0,13.309-42,16.1-47.98,2.387-5.114,21.171-5.121,26.368,2.4C414.515,246.384,399.331,279.373,392.12,284.51Z" transform="translate(-317.432 -198.457)" fill="#fff" opacity="0.6"/>
              <g id="Grupo_54410" data-name="Grupo 54410" transform="translate(62.401 33.687)">
                <path id="Trazado_101396" data-name="Trazado 101396" d="M424.4,284.981l4.465.781s4.741-1.7,5.894-1.612,6.342,3.216,6.342,3.216.994,1.618.848,2.045-7.444,4.307-8.8,4.246-4.335-2.836-4.79-3.182-7.794-2.9-7.794-2.9Z" transform="translate(-385.206 -237.295)" fill="#ebb376"/>
                <path id="Trazado_101397" data-name="Trazado 101397" d="M391.7,262.29s9.122,25.186,33.547,25.206l1.514-4.408s-14.945.346-26.439-23.141Z" transform="translate(-382.345 -234.897)" fill="#ebb376"/>
                <path id="Trazado_101398" data-name="Trazado 101398" d="M385.2,233.041c-5.756,2.538-6.089,9.7,5.677,31.664,0,0,8.4-3.2,11.687-5.948,0,0-5.238-16.819-6.766-20.029S392.189,229.961,385.2,233.041Z" transform="translate(-381.316 -232.141)" fill="#407bff"/>
                <path id="Trazado_101399" data-name="Trazado 101399" d="M385.2,233.041c-5.756,2.538-6.089,9.7,5.677,31.664,0,0,8.4-3.2,11.687-5.948,0,0-5.238-16.819-6.766-20.029S392.189,229.961,385.2,233.041Z" transform="translate(-381.316 -232.141)" fill="#fff" opacity="0.4"/>
              </g>
              <g id="Grupo_54414" data-name="Grupo 54414" transform="translate(76.663)">
                <path id="Trazado_101400" data-name="Trazado 101400" d="M402.2,217.237c-.314,4.145-1.536,11.611-5.011,13.477a13.1,13.1,0,0,0,7.889,6.254c5.011,1.507,4.374-2.7,4.374-2.7-3.732-2.523-3.124-5.712-1.516-8.557Z" transform="translate(-397.15 -196.977)" fill="#ebb376"/>
                <path id="Trazado_101401" data-name="Trazado 101401" d="M405.266,221.074l3.394,5.018a13.48,13.48,0,0,0-.934,2.1c-1.609-.7-3.441-3.215-3.136-5.017A6.007,6.007,0,0,1,405.266,221.074Z" transform="translate(-397.88 -197.357)" opacity="0.2" style="isolation: isolate"/>
                <g id="Grupo_54412" data-name="Grupo 54412">
                  <path id="Trazado_101402" data-name="Trazado 101402" d="M410.868,206.77c-1.948,1.921-.462,4.294,5.313,7.371,1.555-3.03.945-8.242-.92-9.238S412.567,205.1,410.868,206.77Z" transform="translate(-398.426 -195.719)" fill="#263238"/>
                  <path id="Trazado_101403" data-name="Trazado 101403" d="M401.158,212.551c.913,3.968,1.4,6.763,2.877,8.893a8.654,8.654,0,0,0,2.036,2.064c4.844,3.517,11.156-.105,11.55-5.761.014-.177.021-.362.021-.546.177-5.1-1.96-12.563-7.461-13.791a7.552,7.552,0,0,0-9.023,9.141Z" transform="translate(-397.523 -195.587)" fill="#ebb376"/>
                  <path id="Trazado_101404" data-name="Trazado 101404" d="M410.491,213.631c.074.443.371.764.66.714s.461-.443.386-.886-.365-.763-.653-.72S410.448,213.189,410.491,213.631Z" transform="translate(-398.468 -196.53)" fill="#263238"/>
                  <path id="Trazado_101405" data-name="Trazado 101405" d="M416.09,212.705c.074.443.37.763.66.713s.468-.442.394-.893-.371-.764-.661-.714S416.015,212.261,416.09,212.705Z" transform="translate(-399.022 -196.439)" fill="#263238"/>
                  <path id="Trazado_101406" data-name="Trazado 101406" d="M414.3,213.34a16.039,16.039,0,0,0,2.753,3.441,2.6,2.6,0,0,1-2.057.75Z" transform="translate(-398.846 -196.59)" fill="#d58745"/>
                  <path id="Trazado_101407" data-name="Trazado 101407" d="M408.633,212.022a.262.262,0,0,1-.172-.009.266.266,0,0,1-.116-.356,2.611,2.611,0,0,1,1.943-1.431.256.256,0,0,1,.286.219l0,.018a.274.274,0,0,1-.237.288h0a2.085,2.085,0,0,0-1.522,1.145A.278.278,0,0,1,408.633,212.022Z" transform="translate(-398.253 -196.282)" fill="#263238"/>
                  <path id="Trazado_101408" data-name="Trazado 101408" d="M418.084,210.318a.272.272,0,0,1-.262-.108,2.1,2.1,0,0,0-1.664-.934.266.266,0,0,1-.025-.531,2.637,2.637,0,0,1,2.118,1.16.262.262,0,0,1-.059.365l0,0A.3.3,0,0,1,418.084,210.318Z" transform="translate(-399.003 -196.135)" fill="#263238"/>
                  <path id="Trazado_101409" data-name="Trazado 101409" d="M403.752,204.093c2.695.449,1.246,6.6-1.713,12.427-3.015-1.586-5.515-6.207-4.551-8.086S401.4,203.706,403.752,204.093Z" transform="translate(-397.159 -195.671)" fill="#263238"/>
                  <path id="Trazado_101410" data-name="Trazado 101410" d="M399.074,218.513a5.264,5.264,0,0,0,2.987,2.695c1.743.6,2.723-.933,2.333-2.636-.353-1.534-1.69-3.7-3.482-3.559A2.347,2.347,0,0,0,399.074,218.513Z" transform="translate(-397.31 -196.756)" fill="#ebb376"/>
                  <g id="Grupo_54411" data-name="Grupo 54411" transform="translate(12.004 22.357)">
                    <path id="Trazado_101411" data-name="Trazado 101411" d="M413.5,221.2a3.854,3.854,0,0,1-2.976-1.253.237.237,0,0,1,.372-.295,3.617,3.617,0,0,0,3.654.956.237.237,0,1,1,.1.463A5.437,5.437,0,0,1,413.5,221.2Z" transform="translate(-410.47 -219.565)" fill="#263238"/>
                  </g>
                  <path id="Trazado_101412" data-name="Trazado 101412" d="M415.193,201.368c-.518,1.015-1.241,2.421-4.559,3.029s-6.429-.707-7.435.258-1.989,3.978-1.989,3.978l-3.7-.693a4.93,4.93,0,0,1,.968-5.232c4.655-5.236,14.051-1.523,15.6-7.96C414.079,194.748,416.5,198.8,415.193,201.368Z" transform="translate(-397.146 -194.748)" fill="#263238"/>
                </g>
                <path id="Trazado_101413" data-name="Trazado 101413" d="M409.677,199.08s3.117-1.5,3.089-3.524a2.419,2.419,0,0,1,.05,3.05A2.59,2.59,0,0,1,409.677,199.08Z" transform="translate(-398.388 -194.828)" fill="#263238"/>
                <g id="Grupo_54413" data-name="Grupo 54413" transform="translate(15.519 0.408)">
                  <path id="Trazado_101414" data-name="Trazado 101414" d="M414.467,203.939l-.095-.2a8.561,8.561,0,0,0,3.814-4.668,4.215,4.215,0,0,0-.873-3.728l.178-.138a4.429,4.429,0,0,1,.914,3.919A8.681,8.681,0,0,1,414.467,203.939Z" transform="translate(-414.372 -195.201)" fill="#263238"/>
                </g>
              </g>
            </g>
          </g>
          <g id="Grupo_54417" data-name="Grupo 54417">
            <rect id="Rectángulo_5441" data-name="Rectángulo 5441" width="7.207" height="7.207" transform="translate(127.689 202.306)" fill="#407bff"/>
            <rect id="Rectángulo_5442" data-name="Rectángulo 5442" width="7.207" height="7.207" transform="translate(0 202.306)" fill="#407bff"/>
            <rect id="Rectángulo_5443" data-name="Rectángulo 5443" width="7.207" height="7.207" transform="translate(63.844 202.306)" fill="#407bff"/>
            <rect id="Rectángulo_5444" data-name="Rectángulo 5444" width="7.207" height="7.207" transform="translate(127.689)" fill="#407bff"/>
            <rect id="Rectángulo_5445" data-name="Rectángulo 5445" width="7.207" height="7.207" fill="#407bff"/>
            <rect id="Rectángulo_5446" data-name="Rectángulo 5446" width="7.207" height="7.207" transform="translate(127.689 101.153)" fill="#407bff"/>
            <rect id="Rectángulo_5447" data-name="Rectángulo 5447" width="7.207" height="7.207" transform="translate(0 101.153)" fill="#407bff"/>
            <rect id="Rectángulo_5448" data-name="Rectángulo 5448" width="7.207" height="7.207" transform="translate(63.844)" fill="#407bff"/>
          </g>
          <g id="Grupo_54418" data-name="Grupo 54418" opacity="0.2">
            <rect id="Rectángulo_5449" data-name="Rectángulo 5449" width="7.207" height="7.207" transform="translate(127.689 202.306)" fill="#fff"/>
            <rect id="Rectángulo_5450" data-name="Rectángulo 5450" width="7.207" height="7.207" transform="translate(0 202.306)" fill="#fff"/>
            <rect id="Rectángulo_5451" data-name="Rectángulo 5451" width="7.207" height="7.207" transform="translate(63.844 202.306)" fill="#fff"/>
            <rect id="Rectángulo_5452" data-name="Rectángulo 5452" width="7.207" height="7.207" transform="translate(127.689)" fill="#fff"/>
            <rect id="Rectángulo_5453" data-name="Rectángulo 5453" width="7.207" height="7.207" fill="#fff"/>
            <rect id="Rectángulo_5454" data-name="Rectángulo 5454" width="7.207" height="7.207" transform="translate(127.689 101.153)" fill="#fff"/>
            <rect id="Rectángulo_5455" data-name="Rectángulo 5455" width="7.207" height="7.207" transform="translate(0 101.153)" fill="#fff"/>
            <rect id="Rectángulo_5456" data-name="Rectángulo 5456" width="7.207" height="7.207" transform="translate(63.844)" fill="#fff"/>
          </g>
        </g>
      </g>
      <g id="Character_2" data-name="Character 2" transform="translate(180.528 184.499)">
        <g id="Grupo_54425" data-name="Grupo 54425">
          <path id="Trazado_101415" data-name="Trazado 101415" d="M289.2,298.225s-3.731-4.025-4.712-4.392-5.532-.077-5.532-.077c-15.171-8.337-12.331-18.887-10.98-22.141l1.883.24,1.986-11.912c4.994-9.505,8.386-19.444,5.522-23.588a14.57,14.57,0,0,0-5.731-4.341l-.005-.044c-3.192-1.759-3.278-4.1-2.4-6.4.1-.251.2-.5.314-.743.079-.171.164-.342.251-.513l.032-.062a7.654,7.654,0,0,0,9.143-3.638c.086-.156.169-.32.247-.487a19.829,19.829,0,0,0,1.989-7.342.265.265,0,0,0,.167.156.3.3,0,0,0,.114,0h0a.261.261,0,0,0,.205-.306,2.63,2.63,0,0,0-.33-.874c.6-1.745.7-3.448.05-4.3a3.035,3.035,0,0,0-.685-.677,4.366,4.366,0,0,0,2.109-.611c2.1-.841,4.537-2.619,3.766-5.912l-1.285,1.337a13.232,13.232,0,0,0,.016-2.444,4.691,4.691,0,0,1-3.132,1.865,2.609,2.609,0,0,0,.506-2.269c-.806,1.823-4.175,1.913-4.269,1.914-3.318-.8-7.049-2.345-10.6-.784a4.939,4.939,0,0,0-3.046,4.077c-1.033,1.019-1.178,3.7-.51,6.138a2.469,2.469,0,0,0-1.809,2.5,5.269,5.269,0,0,0,1.592,3.695,2.505,2.505,0,0,0,.231.195c-.457,4.24-1.756,10.42-4.886,12.1l.044.09c-3.925-.432-7.55-.213-9.839.806l-.011-.005s-7.123-.408-23.883,18.029c0,0,.2.436.557,1.123-4.4,5.066-15.941,20.09-15.616,38.123-.266.492-2.5,3.8-2.352,5.117s5.006,7.791,5.442,7.867,1.85-1.129,1.85-1.129,2.24-5.5,2.15-6.625-2.453-5.458-2.453-5.458l0-.261c.062-1.914,1.051-14.521,16.056-30.62a8.276,8.276,0,0,0,1.169.861s4.214-2.474,8.6-5.195c-4.578,13.464-10.039,28.742-10.039,28.742-2.948,9.483,3.559,18.7,14.3,30.893a155.7,155.7,0,0,0,7.963,15.148,71.146,71.146,0,0,0-34.357,12.156l-5.143,1.091a11.879,11.879,0,0,0-.075,1.335L209,341.2l-.026-.354c-.017-.219-.244-.392-.549-.417l-6.753-.4a1.166,1.166,0,0,0-1.269.7.573.573,0,0,0-.012.175c.2,2.095.492,3.608.682,6.241.117,1.622.232,6.532.394,8.772s3.3,2.306,3.518,1.369c.965-4.2,2.489-7.425,4.057-8.862a1.111,1.111,0,0,0,.414-.93l-.047-.643,5.305-.744c.114.291.235.582.376.871l5-.968s17.422.552,32.223-6.408c-5.345,8.613-11.483,21-12.519,33.743l-1.715,4.584a10.364,10.364,0,0,0,.9.633l-1.568,5.624h-.355c-.219,0-.408.215-.456.517l-1.547,6.705a1.168,1.168,0,0,0,.609,1.318.546.546,0,0,0,.174.023c2.1-.048,3.633-.23,6.274-.23,1.626,0,6.532.24,8.777.24s2.539-3.123,1.62-3.411c-4.123-1.264-7.226-3.017-8.547-4.685a1.112,1.112,0,0,0-.882-.477l.977-3.783c.235.021.475.033.717.033l2.281-4.412s25.714-37.063,28.359-47.146c1.434-5.468-5.2-19.02-11.581-30.281-2.346-9.49-5.394-17.34-7.15-17.378-.277-.006-.621-.015-1.011-.029a11.07,11.07,0,0,0,1.185-.357,13.234,13.234,0,0,0,1.286-1.079c.349,10.445,13.877,15.791,17.8,17.119a8.38,8.38,0,0,1,1.4.859c.308.414,2.207,3.578,3.368,3.971s8.486-1.15,8.721-1.485S289.2,298.225,289.2,298.225Z" transform="translate(-200.387 -198.749)" fill="#fff"/>
          <g id="Grupo_54424" data-name="Grupo 54424" opacity="0.6">
            <path id="Trazado_101416" data-name="Trazado 101416" d="M282.987,302.207l3.689,1.8s4.551-.289,5.532.078,4.711,4.392,4.711,4.392.459,1.657.224,1.992-7.559,1.878-8.721,1.485-3.06-3.557-3.368-3.971-6.784-3.626-6.784-3.626Z" transform="translate(-208.105 -209.002)" fill="#ebb376"/>
            <path id="Trazado_101417" data-name="Trazado 101417" d="M216.247,290.89l-.078,4.439s2.364,4.329,2.453,5.458-2.15,6.625-2.15,6.625-1.414,1.205-1.85,1.129-5.3-6.549-5.442-7.867,2.086-4.625,2.353-5.117,1.628-7.982,1.628-7.982Z" transform="translate(-201.257 -207.552)" fill="#ebb376"/>
            <path id="Trazado_101418" data-name="Trazado 101418" d="M229.085,252.081s-17.7,17.688-17.294,39.959l4.636-.228s-.265-14.236,17.644-32.541Z" transform="translate(-201.516 -204.034)" fill="#ebb376"/>
            <path id="Trazado_101419" data-name="Trazado 101419" d="M274.8,278.258s-7.665,13.166,10.5,23.15l-1.969,3.454s-23.352-6.623-18.11-22.348c.327-.982,6.874-6.547,6.874-6.547Z" transform="translate(-206.736 -206.401)" fill="#ebb376"/>
            <path id="Trazado_101420" data-name="Trazado 101420" d="M209.173,356.865l7.2-.787.512,5.433-7.519,1.054Z" transform="translate(-201.257 -214.34)" fill="#ebb376"/>
            <path id="Trazado_101421" data-name="Trazado 101421" d="M268.5,276.722l8.109,1.032,3.243-19.461Z" transform="translate(-207.137 -204.65)" fill="#407bff"/>
            <path id="Trazado_101422" data-name="Trazado 101422" d="M268.5,276.722l8.109,1.032,3.243-19.461Z" transform="translate(-207.137 -204.65)" fill="#fff" opacity="0.1"/>
            <path id="Trazado_101423" data-name="Trazado 101423" d="M209.453,363.029l-.481-6.646c-.017-.219-.245-.392-.549-.417l-6.753-.4a1.166,1.166,0,0,0-1.269.7.573.573,0,0,0-.012.175c.2,2.095.491,3.608.682,6.241.117,1.623.232,6.532.394,8.772s3.3,2.306,3.518,1.369c.965-4.2,2.489-7.425,4.057-8.861A1.113,1.113,0,0,0,209.453,363.029Z" transform="translate(-200.387 -214.289)" fill="#263238"/>
            <path id="Trazado_101424" data-name="Trazado 101424" d="M241.317,404.335l2.078-7.456,5.047,1.848-1.583,6.136Z" transform="translate(-204.443 -218.384)" fill="#ebb376"/>
            <path id="Trazado_101425" data-name="Trazado 101425" d="M237.139,289.248s2.359,20.179,17.677,45.815a71.147,71.147,0,0,0-34.357,12.156l-5.143,1.091a14.878,14.878,0,0,0,1.242,7.632l5-.968s30.225.972,44.875-15.547c6.7-7.481-4.232-49.153-8.285-49.241S237.139,289.248,237.139,289.248Z" transform="translate(-201.858 -207.717)" fill="#407bff"/>
            <path id="Trazado_101426" data-name="Trazado 101426" d="M237.139,289.248s2.359,20.179,17.677,45.815a71.147,71.147,0,0,0-34.357,12.156l-5.143,1.091a14.878,14.878,0,0,0,1.242,7.632l5-.968s30.225.972,44.875-15.547c6.7-7.481-4.232-49.153-8.285-49.241S237.139,289.248,237.139,289.248Z" transform="translate(-201.858 -207.717)" opacity="0.5"/>
            <path id="Trazado_101427" data-name="Trazado 101427" d="M234.384,288.916c-4.174,13.429,10.6,26.321,29.518,47.882,0,0-18.922,22.13-20.814,45.4l-1.715,4.584a11.887,11.887,0,0,0,6.693,2.51l2.281-4.412s25.714-37.063,28.359-47.146-22.161-47.659-22.161-47.659S242.619,286.713,234.384,288.916Z" transform="translate(-203.685 -207.61)" fill="#407bff"/>
            <path id="Trazado_101428" data-name="Trazado 101428" d="M234.384,288.916c-4.174,13.429,10.6,26.321,29.518,47.882,0,0-18.922,22.13-20.814,45.4l-1.715,4.584a11.887,11.887,0,0,0,6.693,2.51l2.281-4.412s25.714-37.063,28.359-47.146-22.161-47.659-22.161-47.659S242.619,286.713,234.384,288.916Z" transform="translate(-203.685 -207.61)" opacity="0.3"/>
            <path id="Trazado_101429" data-name="Trazado 101429" d="M260.227,284.1s-8.358,3.312-25.765-.777c0,0,14.833-41.5,16.1-47.981,1.327-6.777,24.985-3.24,30.181,4.28C286.436,247.855,267.437,278.963,260.227,284.1Z" transform="translate(-203.763 -202.018)" fill="#407bff"/>
            <path id="Trazado_101430" data-name="Trazado 101430" d="M260.227,284.1s-8.358,3.312-25.765-.777c0,0,14.833-41.5,16.1-47.981,1.327-6.777,24.985-3.24,30.181,4.28C286.436,247.855,267.437,278.963,260.227,284.1Z" transform="translate(-203.763 -202.018)" fill="#fff" opacity="0.6"/>
            <path id="Trazado_101431" data-name="Trazado 101431" d="M252.39,232.86s-7.123-.408-23.883,18.029c0,0,3.12,6.82,6.807,9,0,0,15.42-9.05,17.933-11.565S260.247,236.337,252.39,232.86Z" transform="translate(-203.173 -202.129)" fill="#407bff"/>
            <path id="Trazado_101432" data-name="Trazado 101432" d="M252.39,232.86s-7.123-.408-23.883,18.029c0,0,3.12,6.82,6.807,9,0,0,15.42-9.05,17.933-11.565S260.247,236.337,252.39,232.86Z" transform="translate(-203.173 -202.129)" fill="#fff" opacity="0.4"/>
            <path id="Trazado_101433" data-name="Trazado 101433" d="M246.867,404.58h-6.006c-.219,0-.408.215-.456.517l-1.547,6.706a1.167,1.167,0,0,0,.609,1.317.547.547,0,0,0,.174.023c2.1-.048,3.633-.23,6.274-.23,1.626,0,6.532.24,8.777.24s2.539-3.123,1.62-3.411c-4.123-1.264-7.226-3.017-8.547-4.685A1.11,1.11,0,0,0,246.867,404.58Z" transform="translate(-204.197 -219.147)" fill="#263238"/>
            <g id="Grupo_54423" data-name="Grupo 54423" transform="translate(59.022)">
              <path id="Trazado_101434" data-name="Trazado 101434" d="M270.911,216.968c-.314,4.145-1.535,11.561-5.01,13.426a13.082,13.082,0,0,0,7.889,6.3c5.011,1.507,4.334-2.925,4.334-2.925-4.1-2.26-3.085-5.485-1.477-8.329Z" transform="translate(-265.901 -200.555)" fill="#ebb376"/>
              <path id="Trazado_101435" data-name="Trazado 101435" d="M273.978,220.8l3.394,5.018a13.3,13.3,0,0,0-.977,2.065c-1.609-.7-3.4-3.18-3.094-4.981A6.006,6.006,0,0,1,273.978,220.8Z" transform="translate(-266.631 -200.935)" opacity="0.2" style="isolation: isolate"/>
              <g id="Grupo_54421" data-name="Grupo 54421" transform="translate(3.064 0.405)">
                <path id="Trazado_101436" data-name="Trazado 101436" d="M284.853,208.17c-2.572.932-2.212,3.709,1.752,8.915,2.678-2.105,4.3-7.1,3.019-8.779S287.091,207.366,284.853,208.17Z" transform="translate(-270.681 -200)" fill="#263238"/>
                <path id="Trazado_101437" data-name="Trazado 101437" d="M273.275,209.481c-.826,3.987-1.546,6.732-1.1,9.282a8.653,8.653,0,0,0,.988,2.725c2.936,5.217,10.183,4.559,12.9-.417.086-.156.169-.32.246-.487,2.288-4.558,3.46-12.235-1.027-15.646a7.55,7.55,0,0,0-12.014,4.543Z" transform="translate(-269.573 -199.612)" fill="#ebb376"/>
                <path id="Trazado_101438" data-name="Trazado 101438" d="M281.8,214.1c-.118.434.018.849.3.924s.6-.211.722-.644-.013-.846-.294-.927S281.949,213.683,281.8,214.1Z" transform="translate(-270.537 -200.61)" fill="#263238"/>
                <path id="Trazado_101439" data-name="Trazado 101439" d="M287.279,215.6c-.117.434.019.85.3.925s.61-.207.73-.648-.018-.849-.3-.924S287.4,215.163,287.279,215.6Z" transform="translate(-271.079 -200.758)" fill="#263238"/>
                <path id="Trazado_101440" data-name="Trazado 101440" d="M285.312,215.411a16.059,16.059,0,0,0,1.068,4.277,2.6,2.6,0,0,1-2.182-.177Z" transform="translate(-270.778 -200.805)" fill="#d58745"/>
                <path id="Trazado_101441" data-name="Trazado 101441" d="M280.758,211.927a.259.259,0,0,1-.152-.079.267.267,0,0,1,.042-.372,2.612,2.612,0,0,1,2.363-.489.256.256,0,0,1,.169.319l-.006.017a.274.274,0,0,1-.336.163h0a2.084,2.084,0,0,0-1.86.405A.274.274,0,0,1,280.758,211.927Z" transform="translate(-270.416 -200.356)" fill="#263238"/>
                <path id="Trazado_101442" data-name="Trazado 101442" d="M290.117,214.251a.274.274,0,0,1-.194-.208A2.1,2.1,0,0,0,288.8,212.5a.266.266,0,0,1,.2-.493,2.638,2.638,0,0,1,1.441,1.939.261.261,0,0,1-.206.306h0A.3.3,0,0,1,290.117,214.251Z" transform="translate(-271.218 -200.466)" fill="#263238"/>
                <path id="Trazado_101443" data-name="Trazado 101443" d="M279.408,202.846c2.262,1.532-1.619,6.514-6.741,10.579-2.078-2.7-2.422-7.942-.762-9.249S277.432,201.511,279.408,202.846Z" transform="translate(-269.456 -199.505)" fill="#263238"/>
                <path id="Trazado_101444" data-name="Trazado 101444" d="M269.3,213.839a5.267,5.267,0,0,0,1.592,3.695c1.334,1.273,2.864.287,3.22-1.422.319-1.542.006-4.065-1.679-4.687A2.347,2.347,0,0,0,269.3,213.839Z" transform="translate(-269.302 -200.394)" fill="#ebb376"/>
                <g id="Grupo_54420" data-name="Grupo 54420" transform="translate(8.936 18.339)">
                  <path id="Trazado_101445" data-name="Trazado 101445" d="M282.56,222.6a.233.233,0,0,1-.05-.005,4.081,4.081,0,0,1-3.282-2.743.237.237,0,0,1,.46-.113,3.623,3.623,0,0,0,2.923,2.393.237.237,0,0,1-.05.468Z" transform="translate(-279.221 -219.555)" fill="#263238"/>
                </g>
                <path id="Trazado_101446" data-name="Trazado 101446" d="M290.67,205.679c-.895.706-2.137,1.682-5.406.85s-5.548-3.325-6.865-2.868-3.468,2.786-3.468,2.786l-3.073-2.173a4.929,4.929,0,0,1,3.062-4.35c6.415-2.817,13.405,4.477,17.5-.726C292.42,199.2,292.932,203.891,290.67,205.679Z" transform="translate(-269.555 -199.198)" fill="#263238"/>
              </g>
              <path id="Trazado_101447" data-name="Trazado 101447" d="M287.019,200.663s3.459-.066,4.277-1.914a2.42,2.42,0,0,1-1.227,2.793A2.59,2.59,0,0,1,287.019,200.663Z" transform="translate(-267.994 -198.749)" fill="#263238"/>
              <g id="Grupo_54422" data-name="Grupo 54422" transform="translate(20.913 1.486)">
                <path id="Trazado_101448" data-name="Trazado 101448" d="M289.114,207.078v-.225a8.567,8.567,0,0,0,5.413-2.65,4.218,4.218,0,0,0,.761-3.752l.219-.051a4.427,4.427,0,0,1-.8,3.943A8.679,8.679,0,0,1,289.114,207.078Z" transform="translate(-289.114 -200.399)" fill="#263238"/>
              </g>
            </g>
          </g>
        </g>
      </g>
      <g id="Character_1" data-name="Character 1" transform="translate(38.161 187.33)">
        <g id="Grupo_54436" data-name="Grupo 54436">
          <path id="Trazado_101449" data-name="Trazado 101449" d="M196.095,250.439c-.219-.346-1.923-.566-1.923-.566s-5.156,1.878-5.874,2.641-2.215,5.071-2.215,5.071h0l-1.73,1.514c-7.68,6.235-13.968,4.839-18.429,2l.435-1.237a28.09,28.09,0,0,1-8.958-15.146l-.009.016a5.04,5.04,0,0,0-.777-2c-1.432-2.073-4.452-4-8.1-5.563-.008-.092-.016-.151-.016-.151-3.191-1.76-3.277-4.1-2.4-6.4.1-.251.2-.5.314-.744q.12-.257.25-.511c.05-.1.1-.2.155-.294a7.625,7.625,0,0,0,8.741-4.978c.06-.168.116-.343.165-.521a19.819,19.819,0,0,0,.789-7.567.271.271,0,0,0,.19.128.319.319,0,0,0,.113-.017h0a.262.262,0,0,0,.154-.336,2.619,2.619,0,0,0-.466-.809c.314-1.82.139-3.515-.638-4.253a3.079,3.079,0,0,0-.767-.55,4.278,4.278,0,0,0,1.968-.95c1.937-1.166,4.057-3.311,2.769-6.436l-1.053,1.525a13.271,13.271,0,0,0-.377-2.416,4.688,4.688,0,0,1-2.793,2.342,2.609,2.609,0,0,0,.137-2.321c-.5,1.928-3.814,2.555-3.908,2.572-3.4-.26-7.334-1.186-10.594.923a4.942,4.942,0,0,0-2.355,4.512c-.857,1.171-.57,3.842.48,6.141a2.466,2.466,0,0,0-1.386,2.759,5.264,5.264,0,0,0,2.162,3.393,2.094,2.094,0,0,0,.886.366c-.55,4.15-1.879,9.514-4.762,11.061,0,0,.021.042.051.1-3.867-.574-7.383-.572-9.665.2-.067-.055-.126-.112-.2-.167,0,0-6.8-2.147-27.583,11.6,0,0,.086.472.264,1.224-5.514,3.828-20.392,15.555-24.511,33.114-.378.412-3.356,3.068-3.539,4.381s2.937,8.783,3.34,8.964,2.071-.64,2.071-.64,3.523-4.777,3.714-5.893-1.036-5.893-1.036-5.893l.068-.251c.529-1.834,4.585-13.814,23.093-25.732a8.3,8.3,0,0,0,.921,1.123s10.359-3.005,16.416-5.2c-4.333,12.972-10.424,30.095-11.551,33.258-1.614,2.508-2.173,6.925-.721,14.289-1.034,9.771-2.8,21.313-8.207,30.345,0,0-11.106-7.494-31.97-8.226l-4.8-2.146a12,12,0,0,0-.846,1.035l-4.165-2.387.187-.3a.541.541,0,0,0-.2-.66l-5.222-4.3a1.166,1.166,0,0,0-1.44-.18.556.556,0,0,0-.113.135c-1.071,1.81-1.726,3.205-3.123,5.446-.859,1.381-3.658,5.418-4.845,7.324s1.309,3.805,2.039,3.177c3.254-2.831,6.383-4.538,8.5-4.777a1.111,1.111,0,0,0,.881-.509l.341-.547,4.727,2.522c-.08.3-.153.608-.209.924l4.611,2.16s23.863,18.577,45.429,13.845c4.184-.9,9.6-10.79,14.2-22.04a192.7,192.7,0,0,0,21.573,15.37s-1.887,16.85,20.331,45.32l2.423,4.253a10.806,10.806,0,0,0,1.332-.373l2.53,3.942-.3.227a.542.542,0,0,0-.052.688l2.8,6.285a1.169,1.169,0,0,0,1.28.685.549.549,0,0,0,.152-.086c1.65-1.3,2.763-2.372,4.87-3.962,1.3-.979,5.359-3.743,7.151-5.1s.146-4.022-.76-3.7c-4.054,1.475-7.587,1.944-9.645,1.408a1.111,1.111,0,0,0-1.005.159l-.114.086-2.324-3.471c.1-.107.2-.213.3-.327L171.8,375.8s-12-43.485-18.053-51.972a259.3,259.3,0,0,0-21.93-31.667c.67-3.141.955-5.515.732-6.676a10.909,10.909,0,0,0,1.166-.352c3.12-4.138,11.578-14.2,17.519-23.753,3.661,6.443,10.644,11.236,10.644,11.236l.6-1.722c13.657,6.314,23.608-6.647,25.633-9.577a5.842,5.842,0,0,1,1-.7c.5-.123,4.154-.648,4.967-1.566S196.313,250.785,196.095,250.439Z" transform="translate(-42.359 -201.892)" fill="#fff"/>
          <g id="Grupo_54435" data-name="Grupo 54435" opacity="0.3">
            <g id="Grupo_54426" data-name="Grupo 54426" transform="translate(0 81.534)">
              <path id="Trazado_101450" data-name="Trazado 101450" d="M58.057,329l6.288,3.6-2.784,4.693-6.7-3.574Z" transform="translate(-43.598 -296.022)" fill="#ebb376"/>
              <path id="Trazado_101451" data-name="Trazado 101451" d="M54.09,334.117l3.523-5.655a.541.541,0,0,0-.2-.66l-5.222-4.3a1.166,1.166,0,0,0-1.44-.18.556.556,0,0,0-.113.135c-1.071,1.81-1.726,3.205-3.123,5.446-.859,1.381-3.658,5.418-4.845,7.324s1.309,3.805,2.039,3.177c3.254-2.831,6.383-4.537,8.5-4.777A1.111,1.111,0,0,0,54.09,334.117Z" transform="translate(-42.359 -295.442)" fill="#263238"/>
              <path id="Trazado_101452" data-name="Trazado 101452" d="M110.561,294.63c-1.5,10.449-1.5,29.4-9.53,42.81,0,0-11.106-7.494-31.97-8.226l-4.8-2.146a14.878,14.878,0,0,0-3.487,6.9l4.611,2.16s23.863,18.577,45.429,13.845c9.821-2.1,26.452-53.765,23.229-56.222S116.429,292.527,110.561,294.63Z" transform="translate(-44.184 -292.394)" fill="#407bff"/>
              <path id="Trazado_101453" data-name="Trazado 101453" d="M110.561,294.63c-1.5,10.449-1.5,29.4-9.53,42.81,0,0-11.106-7.494-31.97-8.226l-4.8-2.146a14.878,14.878,0,0,0-3.487,6.9l4.611,2.16s23.863,18.577,45.429,13.845c9.821-2.1,26.452-53.765,23.229-56.222S116.429,292.527,110.561,294.63Z" transform="translate(-44.184 -292.394)" opacity="0.5"/>
            </g>
            <g id="Grupo_54427" data-name="Grupo 54427" transform="translate(64.213 79.038)">
              <path id="Trazado_101454" data-name="Trazado 101454" d="M185.77,407.929l-4.18-6.514,4.738-2.537,3.525,5.266Z" transform="translate(-120.369 -300.451)" fill="#ebb376"/>
              <path id="Trazado_101455" data-name="Trazado 101455" d="M190.011,403.955l-4.795,3.618a.539.539,0,0,0-.052.687l2.8,6.285a1.169,1.169,0,0,0,1.28.685.549.549,0,0,0,.152-.086c1.65-1.3,2.763-2.372,4.87-3.962,1.3-.979,5.359-3.743,7.151-5.1s.146-4.022-.761-3.7c-4.053,1.474-7.586,1.943-9.643,1.407A1.112,1.112,0,0,0,190.011,403.955Z" transform="translate(-120.714 -300.796)" fill="#263238"/>
              <path id="Trazado_101456" data-name="Trazado 101456" d="M160.811,332.521c6.051,8.487,18.053,51.972,18.053,51.972l1.927,4.577a11.886,11.886,0,0,1-6.213,3.533l-2.423-4.253c-22.219-28.469-20.332-45.32-20.332-45.32-28.477-17.85-35.862-29.19-37.161-35.293-6.22-29.214,17.819-14.315,17.819-14.315S146.433,308.12,160.811,332.521Z" transform="translate(-113.635 -289.624)" fill="#407bff"/>
              <path id="Trazado_101457" data-name="Trazado 101457" d="M160.811,332.521c6.051,8.487,18.053,51.972,18.053,51.972l1.927,4.577a11.886,11.886,0,0,1-6.213,3.533l-2.423-4.253c-22.219-28.469-20.332-45.32-20.332-45.32-28.477-17.85-35.862-29.19-37.161-35.293-6.22-29.214,17.819-14.315,17.819-14.315S146.433,308.12,160.811,332.521Z" transform="translate(-113.635 -289.624)" opacity="0.3"/>
            </g>
            <g id="Grupo_54429" data-name="Grupo 54429" transform="translate(107.59 42.827)">
              <g id="Grupo_54428" data-name="Grupo 54428" transform="translate(11.085 5.154)">
                <path id="Trazado_101458" data-name="Trazado 101458" d="M198.462,265.565l3.09-2.7s1.5-4.309,2.215-5.071,5.874-2.641,5.874-2.641,1.705.22,1.923.566-1.2,7.7-2.011,8.614-4.465,1.442-4.967,1.566-5.971,4.849-5.971,4.849Z" transform="translate(-176.503 -255.151)" fill="#ebb376"/>
                <path id="Trazado_101459" data-name="Trazado 101459" d="M199.137,263.711c-9.555,8.969-17.114,6.057-21.9,2.28-.76,2.809-2.765,7.411-3.149,10.3,16.118,8.923,27.469-9.423,27.469-9.423Z" transform="translate(-174.088 -255.999)" fill="#ebb376"/>
              </g>
              <path id="Trazado_101460" data-name="Trazado 101460" d="M169.234,249.43a28.09,28.09,0,0,0,8.958,15.146l-4.479,12.75s-9.014-6.184-11.929-13.948Z" transform="translate(-161.784 -249.43)" fill="#407bff"/>
              <path id="Trazado_101461" data-name="Trazado 101461" d="M169.234,249.43a28.09,28.09,0,0,0,8.958,15.146l-4.479,12.75s-9.014-6.184-11.929-13.948Z" transform="translate(-161.784 -249.43)" fill="#fff" opacity="0.1"/>
            </g>
            <path id="Trazado_101462" data-name="Trazado 101462" d="M140.93,288.591s-8.358,3.312-25.765-.777c0,0,14.833-41.5,16.1-47.981,1.327-6.777,27.365-1.159,32.562,6.361C169.519,254.426,146.552,281.135,140.93,288.591Z" transform="translate(-49.574 -205.35)" fill="#407bff"/>
            <path id="Trazado_101463" data-name="Trazado 101463" d="M140.93,288.591s-8.358,3.312-25.765-.777c0,0,14.833-41.5,16.1-47.981,1.327-6.777,27.365-1.159,32.562,6.361C169.519,254.426,146.552,281.135,140.93,288.591Z" transform="translate(-49.574 -205.35)" fill="#fff" opacity="0.6"/>
            <g id="Grupo_54430" data-name="Grupo 54430" transform="translate(28.733 31.767)">
              <path id="Trazado_101464" data-name="Trazado 101464" d="M83.517,284.111l-1.168,4.284s1.227,4.777,1.036,5.893-3.714,5.893-3.714,5.893S78,301,77.6,300.82s-3.523-7.65-3.34-8.964,3.159-3.969,3.539-4.381,3.541-7.336,3.541-7.336Z" transform="translate(-74.252 -241.413)" fill="#ebb376"/>
              <path id="Trazado_101465" data-name="Trazado 101465" d="M104.777,250.011s-21.5,12.794-26.588,34.478l4.55.92s3.244-13.865,25.1-27.2Z" transform="translate(-74.643 -238.427)" fill="#ebb376"/>
              <path id="Trazado_101466" data-name="Trazado 101466" d="M132.686,237.275s-6.8-2.147-27.583,11.6c0,0,1.347,7.377,4.385,10.4,0,0,17.172-4.982,20.227-6.8S139.446,242.577,132.686,237.275Z" transform="translate(-77.31 -237.153)" fill="#407bff"/>
              <path id="Trazado_101467" data-name="Trazado 101467" d="M132.686,237.275s-6.8-2.147-27.583,11.6c0,0,1.347,7.377,4.385,10.4,0,0,17.172-4.982,20.227-6.8S139.446,242.577,132.686,237.275Z" transform="translate(-77.31 -237.153)" fill="#fff" opacity="0.4"/>
            </g>
            <g id="Grupo_54434" data-name="Grupo 54434" transform="translate(93.918)">
              <path id="Trazado_101468" data-name="Trazado 101468" d="M151.619,222.231c-.314,4.144-1.536,11.56-5.011,13.426a13.079,13.079,0,0,0,7.889,6.3c5.012,1.507,4.334-2.924,4.334-2.924-4.1-2.26-3.084-5.486-1.477-8.33Z" transform="translate(-146.608 -203.908)" fill="#ebb376"/>
              <path id="Trazado_101469" data-name="Trazado 101469" d="M154.686,226.067l3.393,5.018a13.466,13.466,0,0,0-.977,2.065c-1.608-.7-3.4-3.179-3.093-4.981A6,6,0,0,1,154.686,226.067Z" transform="translate(-147.338 -204.288)" opacity="0.2" style="isolation: isolate"/>
              <g id="Grupo_54432" data-name="Grupo 54432" transform="translate(1.672)">
                <path id="Trazado_101470" data-name="Trazado 101470" d="M162.958,212.237c-2.389,1.332-1.589,4.015,3.157,8.52,2.306-2.506,3.107-7.693,1.575-9.149S165.04,211.085,162.958,212.237Z" transform="translate(-149.771 -202.781)" fill="#263238"/>
                <path id="Trazado_101471" data-name="Trazado 101471" d="M151.911,215.3c-.178,4.068-.448,6.893.4,9.338a8.652,8.652,0,0,0,1.412,2.532c3.733,4.681,10.781,2.871,12.668-2.475.06-.168.116-.343.166-.521,1.529-4.866,1.458-12.632-3.518-15.28a7.551,7.551,0,0,0-11.132,6.406Z" transform="translate(-148.787 -202.496)" fill="#ebb376"/>
                <path id="Trazado_101472" data-name="Trazado 101472" d="M160.864,218.653c-.047.448.154.835.446.864s.563-.3.609-.751-.148-.833-.438-.868S160.941,218.216,160.864,218.653Z" transform="translate(-149.692 -203.478)" fill="#263238"/>
                <path id="Trazado_101473" data-name="Trazado 101473" d="M166.508,219.252c-.047.448.154.835.446.865s.569-.3.618-.756-.155-.835-.447-.864S166.555,218.8,166.508,219.252Z" transform="translate(-150.252 -203.537)" fill="#263238"/>
                <path id="Trazado_101474" data-name="Trazado 101474" d="M164.594,219.376a16.064,16.064,0,0,0,1.737,4.051,2.6,2.6,0,0,1-2.182.173Z" transform="translate(-150.018 -203.625)" fill="#d58745"/>
                <path id="Trazado_101475" data-name="Trazado 101475" d="M159.482,216.65a.255.255,0,0,1-.163-.053.268.268,0,0,1-.018-.375,2.611,2.611,0,0,1,2.254-.86.255.255,0,0,1,.218.286l0,.019a.274.274,0,0,1-.305.214h0a2.082,2.082,0,0,0-1.771.7A.274.274,0,0,1,159.482,216.65Z" transform="translate(-149.531 -203.225)" fill="#263238"/>
                <path id="Trazado_101476" data-name="Trazado 101476" d="M169.083,217.477a.273.273,0,0,1-.224-.175,2.1,2.1,0,0,0-1.355-1.344.266.266,0,0,1,.117-.518,2.638,2.638,0,0,1,1.732,1.683.262.262,0,0,1-.154.336h0A.319.319,0,0,1,169.083,217.477Z" transform="translate(-150.331 -203.234)" fill="#263238"/>
                <path id="Trazado_101477" data-name="Trazado 101477" d="M156.762,207.816c2.477,1.15-.556,6.689-4.961,11.522-2.484-2.332-3.662-7.453-2.232-9.007S154.6,206.815,156.762,207.816Z" transform="translate(-148.512 -202.452)" fill="#263238"/>
                <path id="Trazado_101478" data-name="Trazado 101478" d="M148.506,220.361a5.264,5.264,0,0,0,2.162,3.393c1.521,1.043,2.873-.174,2.95-1.918.068-1.573-.644-4.013-2.407-4.359A2.347,2.347,0,0,0,148.506,220.361Z" transform="translate(-148.464 -203.432)" fill="#ebb376"/>
                <g id="Grupo_54431" data-name="Grupo 54431" transform="translate(9.681 20.292)">
                  <path id="Trazado_101479" data-name="Trazado 101479" d="M162.919,226.927h-.013a4.078,4.078,0,0,1-3.678-2.184.236.236,0,0,1,.126-.309.239.239,0,0,1,.311.124,3.618,3.618,0,0,0,3.268,1.895.237.237,0,0,1-.014.474Z" transform="translate(-159.209 -224.416)" fill="#263238"/>
                </g>
                <path id="Trazado_101480" data-name="Trazado 101480" d="M168.338,208.569c-.769.841-1.841,2-5.2,1.7s-6.008-2.395-7.235-1.732-2.977,3.3-2.977,3.3l-3.381-1.654a4.928,4.928,0,0,1,2.326-4.784c5.881-3.807,13.949,2.275,17.158-3.517C169.028,201.892,170.284,206.442,168.338,208.569Z" transform="translate(-148.567 -201.892)" fill="#263238"/>
              </g>
              <path id="Trazado_101481" data-name="Trazado 101481" d="M163.879,204.49s3.405-.619,3.917-2.574a2.42,2.42,0,0,1-.765,2.953A2.591,2.591,0,0,1,163.879,204.49Z" transform="translate(-148.32 -201.894)" fill="#263238"/>
              <g id="Grupo_54433" data-name="Grupo 54433" transform="translate(18.387 0.848)">
                <path id="Trazado_101482" data-name="Trazado 101482" d="M167.054,210.45l-.036-.223a8.564,8.564,0,0,0,4.919-3.484,4.21,4.21,0,0,0,.151-3.825l.209-.086a4.429,4.429,0,0,1-.164,4.021A8.68,8.68,0,0,1,167.054,210.45Z" transform="translate(-167.018 -202.833)" fill="#263238"/>
              </g>
            </g>
          </g>
        </g>
      </g>
      <g id="Animation_Timeline" data-name="Animation Timeline" transform="translate(64.911 79.203)">
        <g id="Grupo_54461" data-name="Grupo 54461">
          <g id="Grupo_54437" data-name="Grupo 54437" transform="translate(0 9.485)">
            <rect id="Rectángulo_5457" data-name="Rectángulo 5457" width="320.628" height="12.972" fill="#407bff"/>
            <rect id="Rectángulo_5458" data-name="Rectángulo 5458" width="320.628" height="12.972" transform="translate(0 25.945)" fill="#407bff"/>
          </g>
          <g id="Grupo_54438" data-name="Grupo 54438" transform="translate(0 9.485)" opacity="0.85">
            <rect id="Rectángulo_5459" data-name="Rectángulo 5459" width="320.628" height="12.972" fill="#fff"/>
            <rect id="Rectángulo_5460" data-name="Rectángulo 5460" width="320.628" height="12.972" transform="translate(0 25.945)" fill="#fff"/>
          </g>
          <g id="Grupo_54439" data-name="Grupo 54439" transform="translate(271.627)">
            <path id="Trazado_101483" data-name="Trazado 101483" d="M382.851,81.871H374.5c-.8,0-1.232,1.295-.716,2.14l4.205,6.9a.788.788,0,0,0,1.437-.007l4.149-6.9C384.08,83.157,383.646,81.871,382.851,81.871Z" transform="translate(-373.557 -81.871)" fill="#407bff"/>
            <path id="Trazado_101484" data-name="Trazado 101484" d="M382.851,81.871H374.5c-.8,0-1.232,1.295-.716,2.14l4.205,6.9a.788.788,0,0,0,1.437-.007l4.149-6.9C384.08,83.157,383.646,81.871,382.851,81.871Z" transform="translate(-373.557 -81.871)" fill="#fff" opacity="0.2"/>
          </g>
          <g id="Grupo_54440" data-name="Grupo 54440" transform="translate(231.45 9.03)">
            <path id="Trazado_101485" data-name="Trazado 101485" d="M328.961,91.9a.788.788,0,0,0,1.437-.007" transform="translate(-328.961 -91.894)" fill="#407bff"/>
            <path id="Trazado_101486" data-name="Trazado 101486" d="M328.961,91.9a.788.788,0,0,0,1.437-.007" transform="translate(-328.961 -91.894)" fill="#fff" opacity="0.2"/>
          </g>
          <g id="Grupo_54441" data-name="Grupo 54441" transform="translate(276.293 9.497)">
            <rect id="Rectángulo_5461" data-name="Rectángulo 5461" width="0.901" height="51.877" fill="#263238"/>
          </g>
          <g id="Grupo_54442" data-name="Grupo 54442" transform="translate(272.274 43.933)">
            <rect id="Rectángulo_5462" data-name="Rectángulo 5462" width="6.32" height="6.32" rx="1.516" transform="translate(0 4.469) rotate(-44.999)" fill="#407bff"/>
            <path id="Trazado_101487" data-name="Trazado 101487" d="M378.757,139.473a1.8,1.8,0,0,1-1.283-.532l-2.539-2.539a1.817,1.817,0,0,1,0-2.568l2.539-2.539a1.817,1.817,0,0,1,2.568,0l2.538,2.539a1.817,1.817,0,0,1,0,2.568l-2.538,2.539A1.8,1.8,0,0,1,378.757,139.473Zm0-7.807a.912.912,0,0,0-.647.268l-2.539,2.538a.916.916,0,0,0,0,1.294l2.539,2.539a.936.936,0,0,0,1.294,0l2.538-2.539a.916.916,0,0,0,0-1.294l-2.538-2.538A.912.912,0,0,0,378.758,131.666Z" transform="translate(-374.288 -130.649)" fill="#407bff"/>
          </g>
          <g id="Grupo_54443" data-name="Grupo 54443" transform="translate(0 21.557)">
            <rect id="Rectángulo_5463" data-name="Rectángulo 5463" width="73.319" height="1.802" fill="#407bff"/>
          </g>
          <g id="Grupo_54444" data-name="Grupo 54444" transform="translate(0 21.557)" opacity="0.4">
            <rect id="Rectángulo_5464" data-name="Rectángulo 5464" width="73.319" height="1.802"/>
          </g>
          <g id="Grupo_54445" data-name="Grupo 54445" transform="translate(0 34.535)">
            <rect id="Rectángulo_5465" data-name="Rectángulo 5465" width="173.479" height="1.802" fill="#407bff"/>
          </g>
          <g id="Grupo_54446" data-name="Grupo 54446" transform="translate(0 34.535)" opacity="0.4">
            <rect id="Rectángulo_5466" data-name="Rectángulo 5466" width="173.479" height="1.802"/>
          </g>
          <g id="Grupo_54447" data-name="Grupo 54447" transform="translate(0 47.501)">
            <rect id="Rectángulo_5467" data-name="Rectángulo 5467" width="272.866" height="1.802" fill="#407bff"/>
          </g>
          <g id="Grupo_54448" data-name="Grupo 54448" transform="translate(0 47.501)" opacity="0.4">
            <rect id="Rectángulo_5468" data-name="Rectángulo 5468" width="272.866" height="1.802"/>
          </g>
          <g id="Grupo_54452" data-name="Grupo 54452" transform="translate(176.532 9.497)">
            <g id="Grupo_54449" data-name="Grupo 54449" transform="translate(0)">
              <rect id="Rectángulo_5469" data-name="Rectángulo 5469" width="0.901" height="1.802" fill="#263238"/>
            </g>
            <g id="Grupo_54450" data-name="Grupo 54450" transform="translate(0 5.535)">
              <path id="Trazado_101488" data-name="Trazado 101488" d="M268.9,132.157H268v-3.734h.9Zm0-7.467H268v-3.733h.9Zm0-7.467H268V113.49h.9Zm0-7.467H268v-3.733h.9Zm0-7.467H268V98.557h.9Z" transform="translate(-268.002 -98.557)" fill="#263238"/>
            </g>
            <g id="Grupo_54451" data-name="Grupo 54451" transform="translate(0 42.868)">
              <rect id="Rectángulo_5470" data-name="Rectángulo 5470" width="0.901" height="1.802" fill="#263238"/>
            </g>
          </g>
          <g id="Grupo_54454" data-name="Grupo 54454" transform="translate(172.514 30.96)">
            <rect id="Rectángulo_5471" data-name="Rectángulo 5471" width="6.32" height="6.32" rx="1.516" transform="translate(0 4.469) rotate(-45)" fill="#fff"/>
            <g id="Grupo_54453" data-name="Grupo 54453" transform="translate(0.116 0.116)">
              <path id="Trazado_101489" data-name="Trazado 101489" d="M268.023,125.072a1.809,1.809,0,0,1-1.284-.531L264.2,122a1.819,1.819,0,0,1,0-2.568l2.539-2.539a1.817,1.817,0,0,1,2.568,0l2.539,2.539a1.817,1.817,0,0,1,0,2.568l-2.539,2.539A1.809,1.809,0,0,1,268.023,125.072Zm0-7.806a.912.912,0,0,0-.647.268l-2.539,2.539a.916.916,0,0,0,0,1.294l2.539,2.539a.917.917,0,0,0,1.294,0l2.539-2.539a.916.916,0,0,0,0-1.294l-2.539-2.539A.912.912,0,0,0,268.023,117.266Z" transform="translate(-263.67 -116.366)" fill="#407bff"/>
            </g>
          </g>
          <g id="Grupo_54458" data-name="Grupo 54458" transform="translate(76.772 9.497)">
            <g id="Grupo_54455" data-name="Grupo 54455" transform="translate(0)">
              <rect id="Rectángulo_5472" data-name="Rectángulo 5472" width="0.901" height="1.802" fill="#263238"/>
            </g>
            <g id="Grupo_54456" data-name="Grupo 54456" transform="translate(0 5.515)">
              <path id="Trazado_101490" data-name="Trazado 101490" d="M158.169,139.382h-.9v-3.714h.9Zm0-7.427h-.9v-3.713h.9Zm0-7.426h-.9v-3.714h.9Zm0-7.427h-.9v-3.714h.9Zm0-7.427h-.9v-3.713h.9Zm0-7.426h-.9V98.535h.9Z" transform="translate(-157.268 -98.535)" fill="#263238"/>
            </g>
            <g id="Grupo_54457" data-name="Grupo 54457" transform="translate(0 50.075)">
              <rect id="Rectángulo_5473" data-name="Rectángulo 5473" width="0.901" height="1.802" fill="#263238"/>
            </g>
          </g>
          <g id="Grupo_54460" data-name="Grupo 54460" transform="translate(72.753 17.988)">
            <rect id="Rectángulo_5474" data-name="Rectángulo 5474" width="6.32" height="6.32" rx="1.516" transform="translate(0 4.469) rotate(-45.001)" fill="#fff"/>
            <g id="Grupo_54459" data-name="Grupo 54459" transform="translate(0.116 0.132)">
              <path id="Trazado_101491" data-name="Trazado 101491" d="M157.289,110.675a1.806,1.806,0,0,1-1.284-.531l-2.539-2.539a1.819,1.819,0,0,1,0-2.568l2.539-2.539a1.859,1.859,0,0,1,2.568,0l2.539,2.539a1.819,1.819,0,0,1,0,2.568l-2.539,2.539A1.813,1.813,0,0,1,157.289,110.675Zm0-7.807a.909.909,0,0,0-.647.268l-2.539,2.539a.916.916,0,0,0,0,1.294l2.539,2.538a.916.916,0,0,0,1.294,0l2.539-2.538a.916.916,0,0,0,0-1.294l-2.539-2.539A.909.909,0,0,0,157.289,102.868Z" transform="translate(-152.936 -101.985)" fill="#407bff"/>
            </g>
          </g>
        </g>
      </g>
      <g id="Cursor" transform="translate(345.611 133.074)">
        <g id="Grupo_54462" data-name="Grupo 54462" transform="translate(0 0)">
          <path id="Trazado_101492" data-name="Trazado 101492" d="M400.894,149.969l-16.765-7.8.618,18.481,3.584-4.665,4.234,6.4,6.866-4.541-4.234-6.4Z" transform="translate(-383.678 -141.717)" fill="#fff"/>
          <path id="Trazado_101493" data-name="Trazado 101493" d="M392.516,162.786a.45.45,0,0,1-.376-.2l-3.886-5.876-3.2,4.165a.451.451,0,0,1-.807-.259l-.618-18.481a.45.45,0,0,1,.641-.423l16.765,7.8a.45.45,0,0,1-.077.844l-5.085,1.315,3.886,5.875a.45.45,0,0,1-.127.624l-6.866,4.541A.451.451,0,0,1,392.516,162.786Zm-4.235-7.3h.016a.446.446,0,0,1,.359.2l3.987,6.026,6.114-4.044-3.986-6.026a.45.45,0,0,1,.263-.685l4.48-1.159-14.961-6.962.551,16.493,2.819-3.669A.45.45,0,0,1,388.281,155.482Z" transform="translate(-383.629 -141.667)" fill="#263238"/>
        </g>
      </g>
    </g>
  </g>
</svg>
