<svg xmlns="http://www.w3.org/2000/svg" xmlns:xlink="http://www.w3.org/1999/xlink" width="216" height="189.658" viewBox="0 0 216 189.658">
  <defs>
    <clipPath id="clip-path">
      <rect id="Rectángulo_5481" data-name="Rectángulo 5481" width="216" height="189.659" transform="translate(1235.37 1514.896)" fill="#fff" stroke="#707070" stroke-width="1"/>
    </clipPath>
  </defs>
  <g id="Enmascarar_grupo_67" data-name="Enmascarar grupo 67" transform="translate(-1235.37 -1514.896)" clip-path="url(#clip-path)">
    <g id="adjuntar" transform="translate(1246.635 1514.896)">
      <path id="Trazado_101640" data-name="Trazado 101640" d="M22.677,167.386V37.9A17.953,17.953,0,0,1,40.63,19.951H167.492A17.951,17.951,0,0,0,149.587,3.237H31.028A28.876,28.876,0,0,0,2.152,32.113V150.672A17.953,17.953,0,0,0,20.1,168.625h2.619c-.028-.41-.047-.822-.047-1.238Z" transform="translate(1.627 0.541)" fill="#abb0b7"/>
      <g id="Grupo_54486" data-name="Grupo 54486" transform="translate(24.304 20.493)">
        <path id="Trazado_101641" data-name="Trazado 101641" d="M106.924,102.661a18.1,18.1,0,0,1-1.9,2.246A18.044,18.044,0,0,0,106.924,102.661Z" transform="translate(55.105 55.223)" fill="#e5eaed"/>
        <path id="Trazado_101642" data-name="Trazado 101642" d="M23.26,106.97a17.882,17.882,0,0,1-1.753-.358A17.8,17.8,0,0,0,23.26,106.97Z" transform="translate(-8.042 58.21)" fill="#e5eaed"/>
        <path id="Trazado_101643" data-name="Trazado 101643" d="M108.407,96.711h0a17.92,17.92,0,0,1-.9,5.621A17.92,17.92,0,0,0,108.407,96.711Z" transform="translate(56.98 50.724)" fill="#e5eaed"/>
        <path id="Trazado_101644" data-name="Trazado 101644" d="M22.585,106.976a17.813,17.813,0,0,1-2.5-.846A17.813,17.813,0,0,0,22.585,106.976Z" transform="translate(-9.119 57.846)" fill="#e5eaed"/>
        <path id="Trazado_101645" data-name="Trazado 101645" d="M17.778,105.084a18.037,18.037,0,0,1-2.192-2.657A17.994,17.994,0,0,0,17.778,105.084Z" transform="translate(-12.52 55.046)" fill="#e5eaed"/>
        <path id="Trazado_101646" data-name="Trazado 101646" d="M21.7,107.059a17.936,17.936,0,0,1-3.753-2.156A17.911,17.911,0,0,0,21.7,107.059Z" transform="translate(-10.735 56.918)" fill="#e5eaed"/>
        <path id="Trazado_101647" data-name="Trazado 101647" d="M104.893,105.022a17.939,17.939,0,0,1-2.666,1.588A17.972,17.972,0,0,0,104.893,105.022Z" transform="translate(52.99 57.008)" fill="#e5eaed"/>
        <path id="Trazado_101648" data-name="Trazado 101648" d="M24.853,106.974h0a18.2,18.2,0,0,1-1.836-.093A18.191,18.191,0,0,0,24.853,106.974Z" transform="translate(-6.9 58.414)" fill="#e5eaed"/>
        <path id="Trazado_101649" data-name="Trazado 101649" d="M107.584,100.507q-.31.775-.689,1.513Q107.273,101.283,107.584,100.507Z" transform="translate(56.519 53.594)" fill="#e5eaed"/>
        <path id="Trazado_101650" data-name="Trazado 101650" d="M102.255,106.182c-.464.189-.936.363-1.419.513C101.318,106.545,101.79,106.371,102.255,106.182Z" transform="translate(51.938 57.886)" fill="#e5eaed"/>
        <path id="Trazado_101651" data-name="Trazado 101651" d="M161.275,12.755H31.792A17.953,17.953,0,0,0,13.84,30.707v108.4L57.715,64.719a10.9,10.9,0,0,1,18.962.324l30.588,56.166a11.872,11.872,0,0,0,18.006,3.459l16.993-14.1a10.9,10.9,0,0,1,14.325.354l22.637,20.75V30.707A17.953,17.953,0,0,0,161.275,12.755Zm-28.193,62.3a15.7,15.7,0,1,1,15.7-15.7A15.7,15.7,0,0,1,133.081,75.051Z" transform="translate(-13.84 -12.755)" fill="#e5eaed"/>
        <path id="Trazado_101652" data-name="Trazado 101652" d="M13.84,96.711h0c0,.417.019.829.047,1.238a17.852,17.852,0,0,0,3.019,8.8A17.869,17.869,0,0,1,13.84,96.711Z" transform="translate(-13.84 50.724)" fill="#e5eaed"/>
      </g>
      <path id="Trazado_101653" data-name="Trazado 101653" d="M156.59,90.861a10.9,10.9,0,0,0-14.325-.354l-16.993,14.1a11.872,11.872,0,0,1-18.006-3.459L76.677,44.978a10.9,10.9,0,0,0-18.962-.324L13.84,119.048v21.078a17.928,17.928,0,0,0,15.219,17.746q.446.068.9.114a18.186,18.186,0,0,0,1.836.093H161.275q.465,0,.924-.023a18,18,0,0,0,2.694-.341q.876-.179,1.72-.442c.483-.15.954-.324,1.419-.513.347-.141.69-.289,1.026-.45a18.046,18.046,0,0,0,8.2-8q.379-.738.689-1.513.206-.515.382-1.046a17.931,17.931,0,0,0,.9-5.621V111.612Z" transform="translate(10.464 27.802)" fill="#ddffa7"/>
      <circle id="Elipse_4076" data-name="Elipse 4076" cx="15.696" cy="15.696" r="15.696" transform="translate(127.85 51.398)" fill="#ffc935"/>
      <path id="Trazado_101654" data-name="Trazado 101654" d="M90.126,67.15A19.474,19.474,0,1,0,70.652,47.676,19.5,19.5,0,0,0,90.126,67.15Zm0-31.391A11.917,11.917,0,1,1,78.209,47.676,11.93,11.93,0,0,1,90.126,35.759Z" transform="translate(53.419 19.417)" fill="#12263f"/>
      <path id="Trazado_101655" data-name="Trazado 101655" d="M84.945,98.088a3.73,3.73,0,0,0-.348-.654,3.672,3.672,0,0,0-1.043-1.043,3.73,3.73,0,0,0-.654-.348,3.549,3.549,0,0,0-.707-.215,3.721,3.721,0,0,0-1.474,0,3.549,3.549,0,0,0-.707.215,3.73,3.73,0,0,0-.654.348,3.673,3.673,0,0,0-1.043,1.043,3.731,3.731,0,0,0-.348.654,3.549,3.549,0,0,0-.215.707,3.63,3.63,0,0,0,0,1.474,3.549,3.549,0,0,0,.215.707,3.73,3.73,0,0,0,.348.654,3.616,3.616,0,0,0,.469.574c.087.087.178.169.273.247a3.522,3.522,0,0,0,.3.221,3.729,3.729,0,0,0,.654.348,3.549,3.549,0,0,0,.707.215,3.63,3.63,0,0,0,1.474,0,3.549,3.549,0,0,0,.707-.215,3.729,3.729,0,0,0,.654-.348,3.6,3.6,0,0,0,.3-.221q.143-.117.273-.247a3.617,3.617,0,0,0,.469-.574,3.73,3.73,0,0,0,.348-.654,3.824,3.824,0,0,0,.219-.707,3.817,3.817,0,0,0,0-1.474A3.828,3.828,0,0,0,84.945,98.088Z" transform="translate(58.733 70.494)"/>
      <path id="Trazado_101656" data-name="Trazado 101656" d="M44.105,15.827a4,4,0,0,0,.344.654,4.063,4.063,0,0,0,.472.574,3.617,3.617,0,0,0,.574.469,3.834,3.834,0,0,0,.65.348,3.944,3.944,0,0,0,.71.215,3.63,3.63,0,0,0,1.474,0,3.816,3.816,0,0,0,.707-.215,3.729,3.729,0,0,0,.654-.348,3.617,3.617,0,0,0,.574-.469,3.794,3.794,0,0,0,.469-.574,4.019,4.019,0,0,0,.348-.654,3.55,3.55,0,0,0,.215-.707,3.649,3.649,0,0,0,0-1.477,3.549,3.549,0,0,0-.215-.707,4.019,4.019,0,0,0-.348-.654,3.794,3.794,0,0,0-.469-.574,3.617,3.617,0,0,0-.574-.469,3.729,3.729,0,0,0-.654-.348,3.816,3.816,0,0,0-.707-.215,3.721,3.721,0,0,0-1.474,0,3.944,3.944,0,0,0-.71.215,3.834,3.834,0,0,0-.65.348,3.616,3.616,0,0,0-.574.469,4.063,4.063,0,0,0-.472.574,4,4,0,0,0-.344.654,3.549,3.549,0,0,0-.215.707,3.649,3.649,0,0,0,0,1.477A3.549,3.549,0,0,0,44.105,15.827Z" transform="translate(33.128 6.111)" fill="#12263f"/>
      <path id="Trazado_101657" data-name="Trazado 101657" d="M172.358,17.815a21.765,21.765,0,0,0-21.144-16.73H32.655A32.691,32.691,0,0,0,0,33.739V152.3a21.753,21.753,0,0,0,21.112,21.715,21.765,21.765,0,0,0,21.144,16.73H171.739a21.756,21.756,0,0,0,21.731-21.731V39.531A21.753,21.753,0,0,0,172.358,17.815Zm13.555,151.2a14.19,14.19,0,0,1-14.174,14.174H42.257a14.182,14.182,0,0,1-14.174-14.174V148.966L71.434,75.461a7.122,7.122,0,0,1,12.389.212l18.665,34.274,27.132,49.82a3.779,3.779,0,0,0,6.637-3.615l-8.8-16.167a15.586,15.586,0,0,0,10.7-3.585l16.993-14.1a7.149,7.149,0,0,1,9.359.232l.887.813,7.557,6.928,12.967,11.887Zm0-37.1-12.967-11.887-7.557-5.755a14.745,14.745,0,0,0-15.072,2.218l-16.993,14.1a8.093,8.093,0,0,1-12.275-2.358l-11.923-21.892-6.657-12.225h0L90.46,72.059a14.679,14.679,0,0,0-25.536-.436L28.082,134.09V39.531A14.19,14.19,0,0,1,42.256,25.357H65.606a3.779,3.779,0,0,0,0-7.557H42.256A21.756,21.756,0,0,0,20.525,39.531V166.418A14.19,14.19,0,0,1,7.557,152.3V33.739a25.125,25.125,0,0,1,25.1-25.1H151.214A14.2,14.2,0,0,1,164.467,17.8H95.835a3.779,3.779,0,1,0,0,7.557h69.552l7.557.055a14.19,14.19,0,0,1,12.968,14.119Z" transform="translate(0 -1.085)" fill="#12263f"/>
    </g>
  </g>
</svg>
