<svg xmlns="http://www.w3.org/2000/svg" xmlns:xlink="http://www.w3.org/1999/xlink" width="216" height="189" viewBox="0 0 216 189">
  <defs>
    <clipPath id="clip-path">
      <rect id="Rectángulo_5476" data-name="Rectángulo 5476" width="216" height="189" transform="translate(1234.999 294.824)" fill="#fff" stroke="#707070" stroke-width="1"/>
    </clipPath>
  </defs>
  <g id="Enmascarar_grupo_60" data-name="Enmascarar grupo 60" transform="translate(-1234.999 -294.824)" clip-path="url(#clip-path)">
    <g id="agregar-archivo" transform="translate(1262.778 294.923)">
      <path id="Trazado_101507" data-name="Trazado 101507" d="M137.192,42.729V133.9a6.568,6.568,0,0,1-6.674,6.423H27V8.223A6.568,6.568,0,0,1,33.674,1.8h68.633l.252,36.237a4.723,4.723,0,0,0,4.723,4.691Zm0,0" transform="translate(20.225 1.347)" fill="#1384d2"/>
      <path id="Trazado_101508" data-name="Trazado 101508" d="M127.746,42.729V133.9a6.568,6.568,0,0,1-6.674,6.423H27V8.223A6.568,6.568,0,0,1,33.674,1.8h59.19l.251,36.237a4.723,4.723,0,0,0,4.723,4.691Zm0,0" transform="translate(20.225 1.347)" fill="#26a6fe"/>
      <path id="Trazado_101509" data-name="Trazado 101509" d="M104.94,39.611v3.117H75.031a4.723,4.723,0,0,1-4.723-4.691L70.056,1.8h2.2Zm0,0" transform="translate(52.477 1.348)" fill="#ddffa7"/>
      <path id="Trazado_101510" data-name="Trazado 101510" d="M89.954,92.006v15.742a4.722,4.722,0,0,1-4.723,4.723H58.469v26.76a4.722,4.722,0,0,1-4.721,4.723H38.006a4.722,4.722,0,0,1-4.723-4.723v-26.76H6.523A4.722,4.722,0,0,1,1.8,107.748V92.006a4.722,4.722,0,0,1,4.723-4.723h26.76V60.523A4.722,4.722,0,0,1,38.006,55.8H53.748a4.722,4.722,0,0,1,4.721,4.723v26.76H85.231A4.722,4.722,0,0,1,89.954,92.006Zm0,0" transform="translate(1.349 41.798)" fill="#e51d24"/>
      <path id="Trazado_101511" data-name="Trazado 101511" d="M80.508,92.006v15.742a4.722,4.722,0,0,1-4.723,4.723H49.025v26.76a4.722,4.722,0,0,1-4.723,4.723h-6.3a4.722,4.722,0,0,1-4.723-4.723v-26.76H6.523A4.722,4.722,0,0,1,1.8,107.748V92.006a4.722,4.722,0,0,1,4.723-4.723h26.76V60.523A4.722,4.722,0,0,1,38.006,55.8h6.3a4.722,4.722,0,0,1,4.723,4.723v26.76h26.76a4.722,4.722,0,0,1,4.723,4.723Zm0,0" transform="translate(1.349 41.798)" fill="#ff4b52"/>
      <path id="Trazado_101512" data-name="Trazado 101512" d="M131.865,138.527H85.018a3.148,3.148,0,1,0,0,6.3h46.847a9.705,9.705,0,0,0,9.822-9.571V40.96a3.15,3.15,0,0,0-.764-2.062L108.243,1.089A3.145,3.145,0,0,0,105.859,0H35.022A9.7,9.7,0,0,0,25.2,9.571V85.005a3.148,3.148,0,0,0,6.3,0V9.571A3.411,3.411,0,0,1,35.022,6.3h65.5l.233,33.11a7.893,7.893,0,0,0,7.87,7.818h26.76v88.026a3.413,3.413,0,0,1-3.525,3.274ZM107.057,39.354l-.2-30.268,27.5,31.842H108.631a1.574,1.574,0,0,1-1.574-1.574Zm0,0" transform="translate(18.877 0)"/>
      <path id="Trazado_101513" data-name="Trazado 101513" d="M39.354,148.45H55.1a7.872,7.872,0,0,0,7.87-7.872V116.966H86.579a7.87,7.87,0,0,0,7.87-7.87V93.354a7.87,7.87,0,0,0-7.87-7.87H62.967V61.871A7.87,7.87,0,0,0,55.1,54H39.354a7.87,7.87,0,0,0-7.87,7.87V85.483H7.872A7.871,7.871,0,0,0,0,93.354V109.1a7.871,7.871,0,0,0,7.872,7.87H31.484v23.612A7.872,7.872,0,0,0,39.354,148.45ZM6.3,109.1V93.354A1.574,1.574,0,0,1,7.872,91.78h26.76a3.149,3.149,0,0,0,3.149-3.149V61.871A1.574,1.574,0,0,1,39.354,60.3H55.1a1.574,1.574,0,0,1,1.574,1.574v26.76a3.148,3.148,0,0,0,3.148,3.149H86.579a1.574,1.574,0,0,1,1.574,1.574V109.1a1.574,1.574,0,0,1-1.574,1.574H59.818a3.148,3.148,0,0,0-3.148,3.149v26.76a1.574,1.574,0,0,1-1.574,1.574H39.354a1.574,1.574,0,0,1-1.574-1.574v-26.76a3.149,3.149,0,0,0-3.149-3.149H7.872A1.574,1.574,0,0,1,6.3,109.1Zm0,0" transform="translate(0 40.45)"/>
    </g>
  </g>
</svg>
