<svg xmlns="http://www.w3.org/2000/svg" xmlns:xlink="http://www.w3.org/1999/xlink" width="216" height="216" viewBox="0 0 216 216">
  <defs>
    <clipPath id="clip-path">
      <rect id="Rectángulo_5259" data-name="Rectángulo 5259" width="216" height="216" transform="translate(265 4680)" fill="#fff" stroke="#707070" stroke-width="1"/>
    </clipPath>
  </defs>
  <g id="Enmascarar_grupo_46" data-name="Enmascarar grupo 46" transform="translate(-265 -4680)" clip-path="url(#clip-path)">
    <g id="agregar-archivo" transform="translate(281.201 4680)">
      <path id="Trazado_101198" data-name="Trazado 101198" d="M157.25,48.884V153.14a7.51,7.51,0,0,1-7.632,7.345H31.25V9.427a7.511,7.511,0,0,1,7.632-7.343h78.48l.288,41.436a5.4,5.4,0,0,0,5.4,5.364Zm0,0" transform="translate(22.75 1.516)" fill="#f57c00"/>
      <path id="Trazado_101199" data-name="Trazado 101199" d="M146.449,48.884V153.14a7.51,7.51,0,0,1-7.632,7.345H31.25V9.427a7.511,7.511,0,0,1,7.632-7.343h67.681l.287,41.436a5.4,5.4,0,0,0,5.4,5.364Zm0,0" transform="translate(22.75 1.516)" fill="#fec108"/>
      <path id="Trazado_101200" data-name="Trazado 101200" d="M120.971,45.319v3.565h-34.2a5.4,5.4,0,0,1-5.4-5.364L81.083,2.084H83.6Zm0,0" transform="translate(59.028 1.516)" fill="#fdd834"/>
      <path id="Trazado_101201" data-name="Trazado 101201" d="M102.884,105.983v18a5.4,5.4,0,0,1-5.4,5.4h-30.6v30.6a5.4,5.4,0,0,1-5.4,5.4h-18a5.4,5.4,0,0,1-5.4-5.4v-30.6H7.484a5.4,5.4,0,0,1-5.4-5.4v-18a5.4,5.4,0,0,1,5.4-5.4h30.6v-30.6a5.4,5.4,0,0,1,5.4-5.4h18a5.4,5.4,0,0,1,5.4,5.4v30.6h30.6A5.4,5.4,0,0,1,102.884,105.983Zm0,0" transform="translate(1.517 47.016)" fill="#b3ee56"/>
      <path id="Trazado_101202" data-name="Trazado 101202" d="M92.083,105.983v18a5.4,5.4,0,0,1-5.4,5.4h-30.6v30.6a5.4,5.4,0,0,1-5.4,5.4h-7.2a5.4,5.4,0,0,1-5.4-5.4v-30.6H7.484a5.4,5.4,0,0,1-5.4-5.4v-18a5.4,5.4,0,0,1,5.4-5.4h30.6v-30.6a5.4,5.4,0,0,1,5.4-5.4h7.2a5.4,5.4,0,0,1,5.4,5.4v30.6h30.6a5.4,5.4,0,0,1,5.4,5.4Zm0,0" transform="translate(1.517 47.016)" fill="#ddffa7"/>
      <path id="Trazado_101203" data-name="Trazado 101203" d="M151.135,158.4H97.566a3.6,3.6,0,1,0,0,7.2h53.568a11.1,11.1,0,0,0,11.231-10.944V46.836a3.6,3.6,0,0,0-.873-2.358L124.123,1.246A3.6,3.6,0,0,0,121.4,0h-81A11.1,11.1,0,0,0,29.167,10.944V97.2a3.6,3.6,0,0,0,7.2,0V10.944A3.9,3.9,0,0,1,40.4,7.2h74.9l.267,37.86a9.025,9.025,0,0,0,9,8.94h30.6V154.656a3.9,3.9,0,0,1-4.031,3.744ZM122.767,45l-.234-34.61L153.977,46.8H124.566a1.8,1.8,0,0,1-1.8-1.8Zm0,0" transform="translate(21.234 0)" fill="#12263f"/>
      <path id="Trazado_101204" data-name="Trazado 101204" d="M45,170.5H63a9,9,0,0,0,9-9v-27H99a9,9,0,0,0,9-9v-18a9,9,0,0,0-9-9H72v-27a9,9,0,0,0-9-9H45a9,9,0,0,0-9,9v27H9a9,9,0,0,0-9,9v18a9,9,0,0,0,9,9H36v27A9,9,0,0,0,45,170.5Zm-37.8-45v-18A1.8,1.8,0,0,1,9,105.7H39.6a3.6,3.6,0,0,0,3.6-3.6V71.5A1.8,1.8,0,0,1,45,69.7H63a1.8,1.8,0,0,1,1.8,1.8v30.6a3.6,3.6,0,0,0,3.6,3.6H99a1.8,1.8,0,0,1,1.8,1.8v18a1.8,1.8,0,0,1-1.8,1.8H68.4a3.6,3.6,0,0,0-3.6,3.6v30.6a1.8,1.8,0,0,1-1.8,1.8H45a1.8,1.8,0,0,1-1.8-1.8V130.9a3.6,3.6,0,0,0-3.6-3.6H9a1.8,1.8,0,0,1-1.8-1.8Zm0,0" transform="translate(0 45.5)" fill="#12263f"/>
    </g>
  </g>
</svg>
