<svg xmlns="http://www.w3.org/2000/svg" xmlns:xlink="http://www.w3.org/1999/xlink" width="216" height="189.658" viewBox="0 0 216 189.658">
  <defs>
    <clipPath id="clip-path">
      <rect id="Rectángulo_5479" data-name="Rectángulo 5479" width="216" height="189.659" transform="translate(1235.37 1112.896)" fill="#fff" stroke="#707070" stroke-width="1"/>
    </clipPath>
  </defs>
  <g id="Enmascarar_grupo_63" data-name="Enmascarar grupo 63" transform="translate(-1235.37 -1112.896)" clip-path="url(#clip-path)">
    <g id="pincel" transform="translate(1248.246 1112.895)">
      <path id="Trazado_101563" data-name="Trazado 101563" d="M21.125,71.878C-2.893,95.9,2.677,139.044,2.677,139.044S46.85,143.587,69.842,120.6A34.448,34.448,0,0,0,21.125,71.879Zm0,0" transform="translate(1.601 46.532)" fill="#cbe558"/>
      <path id="Trazado_101564" data-name="Trazado 101564" d="M67.094,71.878a34.446,34.446,0,0,0-48.717,0A58.1,58.1,0,0,0,5.752,91.521H16.819a24.036,24.036,0,0,1,20.823,12.03,24.033,24.033,0,0,0,20.823,12.03H71.238a34.452,34.452,0,0,0-4.144-43.7Zm0,0" transform="translate(4.349 46.532)" fill="#d29976"/>
      <path id="Trazado_101565" data-name="Trazado 101565" d="M85.513,70.182,57.55,98.143,32.935,73.529,60.9,45.567Zm0,0" transform="translate(24.902 34.267)" fill="#fff"/>
      <path id="Trazado_101566" data-name="Trazado 101566" d="M73.472,102.955l71.019-71.019A17.406,17.406,0,0,0,119.876,7.321L48.857,78.34Zm0,0" transform="translate(36.94 1.494)" fill="#8690a6"/>
      <path id="Trazado_101567" data-name="Trazado 101567" d="M184.059,6.293a21.121,21.121,0,0,0-29.87,0l-8.162,8.162a3.716,3.716,0,0,0,5.256,5.254l8.162-8.162A13.69,13.69,0,0,1,178.8,30.909L110.413,99.3l-19.36-19.36,39.19-39.19a3.716,3.716,0,1,0-5.256-5.256L83.17,77.312,55.208,105.273c-.087.089-.17.18-.247.273A38.164,38.164,0,0,0,20.1,115.889C9.68,126.306,3.009,141.794.806,160.674a114.574,114.574,0,0,0-.212,25.482,3.714,3.714,0,0,0,3.3,3.221c.263.028,3.886.388,9.517.388a132.475,132.475,0,0,0,16.284-1c19.036-2.378,34.379-8.915,44.371-18.905a38.158,38.158,0,0,0,10.464-34.269,3.843,3.843,0,0,0,.543-.447l98.981-98.981a21.121,21.121,0,0,0,0-29.87ZM73.55,158.5H62.814a20.223,20.223,0,0,1-7.806-1.557,3.716,3.716,0,0,0-2.855,6.861,27.616,27.616,0,0,0,10.661,2.128h4.605c-18.342,16.759-49.866,16.718-59.726,16.251-.469-6.815-.881-24.049,4.976-40.31h8.5a20.167,20.167,0,0,1,8.755,1.983,3.715,3.715,0,0,0,3.2-6.706,27.9,27.9,0,0,0-11.957-2.708H15.86a51.712,51.712,0,0,1,9.493-13.3A30.735,30.735,0,0,1,73.55,158.5Zm8.524-30.865a38.155,38.155,0,0,0-19.21-19.511L85.8,85.194l19.361,19.361Zm0,0" transform="translate(0 -0.106)" fill="#12263f"/>
      <path id="Trazado_101568" data-name="Trazado 101568" d="M87.93,75.687A3.715,3.715,0,0,0,84.214,79.4v5.356a3.716,3.716,0,0,0,7.432,0V79.4A3.715,3.715,0,0,0,87.93,75.687Zm0,0" transform="translate(63.674 57.041)" fill="#12263f"/>
      <path id="Trazado_101569" data-name="Trazado 101569" d="M87.93,89.563a3.716,3.716,0,0,0-3.716,3.716v5.357a3.716,3.716,0,0,0,7.432,0V93.279A3.716,3.716,0,0,0,87.93,89.563Zm0,0" transform="translate(63.674 67.533)" fill="#12263f"/>
      <path id="Trazado_101570" data-name="Trazado 101570" d="M98.7,84.151H93.344a3.715,3.715,0,1,0,0,7.43H98.7a3.715,3.715,0,1,0,0-7.43Zm0,0" transform="translate(67.767 63.44)" fill="#12263f"/>
      <path id="Trazado_101571" data-name="Trazado 101571" d="M84.822,84.151H79.466a3.715,3.715,0,1,0,0,7.43h5.356a3.715,3.715,0,1,0,0-7.43Zm0,0" transform="translate(57.275 63.44)" fill="#12263f"/>
      <path id="Trazado_101572" data-name="Trazado 101572" d="M23.607,24.151a3.716,3.716,0,0,0,3.716-3.716V15.08a3.716,3.716,0,0,0-7.432,0v5.356A3.715,3.715,0,0,0,23.607,24.151Zm0,0" transform="translate(15.04 8.406)" fill="#12263f"/>
      <path id="Trazado_101573" data-name="Trazado 101573" d="M23.607,38.028a3.716,3.716,0,0,0,3.716-3.716V28.956a3.716,3.716,0,0,0-7.432,0v5.356A3.715,3.715,0,0,0,23.607,38.028Zm0,0" transform="translate(15.04 18.899)" fill="#12263f"/>
      <path id="Trazado_101574" data-name="Trazado 101574" d="M29.021,27.258h5.356a3.715,3.715,0,1,0,0-7.43H29.021a3.715,3.715,0,1,0,0,7.43Zm0,0" transform="translate(19.133 14.806)" fill="#12263f"/>
      <path id="Trazado_101575" data-name="Trazado 101575" d="M15.143,27.258H20.5a3.715,3.715,0,1,0,0-7.43H15.143a3.715,3.715,0,1,0,0,7.43Zm0,0" transform="translate(8.64 14.806)" fill="#12263f"/>
      <path id="Trazado_101576" data-name="Trazado 101576" d="M80.275,21.082a3.717,3.717,0,1,0-2.627-1.089A3.744,3.744,0,0,0,80.275,21.082Zm0,0" transform="translate(57.886 10.136)" fill="#12263f"/>
      <path id="Trazado_101577" data-name="Trazado 101577" d="M25.511,83.454a3.719,3.719,0,1,0,2.626,1.089A3.745,3.745,0,0,0,25.511,83.454Zm0,0" transform="translate(16.479 62.913)" fill="#12263f"/>
    </g>
  </g>
</svg>
