<svg xmlns="http://www.w3.org/2000/svg" xmlns:xlink="http://www.w3.org/1999/xlink" width="216" height="189.658" viewBox="0 0 216 189.658">
  <defs>
    <clipPath id="clip-path">
      <rect id="Rect치ngulo_5482" data-name="Rect치ngulo 5482" width="216" height="189.659" transform="translate(229.37 1314.896)" fill="#fff" stroke="#707070" stroke-width="1"/>
    </clipPath>
  </defs>
  <g id="Enmascarar_grupo_66" data-name="Enmascarar grupo 66" transform="translate(-229.37 -1314.896)" clip-path="url(#clip-path)">
    <g id="guardar-el-archivo" transform="translate(242.54 1314.896)">
      <path id="Trazado_101627" data-name="Trazado 101627" d="M139.767,159.006a16.279,16.279,0,0,0,16.279-16.279V50.458a14.817,14.817,0,0,0-14.817-14.817H39.556L49.777,59.732h58.814a14.817,14.817,0,0,1,14.817,14.8l.079,68.209a16.28,16.28,0,0,0,16.279,16.264h0" transform="translate(29.908 26.948)" fill="#d8d8e4"/>
      <path id="Trazado_101628" data-name="Trazado 101628" d="M116.767,2.109H29.346a7.408,7.408,0,0,0-7.409,7.409V153.244a7.408,7.408,0,0,0,7.409,7.409h112.61a7.408,7.408,0,0,0,7.409-7.409V34.707Z" transform="translate(16.587 1.595)" fill="#fff"/>
      <rect id="Rect치ngulo_5484" data-name="Rect치ngulo 5484" width="80.012" height="23.707" transform="translate(62.061 23.707)" fill="#01549e"/>
      <path id="Trazado_101629" data-name="Trazado 101629" d="M108.535,34.707H86.124A10.187,10.187,0,0,1,75.938,24.52V2.109Z" transform="translate(57.416 1.595)" fill="#bfeffc"/>
      <g id="Grupo_54485" data-name="Grupo 54485" transform="translate(3.704 47.415)">
        <path id="Trazado_101630" data-name="Trazado 101630" d="M151.8,149.276V81.067a14.885,14.885,0,0,0-14.9-14.8H78.091L65.263,36.03A14.816,14.816,0,0,0,51.623,27H2.109V150.723A14.817,14.817,0,0,0,16.926,165.54H167.32v-.019A16.278,16.278,0,0,1,151.8,149.276Z" transform="translate(-2.109 -27)" fill="#fed55f"/>
        <path id="Trazado_101631" data-name="Trazado 101631" d="M151.8,149.276V81.067a14.885,14.885,0,0,0-14.9-14.8H78.091L65.263,36.03A14.816,14.816,0,0,0,51.623,27H2.109V150.723A14.817,14.817,0,0,0,16.926,165.54H167.32v-.019A16.278,16.278,0,0,1,151.8,149.276Z" transform="translate(-2.109 -27)" fill="#fed55f"/>
      </g>
      <path id="Trazado_101632" data-name="Trazado 101632" d="M103.483,62.438H27.422A10.125,10.125,0,0,0,17.3,72.563v33.091a10.125,10.125,0,0,0,10.125,10.125h76.06a10.125,10.125,0,0,0,10.125-10.125V72.563A10.125,10.125,0,0,0,103.483,62.438Z" transform="translate(13.078 47.209)" fill="#fff"/>
      <path id="Trazado_101633" data-name="Trazado 101633" d="M36.936,29.542a3.7,3.7,0,0,0,3.7-3.7V18.8H90.57a3.7,3.7,0,1,0,0-7.409H36.936a3.7,3.7,0,0,0-3.7,3.7V25.837A3.7,3.7,0,0,0,36.936,29.542Z" transform="translate(25.126 8.612)" fill="#12263f"/>
      <path id="Trazado_101634" data-name="Trazado 101634" d="M105.078,60.328H29.017a13.845,13.845,0,0,0-13.83,13.83v33.091a13.845,13.845,0,0,0,13.83,13.83h76.06a13.845,13.845,0,0,0,13.83-13.83V74.158A13.845,13.845,0,0,0,105.078,60.328Zm6.421,46.92a6.428,6.428,0,0,1-6.421,6.421H29.017a6.428,6.428,0,0,1-6.421-6.421V74.158a6.428,6.428,0,0,1,6.421-6.421h76.06a6.428,6.428,0,0,1,6.421,6.421v33.091Z" transform="translate(11.483 45.614)" fill="#12263f"/>
      <path id="Trazado_101635" data-name="Trazado 101635" d="M62.556,42.424H97.577a3.7,3.7,0,1,0,0-7.409H62.556a3.7,3.7,0,1,0,0,7.409Z" transform="translate(44.498 26.475)" fill="#12263f"/>
      <path id="Trazado_101636" data-name="Trazado 101636" d="M52.853,42.424a3.706,3.706,0,1,0-2.619-1.086A3.73,3.73,0,0,0,52.853,42.424Z" transform="translate(37.161 26.475)"/>
      <path id="Trazado_101637" data-name="Trazado 101637" d="M73.216,75.516h-32.6a3.7,3.7,0,0,0,0,7.409h32.6a3.7,3.7,0,0,0,0-7.409Z" transform="translate(27.911 57.097)" fill="#12263f"/>
      <path id="Trazado_101638" data-name="Trazado 101638" d="M31.871,75.516A3.706,3.706,0,1,0,34.489,76.6,3.723,3.723,0,0,0,31.871,75.516Z" transform="translate(21.297 57.097)" fill="#12263f"/>
      <path id="Trazado_101639" data-name="Trazado 101639" d="M171.137,58.884h-1.482V36.3h-.009a3.7,3.7,0,0,0-1.076-2.619l-32.6-32.6A3.7,3.7,0,0,0,133.35.009l0-.009H45.933A11.125,11.125,0,0,0,34.82,11.113v32.6H3.7a3.7,3.7,0,0,0-3.7,3.7V171.137a18.542,18.542,0,0,0,18.521,18.521H168.915c.077,0,.153,0,.229-.007.177,0,.353.007.532.007a20.006,20.006,0,0,0,19.983-19.983V77.406A18.542,18.542,0,0,0,171.137,58.884ZM143.54,32.6a6.49,6.49,0,0,1-6.482-6.482V12.647l19.95,19.95ZM42.229,11.113a3.708,3.708,0,0,1,3.7-3.7h83.716V26.115A13.91,13.91,0,0,0,138.37,39V43.71H78.531a3.7,3.7,0,1,0,0,7.409h63.544a3.7,3.7,0,0,0,3.7-3.7V40.006h16.468V154.838a3.708,3.708,0,0,1-3.7,3.7H157.1V101.478a18.586,18.586,0,0,0-18.6-18.5H82.138L70.268,55A18.49,18.49,0,0,0,53.218,43.71H42.229ZM18.521,182.25A11.125,11.125,0,0,1,7.409,171.137V51.119h45.81a11.094,11.094,0,0,1,10.23,6.772L76.276,88.126a3.7,3.7,0,0,0,3.41,2.258H138.5a11.167,11.167,0,0,1,11.192,11.1v68.213a19.89,19.89,0,0,0,4.465,12.556ZM182.25,169.676a12.575,12.575,0,0,1-25.149.015v-3.739h1.442a11.125,11.125,0,0,0,11.113-11.113V66.293h1.482A11.125,11.125,0,0,1,182.25,77.406Z" fill="#12263f"/>
    </g>
  </g>
</svg>
