<svg xmlns="http://www.w3.org/2000/svg" xmlns:xlink="http://www.w3.org/1999/xlink" width="216" height="216" viewBox="0 0 216 216">
  <defs>
    <clipPath id="clip-path">
      <rect id="Rectángulo_5268" data-name="Rectángulo 5268" width="216" height="216" transform="translate(265 5160)" fill="#fff" stroke="#707070" stroke-width="1"/>
    </clipPath>
  </defs>
  <g id="Enmascarar_grupo_49" data-name="Enmascarar grupo 49" transform="translate(-265 -5160)" clip-path="url(#clip-path)">
    <g id="capa" transform="translate(273.438 5160)">
      <path id="Trazado_101226" data-name="Trazado 101226" d="M7.324,115.384l95.344,45.58,95.344-45.58L102.668,69.8Z" transform="translate(-3.105 50.818)" fill="#898998"/>
      <path id="Trazado_101227" data-name="Trazado 101227" d="M7.324,92.936l95.344,45.58,95.344-45.58-95.344-45.58Z" transform="translate(-3.105 34.475)" fill="#ffc935"/>
      <path id="Trazado_101228" data-name="Trazado 101228" d="M7.324,70.536l95.344,45.58,95.344-45.58-95.344-45.58Z" transform="translate(-3.105 18.168)" fill="#e889c3"/>
      <path id="Trazado_101229" data-name="Trazado 101229" d="M7.324,48.021,102.668,93.6l95.344-45.58L102.668,2.442Z" transform="translate(-3.105 1.778)" fill="#ddffa7"/>
      <path id="Trazado_101230" data-name="Trazado 101230" d="M87.857,108.845a4.213,4.213,0,1,0,2.987,1.236A4.233,4.233,0,0,0,87.857,108.845Z" transform="translate(52.451 79.239)" fill="#12263f"/>
      <path id="Trazado_101231" data-name="Trazado 101231" d="M204.008,88.7a4.218,4.218,0,0,0-2.4-3.806l-32.73-15.647L201.609,53.6a4.219,4.219,0,0,0,0-7.612L106.265.413a4.218,4.218,0,0,0-3.639,0L71.561,15.264A4.219,4.219,0,1,0,75.2,22.876L104.446,8.9l85.562,40.9L104.446,90.7,18.883,49.8,43.361,38.1a4.219,4.219,0,0,0-3.639-7.612L7.282,45.993a4.219,4.219,0,0,0,0,7.612l32.73,15.647L7.282,84.9a4.219,4.219,0,0,0,0,7.612L39.8,108.058,7.282,123.6a4.219,4.219,0,0,0,0,7.613l32.609,15.589L7.282,162.4a4.219,4.219,0,0,0,0,7.612l95.344,45.58a4.218,4.218,0,0,0,3.639,0l22.807-10.9a4.219,4.219,0,0,0-3.639-7.613l-20.987,10.034L18.883,166.2l30.434-14.549c.115-.055.226-.117.334-.181L102.626,176.8a4.218,4.218,0,0,0,3.639,0l52.975-25.325c.108.064.218.125.334.181L190.008,166.2l-30.434,14.549a4.219,4.219,0,1,0,3.639,7.613l38.4-18.356a4.219,4.219,0,0,0,0-7.612L169,146.807l32.609-15.589a4.219,4.219,0,0,0,0-7.612l-32.521-15.547,32.521-15.547A4.22,4.22,0,0,0,204.008,88.7Zm-44.434,24.157,30.434,14.549-85.563,40.9-85.563-40.9,30.434-14.549c.086-.041.168-.089.25-.135l53.058,25.365a4.218,4.218,0,0,0,3.639,0l53.058-25.365C159.406,112.772,159.487,112.82,159.574,112.861Zm-55.128,16.747L18.883,88.7l30.46-14.562a4.319,4.319,0,0,0,.417-.231l52.866,25.273a4.218,4.218,0,0,0,3.639,0L159.13,73.912a4.232,4.232,0,0,0,.417.231L190.007,88.7Z" transform="translate(-4.883 0)" fill="#12263f"/>
      <path id="Trazado_101232" data-name="Trazado 101232" d="M37.6,21.194a4.22,4.22,0,1,0-2.983-1.236A4.251,4.251,0,0,0,37.6,21.194Z" transform="translate(15.861 9.287)" fill="#12263f"/>
    </g>
  </g>
</svg>
