<svg xmlns="http://www.w3.org/2000/svg" xmlns:xlink="http://www.w3.org/1999/xlink" width="216" height="216" viewBox="0 0 216 216">
  <defs>
    <clipPath id="clip-path">
      <rect id="Rectángulo_5279" data-name="Rectángulo 5279" width="216" height="216" transform="translate(265 5880)" fill="#fff" stroke="#707070" stroke-width="1"/>
    </clipPath>
  </defs>
  <g id="Enmascarar_grupo_52" data-name="Enmascarar grupo 52" transform="translate(-265 -5880)" clip-path="url(#clip-path)">
    <g id="mesa-de-trabajo" transform="translate(265 5880)">
      <g id="Grupo_54101" data-name="Grupo 54101" transform="translate(3.484 3.484)">
        <path id="Trazado_101260" data-name="Trazado 101260" d="M202.613,164.29H14.484A10.451,10.451,0,0,1,4.032,153.839V14.484A10.451,10.451,0,0,1,14.484,4.032H202.613a10.451,10.451,0,0,1,10.452,10.452V153.839A10.451,10.451,0,0,1,202.613,164.29Z" transform="translate(-4.032 -4.032)" fill="#8892a0"/>
      </g>
      <g id="Grupo_54102" data-name="Grupo 54102" transform="translate(17.419 17.419)">
        <path id="Trazado_101261" data-name="Trazado 101261" d="M12.1,12.1H193.258V130.548H12.1Z" transform="translate(-12.097 -12.097)" fill="#f9bd17"/>
      </g>
      <g id="Grupo_54103" data-name="Grupo 54103" transform="translate(17.419 17.419)">
        <path id="Trazado_101262" data-name="Trazado 101262" d="M12.1,12.1V116.491c1.738.049,3.473.122,5.226.122,74.036,0,136.9-43.705,159.742-104.516Z" transform="translate(-12.097 -12.097)" fill="#ffc935"/>
      </g>
      <g id="Grupo_54104" data-name="Grupo 54104" transform="translate(66.194 38.323)">
        <path id="Trazado_101263" data-name="Trazado 101263" d="M123.935,41.613v59.226H40.323V24.194h66.194Z" transform="translate(-40.323 -24.194)" fill="#a9e845"/>
      </g>
      <g id="Grupo_54105" data-name="Grupo 54105" transform="translate(66.194 38.323)">
        <path id="Trazado_101264" data-name="Trazado 101264" d="M40.323,89.575c35.891-4.79,64.149-30.4,68.939-62.637l-2.745-2.745H40.323Z" transform="translate(-40.323 -24.194)" fill="#ddffa7"/>
      </g>
      <g id="Grupo_54106" data-name="Grupo 54106" transform="translate(132.387 38.323)">
        <path id="Trazado_101265" data-name="Trazado 101265" d="M78.629,24.194V41.613H96.048Z" transform="translate(-78.629 -24.194)" fill="#8892a0"/>
      </g>
      <g id="Grupo_54107" data-name="Grupo 54107" transform="translate(31.355 31.355)">
        <path id="Trazado_101266" data-name="Trazado 101266" d="M20.161,20.161H34.1V34.1H20.161Z" transform="translate(-20.161 -20.161)" fill="#ddffa7"/>
      </g>
      <g id="Grupo_54108" data-name="Grupo 54108" transform="translate(31.355 108)">
        <path id="Trazado_101267" data-name="Trazado 101267" d="M20.161,64.516H34.1V78.452H20.161Z" transform="translate(-20.161 -64.516)" fill="#ddffa7"/>
      </g>
      <g id="Grupo_54109" data-name="Grupo 54109" transform="translate(170.71 31.355)">
        <path id="Trazado_101268" data-name="Trazado 101268" d="M100.806,20.161h13.935V34.1H100.806Z" transform="translate(-100.806 -20.161)" fill="#ddffa7"/>
      </g>
      <g id="Grupo_54110" data-name="Grupo 54110" transform="translate(170.71 108)">
        <path id="Trazado_101269" data-name="Trazado 101269" d="M100.806,64.516h13.935V78.452H100.806Z" transform="translate(-100.806 -64.516)" fill="#ddffa7"/>
      </g>
      <g id="Grupo_54111" data-name="Grupo 54111" transform="translate(62.71 191.613)">
        <path id="Trazado_101270" data-name="Trazado 101270" d="M128.887,133.806H38.306V123.355A10.451,10.451,0,0,1,48.758,112.9h69.677a10.451,10.451,0,0,1,10.452,10.452Z" transform="translate(-38.306 -112.903)" fill="#8892a0"/>
      </g>
      <g id="Grupo_54112" data-name="Grupo 54112" transform="translate(83.613 163.742)">
        <path id="Trazado_101271" data-name="Trazado 101271" d="M50.4,96.774H99.177v27.871H50.4Z" transform="translate(-50.403 -96.774)" fill="#8892a0"/>
      </g>
      <g id="Grupo_54113" data-name="Grupo 54113" transform="translate(62.71 27.871)">
        <path id="Trazado_101272" data-name="Trazado 101272" d="M38.306,18.145h6.968v97.548H38.306Z" transform="translate(-38.306 -18.145)" fill="#12263f"/>
      </g>
      <g id="Grupo_54114" data-name="Grupo 54114" transform="translate(55.742 111.484)">
        <path id="Trazado_101273" data-name="Trazado 101273" d="M34.274,66.532H138.79V73.5H34.274Z" transform="translate(-34.274 -66.532)" fill="#12263f"/>
      </g>
      <g id="Grupo_54115" data-name="Grupo 54115" transform="translate(55.742 34.839)">
        <path id="Trazado_101274" data-name="Trazado 101274" d="M131.823,112.758h-6.968V44.523L109.477,29.145h-75.2V22.177h76.645a3.475,3.475,0,0,1,2.463,1.021L130.8,40.618a3.469,3.469,0,0,1,1.021,2.463Z" transform="translate(-34.274 -22.177)" fill="#12263f"/>
      </g>
      <g id="Grupo_54116" data-name="Grupo 54116" transform="translate(128.903 38.323)">
        <path id="Trazado_101275" data-name="Trazado 101275" d="M97.516,45.1H80.1a3.483,3.483,0,0,1-3.484-3.484V24.194h6.968V38.129H97.516Z" transform="translate(-76.613 -24.194)" fill="#12263f"/>
      </g>
      <g id="Grupo_54117" data-name="Grupo 54117" transform="translate(76.645 87.097)">
        <path id="Trazado_101276" data-name="Trazado 101276" d="M63.79,69.839H49.855a3.483,3.483,0,0,1-3.484-3.484V52.419h6.968V62.871H63.79Z" transform="translate(-46.371 -52.419)" fill="#12263f"/>
      </g>
      <g id="Grupo_54118" data-name="Grupo 54118" transform="translate(76.645 48.774)">
        <path id="Trazado_101277" data-name="Trazado 101277" d="M53.339,47.661H46.371V33.726a3.483,3.483,0,0,1,3.484-3.484H63.79V37.21H53.339Z" transform="translate(-46.371 -30.242)" fill="#12263f"/>
      </g>
      <g id="Grupo_54119" data-name="Grupo 54119" transform="translate(121.935 87.097)">
        <path id="Trazado_101278" data-name="Trazado 101278" d="M86.516,69.839H72.581V62.871H83.032V52.419H90V66.355A3.483,3.483,0,0,1,86.516,69.839Z" transform="translate(-72.581 -52.419)" fill="#12263f"/>
      </g>
      <g id="Grupo_54120" data-name="Grupo 54120" transform="translate(27.871 27.871)">
        <path id="Trazado_101279" data-name="Trazado 101279" d="M35.565,39.048H21.629a3.483,3.483,0,0,1-3.484-3.484V21.629a3.483,3.483,0,0,1,3.484-3.484H35.565a3.483,3.483,0,0,1,3.484,3.484V35.565A3.483,3.483,0,0,1,35.565,39.048ZM25.113,32.081h6.968V25.113H25.113Z" transform="translate(-18.145 -18.145)" fill="#12263f"/>
      </g>
      <g id="Grupo_54121" data-name="Grupo 54121" transform="translate(27.871 104.516)">
        <path id="Trazado_101280" data-name="Trazado 101280" d="M35.565,83.4H21.629a3.483,3.483,0,0,1-3.484-3.484V65.984A3.483,3.483,0,0,1,21.629,62.5H35.565a3.483,3.483,0,0,1,3.484,3.484V79.919A3.483,3.483,0,0,1,35.565,83.4ZM25.113,76.435h6.968V69.468H25.113Z" transform="translate(-18.145 -62.5)" fill="#12263f"/>
      </g>
      <g id="Grupo_54122" data-name="Grupo 54122" transform="translate(34.839 45.29)">
        <path id="Trazado_101281" data-name="Trazado 101281" d="M22.177,28.226h6.968v62.71H22.177Z" transform="translate(-22.177 -28.226)" fill="#12263f"/>
      </g>
      <g id="Grupo_54123" data-name="Grupo 54123" transform="translate(167.226 27.871)">
        <path id="Trazado_101282" data-name="Trazado 101282" d="M116.21,39.048H102.274a3.483,3.483,0,0,1-3.484-3.484V21.629a3.483,3.483,0,0,1,3.484-3.484H116.21a3.483,3.483,0,0,1,3.484,3.484V35.565A3.483,3.483,0,0,1,116.21,39.048Zm-10.452-6.968h6.968V25.113h-6.968Z" transform="translate(-98.79 -18.145)" fill="#12263f"/>
      </g>
      <g id="Grupo_54124" data-name="Grupo 54124" transform="translate(167.226 104.516)">
        <path id="Trazado_101283" data-name="Trazado 101283" d="M116.21,83.4H102.274a3.483,3.483,0,0,1-3.484-3.484V65.984a3.483,3.483,0,0,1,3.484-3.484H116.21a3.483,3.483,0,0,1,3.484,3.484V79.919A3.483,3.483,0,0,1,116.21,83.4Zm-10.452-6.968h6.968V69.468h-6.968Z" transform="translate(-98.79 -62.5)" fill="#12263f"/>
      </g>
      <g id="Grupo_54125" data-name="Grupo 54125" transform="translate(174.194 45.29)">
        <path id="Trazado_101284" data-name="Trazado 101284" d="M102.823,28.226h6.968v62.71h-6.968Z" transform="translate(-102.823 -28.226)" fill="#12263f"/>
      </g>
      <g id="Grupo_54126" data-name="Grupo 54126" transform="translate(0 0)">
        <path id="Trazado_101285" data-name="Trazado 101285" d="M204.081,169.242H15.952A13.95,13.95,0,0,1,2.016,155.306V15.952A13.95,13.95,0,0,1,15.952,2.016H204.081a13.95,13.95,0,0,1,13.935,13.935V155.306A13.95,13.95,0,0,1,204.081,169.242ZM15.952,8.984a6.975,6.975,0,0,0-6.968,6.968V155.306a6.975,6.975,0,0,0,6.968,6.968H204.081a6.975,6.975,0,0,0,6.968-6.968V15.952a6.975,6.975,0,0,0-6.968-6.968Z" transform="translate(-2.016 -2.016)" fill="#12263f"/>
      </g>
      <g id="Grupo_54127" data-name="Grupo 54127" transform="translate(59.226 188.129)">
        <path id="Trazado_101286" data-name="Trazado 101286" d="M130.355,138.758H39.774a3.483,3.483,0,0,1-3.484-3.484V124.823a13.95,13.95,0,0,1,13.935-13.936H119.9a13.95,13.95,0,0,1,13.935,13.936v10.452A3.483,3.483,0,0,1,130.355,138.758Zm-87.1-6.968h83.613v-6.968a6.975,6.975,0,0,0-6.968-6.968H50.226a6.975,6.975,0,0,0-6.968,6.968Z" transform="translate(-36.29 -110.887)" fill="#12263f"/>
      </g>
      <g id="Grupo_54128" data-name="Grupo 54128" transform="translate(80.129 163.742)">
        <path id="Trazado_101287" data-name="Trazado 101287" d="M48.387,96.774h6.968v27.871H48.387Z" transform="translate(-48.387 -96.774)" fill="#12263f"/>
      </g>
      <g id="Grupo_54129" data-name="Grupo 54129" transform="translate(128.903 163.742)">
        <path id="Trazado_101288" data-name="Trazado 101288" d="M76.613,96.774h6.968v27.871H76.613Z" transform="translate(-76.613 -96.774)" fill="#12263f"/>
      </g>
      <g id="Grupo_54130" data-name="Grupo 54130" transform="translate(13.935 13.935)">
        <path id="Trazado_101289" data-name="Trazado 101289" d="M194.726,135.5H13.565a3.483,3.483,0,0,1-3.484-3.484V13.565a3.483,3.483,0,0,1,3.484-3.484H194.726a3.483,3.483,0,0,1,3.484,3.484V132.016A3.483,3.483,0,0,1,194.726,135.5ZM17.048,128.532H191.242V17.048H17.048Z" transform="translate(-10.081 -10.081)" fill="#12263f"/>
      </g>
      <g id="Grupo_54131" data-name="Grupo 54131" transform="translate(195.097 146.323)">
        <path id="Trazado_101290" data-name="Trazado 101290" d="M114.919,86.694h6.968v6.968h-6.968Z" transform="translate(-114.919 -86.694)" fill="#12263f"/>
      </g>
      <g id="Grupo_54132" data-name="Grupo 54132" transform="translate(181.161 146.323)">
        <path id="Trazado_101291" data-name="Trazado 101291" d="M106.855,86.694h6.968v6.968h-6.968Z" transform="translate(-106.855 -86.694)" fill="#12263f"/>
      </g>
    </g>
  </g>
</svg>
