<svg xmlns="http://www.w3.org/2000/svg" width="610" height="417" viewBox="0 0 610 417">
  <g id="Grupo_90757" data-name="Grupo 90757" transform="translate(-180 -396)">
    <rect id="Rectángulo_5151" data-name="Rectángulo 5151" width="610" height="150" transform="translate(180 663)" fill="#ff4b52"/>
    <g id="Grupo_53864" data-name="Grupo 53864" transform="translate(266.516 368.614)">
      <g id="Background_Simple" data-name="Background Simple" transform="translate(31.238 27.385)">
        <g id="Grupo_53810" data-name="Grupo 53810">
          <path id="Trazado_100614" data-name="Trazado 100614" d="M33.05,212.425s2.12,65.713,56.975,109.512,130.869,46.936,192.405,51.1,108.8-30.674,115.925-83.334-39.9-68.116-65.41-128.059S309.7,81.994,255.724,45.127,117.3,30.9,73.025,94.057,33.05,212.425,33.05,212.425Z" transform="translate(-32.937 -27.385)" fill="#ddffa7"/>
          <path id="Trazado_100615" data-name="Trazado 100615" d="M33.05,212.425s2.12,65.713,56.975,109.512,130.869,46.936,192.405,51.1,108.8-30.674,115.925-83.334-39.9-68.116-65.41-128.059S309.7,81.994,255.724,45.127,117.3,30.9,73.025,94.057,33.05,212.425,33.05,212.425Z" transform="translate(-32.937 -27.385)" fill="#fff" opacity="0.7"/>
        </g>
      </g>
      <g id="Plants" transform="translate(21.484 62.962)">
        <path id="Trazado_100616" data-name="Trazado 100616" d="M258.027,134.841s13.431,28.863,15.717,34.578-.857,12-4.858,16.288a27.758,27.758,0,0,1-7.715,6c-.857.572-10,14.574-13.431,25.148s-4.858,19.432-15.146,22.576-25.719-4.287-28.577-16.575,4-23.432,11.717-28.577,13.145-10,15.146-13.431,5.716-20,9.145-29.148S253.456,133.126,258.027,134.841Z" transform="translate(-48.458 -78.869)" fill="#8a8a8a"/>
        <g id="Grupo_53811" data-name="Grupo 53811" transform="translate(0 141.855)">
          <path id="Trazado_100617" data-name="Trazado 100617" d="M27.459,275.729c1.923-.278,5.572-2.656,5.575-2.657.037-.025-2.3-1.929-2.459-2.033-1.865-1.195-6.171-2.408-8.086-.83a2.936,2.936,0,0,0-.064,4.368C23.67,275.81,25.822,275.964,27.459,275.729Z" transform="translate(-21.484 -240.72)" fill="#263238"/>
          <path id="Trazado_100618" data-name="Trazado 100618" d="M68.58,254.126c.045,0-.852-2.877-.929-3.052-.9-2.026-3.82-5.413-6.286-5.154a2.936,2.936,0,0,0-2.463,3.609c.358,1.714,2.067,3.03,3.563,3.737C64.221,254.1,68.576,254.126,68.58,254.126Z" transform="translate(-27.023 -237.227)" fill="#263238"/>
          <path id="Trazado_100619" data-name="Trazado 100619" d="M71.409,287.08a2.581,2.581,0,0,0-1.438,3.561c.629,1.4,2.344,2.214,3.76,2.541a11.586,11.586,0,0,0,3.54-.089v-3.366C75.874,288.226,73.227,286.478,71.409,287.08Z" transform="translate(-28.638 -243.316)" fill="#263238"/>
          <path id="Trazado_100620" data-name="Trazado 100620" d="M71.047,304.875c-.451-.556-.924-1.131-1.427-1.73-.674-.8-1.409-1.651-2.172-2.513a27.958,27.958,0,0,0,1.938-2.664,7.934,7.934,0,0,0,1.661.3v-5.565a7.626,7.626,0,0,0-.927-.631,3.076,3.076,0,0,0-.306-.483,2.581,2.581,0,0,0-3.82-.4c-1.576,1.507-.965,5.391-.116,7.143.05.1.719,1.163,1.152,1.826-.314-.351-.615-.695-.942-1.052-.643-.709-1.3-1.4-2.014-2.145L63,295.916c-.351-.359-.769-.694-1.156-1.047-.914-.8-1.879-1.561-2.868-2.309a16.959,16.959,0,0,0,3.381-3.937c.585-1.331.959-3.19.209-4.534a2.581,2.581,0,0,0-3.715-.972c-1.786,1.25-1.771,5.182-1.2,7.043.036.116.6,1.4.92,2.107-.6-.445-1.193-.893-1.813-1.323-1.789-1.243-3.638-2.445-5.477-3.653-.564-.37-1.121-.744-1.68-1.118.223-.2,2.86-2.561,3.517-4.059.584-1.331.959-3.19.208-4.534a2.58,2.58,0,0,0-3.714-.973c-1.786,1.251-1.771,5.183-1.2,7.043.043.14.855,1.993,1.084,2.455-1.232-.824-2.451-1.655-3.62-2.523a45.572,45.572,0,0,1-4.513-3.791c.1-.092,2.868-2.546,3.541-4.08.584-1.331.959-3.19.208-4.534A2.581,2.581,0,0,0,41.4,270.2c-1.787,1.251-1.771,5.183-1.2,7.043.037.122.655,1.536.964,2.2l-.1.072a33.285,33.285,0,0,1-3.777-4.568c-.628-.89-1.179-1.777-1.695-2.65.561-.4,3.107-2.28,3.866-3.594.727-1.26,1.3-3.065.705-4.483a2.581,2.581,0,0,0-3.586-1.375c-1.913,1.047-2.329,4.957-1.963,6.87.02.1.339,1.138.583,1.888-.227-.4-.469-.8-.679-1.19-.792-1.446-1.427-2.82-1.981-4.04-.309-.7-.575-1.333-.817-1.93.344-.685,1.7-3.459,1.763-4.947.065-1.453-.256-3.322-1.441-4.3a2.579,2.579,0,0,0-3.815.433c-1.215,1.81.216,5.472,1.422,7,.1.132,1.972,2.01,1.99,1.974l.021-.041c.221.58.465,1.2.746,1.87.528,1.235,1.135,2.626,1.9,4.095a45.759,45.759,0,0,0,2.687,4.623,33.757,33.757,0,0,0,3.71,4.693c.017.017.036.032.052.049-.56-.307-2.155-1.112-2.284-1.161-1.825-.676-5.751-.91-7.1.8a2.58,2.58,0,0,0,.764,3.763c1.3.825,3.176.554,4.538.045,1.536-.575,4.052-3.088,4.252-3.288a45.764,45.764,0,0,0,4.576,4.024c.936.726,1.9,1.43,2.878,2.122-.493-.25-.936-.469-1-.494-1.826-.676-5.751-.91-7.1.8a2.579,2.579,0,0,0,.764,3.763c1.3.825,3.176.554,4.538.045a17.087,17.087,0,0,0,4.142-3.18c.377.261.751.527,1.129.788,1.816,1.249,3.632,2.488,5.378,3.758.615.447,1.2.91,1.8,1.371-.439-.221-.809-.4-.869-.427-1.825-.676-5.751-.91-7.1.8a2.58,2.58,0,0,0,.765,3.763c1.3.824,3.176.554,4.538.045a16.489,16.489,0,0,0,4.038-3.08c.591.491,1.185.98,1.736,1.482.368.352.747.664,1.1,1.037l1.054,1.077c.645.709,1.314,1.436,1.926,2.143.428.489.829.962,1.232,1.438-.606-.452-1.814-1.312-1.923-1.373-1.7-.945-5.546-1.772-7.139-.281a2.581,2.581,0,0,0,.186,3.835c1.159,1.012,3.055,1.029,4.479.732,1.567-.328,4.332-2.335,4.675-2.588.666.79,1.306,1.564,1.9,2.3.849,1.056,1.62,2.049,2.313,2.963h.112Z" transform="translate(-22.416 -238.509)" fill="#263238"/>
          <path id="Trazado_100621" data-name="Trazado 100621" d="M64.43,263.682c1.6.368,5.083-.34,5.361-.4a45.693,45.693,0,0,0,1.6,5.881c.379,1.123.8,2.242,1.229,3.358-.273-.48-.521-.908-.562-.964-1.15-1.571-4.294-3.931-6.364-3.247a2.581,2.581,0,0,0-1.439,3.56c.629,1.405,2.344,2.214,3.761,2.541a17.08,17.08,0,0,0,5.208-.368c.17.427.336.854.508,1.28.737,1.827,1.473,3.646,2.162,5.456v-2.339q-.721-1.707-1.456-3.411c-.267-.62-.524-1.24-.784-1.86.15-.021,1.132-.166,2.24-.42v-5.633a10.112,10.112,0,0,0-1.838,3.3c-.041.141-.387,2.133-.45,2.645-.573-1.366-1.132-2.732-1.628-4.1a45.247,45.247,0,0,1-1.673-5.652c.137-.019,3.8-.541,5.2-1.45.127-.082.256-.173.383-.267v-6.236a2.346,2.346,0,0,0-.271-.024c-2.179.058-4.336,3.345-4.884,5.214-.037.123-.3,1.64-.411,2.365l-.124,0a33.311,33.311,0,0,1-.63-5.893c-.032-1.089,0-2.132.049-3.146.692-.027,3.85-.187,5.207-.864a8.066,8.066,0,0,0,1.064-.642v-5.786a2.334,2.334,0,0,0-.235-.047c-2.173-.182-4.677,2.849-5.427,4.646-.04.1-.345,1.137-.556,1.9.031-.457.054-.93.091-1.367.137-1.644.365-3.139.577-4.463.126-.751.256-1.428.383-2.06.664-.381,3.322-1.95,4.2-3.154a7.664,7.664,0,0,0,.968-1.793v-3.086a2.536,2.536,0,0,0-3.216-1.25c-2.012.84-2.838,4.684-2.675,6.624.014.168.536,2.765.571,2.745l.04-.023c-.135.606-.273,1.257-.41,1.972-.241,1.321-.5,2.817-.675,4.463a46.034,46.034,0,0,0-.309,5.338,33.707,33.707,0,0,0,.506,5.961c0,.023.012.047.016.07-.3-.565-1.183-2.117-1.265-2.228-1.15-1.571-4.294-3.932-6.364-3.247a2.58,2.58,0,0,0-1.439,3.56C61.3,262.546,63.014,263.356,64.43,263.682Z" transform="translate(-27.259 -235.716)" fill="#263238"/>
        </g>
        <g id="Grupo_53812" data-name="Grupo 53812" transform="translate(317.971)">
          <path id="Trazado_100622" data-name="Trazado 100622" d="M443.94,109.171c-1.922-.277-5.572-2.655-5.574-2.656-.038-.026,2.3-1.93,2.458-2.033,1.865-1.195,6.172-2.408,8.087-.83a2.936,2.936,0,0,1,.063,4.368C447.729,109.252,445.578,109.407,443.94,109.171Z" transform="translate(-401.284 -74.162)" fill="#263238"/>
          <path id="Trazado_100623" data-name="Trazado 100623" d="M403.134,87.568c-.045,0,.853-2.877.929-3.052.9-2.026,3.82-5.413,6.287-5.153a2.936,2.936,0,0,1,2.463,3.608c-.359,1.714-2.068,3.03-3.563,3.737C407.493,87.538,403.137,87.568,403.134,87.568Z" transform="translate(-396.059 -70.669)" fill="#263238"/>
          <path id="Trazado_100624" data-name="Trazado 100624" d="M400.688,120.523a2.579,2.579,0,0,1,1.439,3.56c-.629,1.4-2.343,2.214-3.76,2.541a11.534,11.534,0,0,1-3.54-.089v-3.366C396.223,121.668,398.87,119.92,400.688,120.523Z" transform="translate(-394.827 -76.758)" fill="#263238"/>
          <path id="Trazado_100625" data-name="Trazado 100625" d="M394.827,138.317c.451-.556.924-1.131,1.427-1.73.673-.8,1.408-1.651,2.171-2.512a28.132,28.132,0,0,1-1.938-2.665,7.924,7.924,0,0,1-1.661.3v-5.565a7.794,7.794,0,0,1,.927-.631,3.082,3.082,0,0,1,.307-.483,2.58,2.58,0,0,1,3.819-.4c1.576,1.507.965,5.391.116,7.143-.049.1-.719,1.163-1.151,1.826.313-.351.614-.695.941-1.051.643-.71,1.3-1.4,2.015-2.145l1.077-1.053c.352-.359.769-.694,1.156-1.047.914-.8,1.879-1.561,2.868-2.309a16.94,16.94,0,0,1-3.382-3.937c-.584-1.331-.959-3.19-.208-4.533a2.579,2.579,0,0,1,3.714-.973c1.786,1.25,1.771,5.183,1.2,7.043-.036.117-.6,1.405-.921,2.107.6-.445,1.193-.893,1.813-1.323,1.789-1.243,3.638-2.446,5.478-3.654.564-.37,1.121-.744,1.68-1.118-.223-.2-2.861-2.561-3.518-4.059-.584-1.331-.959-3.19-.208-4.534a2.582,2.582,0,0,1,3.715-.973c1.786,1.251,1.771,5.183,1.2,7.043-.043.14-.854,1.993-1.083,2.455,1.231-.824,2.45-1.654,3.62-2.523a45.44,45.44,0,0,0,4.512-3.791c-.1-.092-2.868-2.546-3.541-4.08-.584-1.331-.959-3.19-.208-4.534a2.581,2.581,0,0,1,3.715-.972c1.786,1.25,1.771,5.183,1.2,7.043-.037.123-.654,1.536-.963,2.2l.1.072a33.167,33.167,0,0,0,3.777-4.568c.629-.89,1.179-1.777,1.7-2.65-.562-.4-3.108-2.28-3.867-3.594-.727-1.259-1.3-3.065-.7-4.483a2.58,2.58,0,0,1,3.586-1.374c1.912,1.047,2.328,4.956,1.963,6.869-.02.1-.34,1.139-.583,1.889.227-.4.468-.8.678-1.191.792-1.446,1.427-2.819,1.981-4.04.309-.7.575-1.332.817-1.93-.344-.684-1.7-3.459-1.763-4.947-.065-1.453.256-3.322,1.441-4.3a2.58,2.58,0,0,1,3.816.433c1.215,1.811-.217,5.472-1.423,7-.1.132-1.972,2.01-1.99,1.975l-.02-.042c-.221.58-.466,1.2-.747,1.87-.527,1.235-1.135,2.626-1.9,4.095a45.755,45.755,0,0,1-2.687,4.623,33.531,33.531,0,0,1-3.71,4.693c-.016.017-.036.032-.052.049.56-.307,2.155-1.112,2.284-1.161,1.826-.676,5.751-.91,7.1.8a2.581,2.581,0,0,1-.764,3.764c-1.3.824-3.176.554-4.538.044-1.536-.575-4.052-3.088-4.252-3.288a45.655,45.655,0,0,1-4.576,4.024c-.936.727-1.9,1.43-2.877,2.122.492-.25.935-.469,1-.494,1.826-.676,5.751-.91,7.1.8a2.58,2.58,0,0,1-.765,3.763c-1.3.825-3.176.554-4.538.045a17.08,17.08,0,0,1-4.141-3.18c-.378.262-.752.528-1.13.788-1.815,1.249-3.632,2.488-5.377,3.758-.616.447-1.205.91-1.8,1.371.438-.221.809-.4.868-.427,1.826-.676,5.751-.91,7.1.8a2.58,2.58,0,0,1-.764,3.763c-1.3.825-3.176.554-4.538.045a16.494,16.494,0,0,1-4.039-3.08c-.591.491-1.184.98-1.735,1.483-.369.351-.748.663-1.1,1.036l-1.054,1.077c-.645.709-1.314,1.436-1.926,2.143-.429.489-.83.962-1.233,1.438.607-.451,1.814-1.312,1.923-1.372,1.7-.945,5.546-1.771,7.139-.282a2.58,2.58,0,0,1-.186,3.835c-1.159,1.012-3.055,1.029-4.478.732-1.567-.327-4.332-2.335-4.676-2.588-.666.79-1.306,1.564-1.9,2.3-.848,1.055-1.62,2.048-2.312,2.963h-.113Z" transform="translate(-394.827 -71.951)" fill="#263238"/>
          <path id="Trazado_100626" data-name="Trazado 100626" d="M406.287,97.124c-1.6.368-5.083-.34-5.361-.4a45.734,45.734,0,0,1-1.6,5.882c-.38,1.123-.8,2.241-1.229,3.357.273-.48.52-.908.562-.964,1.149-1.571,4.294-3.931,6.364-3.246a2.581,2.581,0,0,1,1.439,3.56c-.629,1.4-2.343,2.214-3.76,2.541a17.089,17.089,0,0,1-5.209-.368c-.17.427-.336.854-.508,1.28-.738,1.827-1.473,3.647-2.162,5.457v-2.34q.721-1.705,1.456-3.411c.267-.619.525-1.24.784-1.86-.15-.021-1.131-.166-2.24-.419v-5.634a10.112,10.112,0,0,1,1.838,3.3c.042.141.388,2.133.451,2.645.573-1.366,1.131-2.732,1.628-4.1a45.574,45.574,0,0,0,1.673-5.651c-.138-.02-3.8-.542-5.2-1.45-.127-.082-.256-.173-.384-.267V88.8a2.368,2.368,0,0,1,.272-.024c2.179.058,4.336,3.345,4.884,5.214.036.123.3,1.64.41,2.365l.124,0a33.154,33.154,0,0,0,.63-5.893c.033-1.089,0-2.132-.049-3.145-.691-.028-3.85-.188-5.207-.865a8.066,8.066,0,0,1-1.064-.642V80.025a2.344,2.344,0,0,1,.235-.047c2.173-.182,4.677,2.849,5.427,4.646.041.1.345,1.137.556,1.9-.031-.457-.053-.929-.09-1.367-.138-1.643-.365-3.139-.577-4.463-.127-.751-.256-1.428-.384-2.06-.664-.381-3.322-1.95-4.2-3.154a7.646,7.646,0,0,1-.968-1.793V70.6a2.537,2.537,0,0,1,3.216-1.25c2.013.84,2.838,4.684,2.675,6.624-.014.168-.535,2.765-.57,2.745l-.041-.023c.135.606.273,1.257.41,1.972.241,1.321.5,2.817.675,4.463a45.847,45.847,0,0,1,.309,5.338A33.626,33.626,0,0,1,401,96.428c0,.023-.011.047-.016.07.3-.565,1.184-2.116,1.266-2.228,1.149-1.571,4.294-3.932,6.364-3.247a2.581,2.581,0,0,1,1.439,3.56C409.418,95.988,407.7,96.8,406.287,97.124Z" transform="translate(-394.827 -69.158)" fill="#263238"/>
        </g>
      </g>
      <g id="Character_2" data-name="Character 2" transform="translate(79.121 55.149)">
        <g id="Grupo_53829" data-name="Grupo 53829">
          <g id="Grupo_53814" data-name="Grupo 53814" transform="translate(152.704 39.87)">
            <path id="Trazado_100627" data-name="Trazado 100627" d="M335.453,112c-.78-3.1-10.925-5.395-11.966-4.922-.2.09-.445.79-.71,1.858a13.368,13.368,0,0,0-1.695-.278c-1.038-.038-1.865,5.439-1.865,5.439s-.083,9.354.279,11.644l-18.771,32.794-32.019-15.9c-2.391,9.247,13.027,24.528,13.027,24.528s21.236,6.674,25.021,4.641,19.567-44.671,19.567-44.671a46.171,46.171,0,0,0,4.235-3.807C332.021,121.723,336.232,115.1,335.453,112Z" transform="translate(-268.453 -106.83)" fill="#b0b0b0"/>
            <g id="Grupo_53813" data-name="Grupo 53813" transform="translate(9.55)">
              <path id="Trazado_100628" data-name="Trazado 100628" d="M279.667,157.246,304.525,167l20.8-40.3L332,108.891" transform="translate(-279.667 -107.108)" fill="none" stroke="#ffc935" stroke-miterlimit="10" stroke-width="1"/>
              <path id="Trazado_100629" data-name="Trazado 100629" d="M310.653,175.678a2.444,2.444,0,1,0-1.214,3.236A2.443,2.443,0,0,0,310.653,175.678Z" transform="translate(-283.57 -116.8)" fill="#92e3a9"/>
              <path id="Trazado_100630" data-name="Trazado 100630" d="M334.746,127.853a2.444,2.444,0,1,0-1.214,3.236A2.444,2.444,0,0,0,334.746,127.853Z" transform="translate(-287.143 -109.707)" fill="#ffc935"/>
              <path id="Trazado_100631" data-name="Trazado 100631" d="M342.816,109.241a2.444,2.444,0,1,0-2.444,2.443A2.444,2.444,0,0,0,342.816,109.241Z" transform="translate(-288.308 -106.797)" fill="#ffc935"/>
            </g>
          </g>
          <g id="Grupo_53816" data-name="Grupo 53816" transform="translate(110.363 13.641)">
            <path id="Trazado_100632" data-name="Trazado 100632" d="M293.8,76.008c-5.969.187-9.565,1.831-11.492,3.111-5.8-2.139-12.906-2.633-18.452-.721a17.614,17.614,0,0,0-8.666,6.086,17.381,17.381,0,0,0-1.513,2.424,22.322,22.322,0,0,0-1.951,5.6,33.652,33.652,0,0,0-.65,4.757q-.028.41-.032.828c0,.086,0,.175.005.261,0,.193,0,.385.012.58.005.106.016.213.023.319.012.178.022.356.039.535.011.11.027.22.04.33.02.177.039.354.066.533.016.112.037.227.055.341.029.176.056.352.089.529.021.113.048.228.071.342.037.177.072.355.112.533.026.112.055.225.083.338.044.18.088.359.135.54.03.112.064.225.1.337.05.181.1.361.155.541.033.112.07.223.106.335.057.181.113.362.174.543.037.11.077.219.114.328.064.183.127.365.194.548.039.107.08.214.121.32.068.182.137.364.209.544.043.11.089.22.134.33.072.176.144.353.218.528.046.108.094.216.141.324.077.176.153.352.232.526.047.1.1.208.143.312.081.175.162.35.244.524.049.1.1.209.152.313.082.169.164.336.247.5l.162.319c.083.163.166.325.25.485.055.1.11.209.166.313.083.157.167.313.251.468l.174.314c.083.15.167.3.251.448.06.106.119.209.18.313.082.141.164.283.245.422.063.107.125.212.188.317q.118.2.235.39l.2.327q.11.178.22.351c.07.111.139.22.209.329s.139.216.209.323.144.221.215.33l.19.284c.077.114.152.226.227.336.055.082.11.162.165.241q.12.175.239.343l.142.2.247.345.115.157c.089.12.175.237.26.35l.085.112c.089.119.177.233.263.344l.064.082q.137.175.265.334l.037.045q.135.167.261.317l.02.024q.133.156.251.29l0,0c.136.153.262.29.37.4,2.13,2.13,1.521,5.781.3,7.3l-.233.3-.574-1.235c-4.572-1.714-14.574,7.715-18,16.86s-7.144,25.719-9.145,29.148c-1.937,3.32-7.095,7.98-14.422,12.941a64.534,64.534,0,0,0,32.612,19.459c4.021-9.9,11.339-21.033,12.1-21.542a27.758,27.758,0,0,0,7.715-6c4-4.287,7.145-10.573,4.858-16.288-.951-2.38-3.836-8.773-6.878-15.424.92-3.944,3.168-13.022,5.053-16.084a32.013,32.013,0,0,1,3.651-5.173s12.476,3.651,14.606,1.826,5.781-13.084,5.781-13.084,4.26-1.826,3.651-3.956-5.172-3.042-5.477-6.693c-.072-.858-.108-1.629-.124-2.311a6.661,6.661,0,0,0,1.536.03c3.1-.31,2.168-4.025,1.238-5.573s2.787-3.407,4.954-6.5S303.707,75.7,293.8,76.008Z" transform="translate(-218.739 -76)" fill="#b0b0b0"/>
            <path id="Trazado_100633" data-name="Trazado 100633" d="M291.236,80.653s3.406-4.335,13.315-4.645,12.385,8.67,10.218,11.767-5.883,4.954-4.954,6.5,1.858,5.263-1.238,5.573-4.954-1.238-5.264-4.025S295.261,80.962,291.236,80.653Z" transform="translate(-229.491 -76)" fill="#8a8a8a"/>
            <path id="Trazado_100634" data-name="Trazado 100634" d="M302.038,96.561s-.608-5.782-5.781-11.867-17.953-9.128-26.776-6.085S257.309,88.649,256.7,97.473s7.607,20.387,9.737,22.517,1.521,5.781.3,7.3-1.825,2.434-1.825,2.434l9.432,17.649s3.043-14,5.477-17.953a32.013,32.013,0,0,1,3.651-5.173s12.476,3.651,14.606,1.826,5.781-13.084,5.781-13.084,4.26-1.826,3.651-3.956-5.172-3.042-5.477-6.693A28.507,28.507,0,0,1,302.038,96.561Z" transform="translate(-224.364 -76.21)" fill="#b0b0b0"/>
            <path id="Trazado_100635" data-name="Trazado 100635" d="M296.257,84.693c-5.172-6.085-17.953-9.128-26.776-6.085S257.309,88.649,256.7,97.473c-.6,8.65,7.282,19.924,9.6,22.373,2.22.1,7.432-.926,11.4-11.419,0,0,3.347.608,5.781-3.347s-.3-7.911,3.043-12.476c2.779-3.79,10.589-3.174,13.16-2.857A27.7,27.7,0,0,0,296.257,84.693Z" transform="translate(-224.364 -76.21)" fill="#8a8a8a"/>
            <path id="Trazado_100636" data-name="Trazado 100636" d="M283.938,114.136s-4.26-8.215-7.911-6.085-1.217,8.823.609,11.563,6.389-.913,6.389-.913" transform="translate(-226.955 -80.701)" fill="#b0b0b0"/>
            <g id="Grupo_53815" data-name="Grupo 53815" transform="translate(1.359 18.568)">
              <path id="Trazado_100637" data-name="Trazado 100637" d="M279.34,100.67,265.4,140.606,246.94,183.179,223.2,223.115" transform="translate(-220.76 -98.227)" fill="none" stroke="#92e3a9" stroke-miterlimit="10" stroke-width="1"/>
              <path id="Trazado_100638" data-name="Trazado 100638" d="M291.134,100.244a2.444,2.444,0,1,0-2.443,2.444A2.443,2.443,0,0,0,291.134,100.244Z" transform="translate(-230.11 -97.801)" fill="#92e3a9"/>
              <path id="Trazado_100639" data-name="Trazado 100639" d="M274.767,147.135a2.444,2.444,0,1,0-2.444,2.443A2.444,2.444,0,0,0,274.767,147.135Z" transform="translate(-227.683 -104.755)" fill="#92e3a9"/>
              <circle id="Elipse_4056" data-name="Elipse 4056" cx="2.444" cy="2.444" r="2.444" transform="translate(23.735 82.509)" fill="#92e3a9"/>
              <circle id="Elipse_4057" data-name="Elipse 4057" cx="2.444" cy="2.444" r="2.444" transform="translate(0 122.444)" fill="#92e3a9"/>
            </g>
          </g>
          <g id="Grupo_53828" data-name="Grupo 53828">
            <g id="Grupo_53818" data-name="Grupo 53818" transform="translate(50.912 60.173)">
              <path id="Trazado_100640" data-name="Trazado 100640" d="M247.86,139.292s-47-9.269-50.6-8.624c-2.939.526-26.656,16.6-35.3,22.5,0,0-11.41,4.809-12.774,7.321s3.228,6.631,3.228,6.631a4.286,4.286,0,0,0,2.446,3.28c2.145.84,9.365-4.669,9.545-6.2.124-1.054,1.882-3.694,2.963-5.231,7.921-3.759,32.354-14.284,32.354-14.284S241.6,158,246.543,155.487,255.917,143.019,247.86,139.292Z" transform="translate(-148.936 -130.635)" fill="#b0b0b0"/>
              <g id="Grupo_53817" data-name="Grupo 53817" transform="translate(1.142 4.159)">
                <path id="Trazado_100641" data-name="Trazado 100641" d="M247.833,148.392l-50.052-10.467-31.508,19.328L153.023,168.2" transform="translate(-150.684 -135.875)" fill="none" stroke="#ffc935" stroke-miterlimit="10" stroke-width="1"/>
                <path id="Trazado_100642" data-name="Trazado 100642" d="M266.065,150.955a2.444,2.444,0,1,0-3.314.981A2.443,2.443,0,0,0,266.065,150.955Z" transform="translate(-166.769 -137.272)" fill="#92e3a9"/>
                <path id="Trazado_100643" data-name="Trazado 100643" d="M206.3,139.129a2.444,2.444,0,1,0-3.314.981A2.443,2.443,0,0,0,206.3,139.129Z" transform="translate(-157.905 -135.518)" fill="#ffc935"/>
                <path id="Trazado_100644" data-name="Trazado 100644" d="M170.3,161.36a2.444,2.444,0,1,0-3.314.98A2.446,2.446,0,0,0,170.3,161.36Z" transform="translate(-152.566 -138.815)" fill="#ffc935"/>
                <path id="Trazado_100645" data-name="Trazado 100645" d="M154.869,173.8a2.444,2.444,0,1,0-3.315.98A2.444,2.444,0,0,0,154.869,173.8Z" transform="translate(-150.277 -140.66)" fill="#ffc935"/>
              </g>
            </g>
            <g id="Grupo_53820" data-name="Grupo 53820" transform="translate(76.495)">
              <path id="Trazado_100646" data-name="Trazado 100646" d="M250.871,88.88S245.764,72.865,235.086,65.3s-19.39.934-26.374,3.753-11.657-3.618-16.943-7.857S175.6,64.08,180,78.54s23.8,17.43,32.737,13.532S227.145,80.252,234.816,81.9s13.614,8.965,13.614,8.965Z" transform="translate(-178.974 -59.984)" fill="#8a8a8a"/>
              <g id="Grupo_53819" data-name="Grupo 53819" transform="translate(7.086 5.598)">
                <path id="Trazado_100647" data-name="Trazado 100647" d="M248.2,85.284,229.56,71.037,200.793,82.948,189.966,69.432" transform="translate(-187.691 -66.983)" fill="none" stroke="#ffc935" stroke-miterlimit="10" stroke-width="1"/>
                <path id="Trazado_100648" data-name="Trazado 100648" d="M204.4,86.044a2.444,2.444,0,1,0-3.315.979A2.443,2.443,0,0,0,204.4,86.044Z" transform="translate(-189.15 -68.911)" fill="#ffc935"/>
                <path id="Trazado_100649" data-name="Trazado 100649" d="M191.885,70.169a2.444,2.444,0,1,0-3.315.979A2.444,2.444,0,0,0,191.885,70.169Z" transform="translate(-187.294 -66.557)" fill="#ffc935"/>
                <path id="Trazado_100650" data-name="Trazado 100650" d="M238.175,72.059a2.444,2.444,0,1,0-3.315.979A2.444,2.444,0,0,0,238.175,72.059Z" transform="translate(-194.16 -66.837)" fill="#ffc935"/>
                <path id="Trazado_100651" data-name="Trazado 100651" d="M260.06,88.787a2.444,2.444,0,1,0-3.315.979A2.444,2.444,0,0,0,260.06,88.787Z" transform="translate(-197.405 -69.318)" fill="#ffc935"/>
              </g>
            </g>
            <g id="Grupo_53824" data-name="Grupo 53824" transform="translate(0 136.072)">
              <g id="Grupo_53822" data-name="Grupo 53822" transform="translate(1.134)">
                <path id="Trazado_100652" data-name="Trazado 100652" d="M206.837,230.573s-31.964,41.217-31.695,46.154,4.78,11.869,12.5,8.837,36.354-20.649,45.8-32.861S223.979,214.581,206.837,230.573Z" transform="translate(-103.044 -220.606)" fill="#8a8a8a"/>
                <path id="Trazado_100653" data-name="Trazado 100653" d="M215.931,219.752s34.158.669,60.948,11.051,26.455,12.725,25.45,16.743-10.046,6.7-42.194,7.7-42.194-1.674-52.575-15.07" transform="translate(-107.852 -219.752)" fill="#8a8a8a"/>
                <g id="Grupo_53821" data-name="Grupo 53821" transform="translate(0 21.012)">
                  <path id="Trazado_100654" data-name="Trazado 100654" d="M176.334,273.12a79.321,79.321,0,0,0-21.365-9.673c-11.348-2.933-33.059-9.929-34.061-10.6s-10.911-8.907-12.149-8.4-18.125,21.948-18.234,23.442-.164,2.24,2.932.966l5.264-2.168c1.548-.637,17.8-5.154,17.8-5.154s41.474,24.209,47.029,26.268a24.763,24.763,0,0,0,11.268,1.118,15.833,15.833,0,0,0,6.062-3.536" transform="translate(-90.489 -244.423)" fill="#8a8a8a"/>
                  <path id="Trazado_100655" data-name="Trazado 100655" d="M135.665,257.8c-7.686-2.405-14.219-4.6-14.757-4.959-1-.674-10.911-8.907-12.149-8.4s-18.125,21.948-18.234,23.442-.164,2.24,2.932.966l5.264-2.168c1.548-.637,17.8-5.154,17.8-5.154s5.31,3.1,12.384,7.175A22.914,22.914,0,0,1,135.665,257.8Z" transform="translate(-90.489 -244.423)" fill="#b0b0b0"/>
                  <path id="Trazado_100656" data-name="Trazado 100656" d="M112.382,258.527l6.295-7.416c-3.282-2.587-9-7.043-9.919-6.664-1.238.51-18.125,21.948-18.234,23.442s-.164,2.24,2.932.966l5.264-2.168c1.548-.637,17.8-5.154,17.8-5.154l.208.121C115.7,259.621,112.382,258.527,112.382,258.527Z" transform="translate(-90.489 -244.423)" fill="#dedede"/>
                </g>
              </g>
              <g id="Grupo_53823" data-name="Grupo 53823" transform="translate(0 24.415)">
                <path id="Trazado_100657" data-name="Trazado 100657" d="M205.411,248.419l-32.917,32.815L117.715,255.87l-15.09,4.555L90.531,268.48" transform="translate(-89.361 -248.419)" fill="none" stroke="#ffc935" stroke-miterlimit="10" stroke-width="1"/>
                <path id="Trazado_100658" data-name="Trazado 100658" d="M187.351,287a2.444,2.444,0,1,0-3.251,1.172A2.443,2.443,0,0,0,187.351,287Z" transform="translate(-103.031 -253.624)" fill="#ffc935"/>
                <path id="Trazado_100659" data-name="Trazado 100659" d="M125.237,258.785a2.444,2.444,0,1,0-3.252,1.172A2.444,2.444,0,0,0,125.237,258.785Z" transform="translate(-93.818 -249.439)" fill="#ffc935"/>
                <path id="Trazado_100660" data-name="Trazado 100660" d="M106.517,263.131a2.444,2.444,0,1,0-3.252,1.171A2.445,2.445,0,0,0,106.517,263.131Z" transform="translate(-91.042 -250.084)" fill="#ffc935"/>
                <path id="Trazado_100661" data-name="Trazado 100661" d="M93.814,272.157a2.444,2.444,0,1,0-3.252,1.171A2.445,2.445,0,0,0,93.814,272.157Z" transform="translate(-89.158 -251.423)" fill="#ffc935"/>
              </g>
            </g>
            <g id="Grupo_53827" data-name="Grupo 53827" transform="translate(107.573 144.344)">
              <g id="Grupo_53825" data-name="Grupo 53825" transform="translate(60.458 12.223)">
                <path id="Trazado_100662" data-name="Trazado 100662" d="M320.48,323.4c2.186-.724,7.87-.695,11.766-1.855-3.89-4.063-7.1-7.431-7.1-7.431s-8.866-60.621-10.665-65.312-5.069-5.971-9.3-4.277l-18.736,9.937S320.561,322.789,320.48,323.4Z" transform="translate(-286.45 -243.815)" fill="#8a8a8a"/>
                <path id="Trazado_100663" data-name="Trazado 100663" d="M324.736,333.079c2.186-.724,7.87-.695,11.766-1.855-3.89-4.063-7.1-7.431-7.1-7.431s-1.008-6.182-2.439-14.743a21.728,21.728,0,0,1-11.822,4.27C320.316,323.749,324.77,332.821,324.736,333.079Z" transform="translate(-290.706 -253.49)" fill="#b0b0b0"/>
                <path id="Trazado_100664" data-name="Trazado 100664" d="M331.83,346.586c2.007-.347,22.529-9.425,25.162-11.89s5.784-7.289,2.991-8-5.737,1.879-10.47,2.646-19.484-3.512-19.484-3.512c-.986,3.02,3.4,8.016,3.4,8.016l-7.022,1.717S329.824,346.934,331.83,346.586Z" transform="translate(-292.376 -255.98)" fill="#dedede"/>
              </g>
              <g id="Grupo_53826" data-name="Grupo 53826">
                <path id="Trazado_100665" data-name="Trazado 100665" d="M344.24,313.984l-15.381,6.278-16.323-4.709-19.776-65.292-74.426-17.928" transform="translate(-215.89 -229.89)" fill="none" stroke="#ffc935" stroke-miterlimit="10" stroke-width="1"/>
                <path id="Trazado_100666" data-name="Trazado 100666" d="M330.958,329.619a2.444,2.444,0,1,0-2.443,2.444A2.443,2.443,0,0,0,330.958,329.619Z" transform="translate(-231.868 -243.956)" fill="#ffc935"/>
                <path id="Trazado_100667" data-name="Trazado 100667" d="M307.738,252.957a2.444,2.444,0,1,0-2.444,2.444A2.444,2.444,0,0,0,307.738,252.957Z" transform="translate(-228.425 -232.586)" fill="#92e3a9"/>
                <path id="Trazado_100668" data-name="Trazado 100668" d="M220.352,231.907a2.444,2.444,0,1,0-2.444,2.444A2.444,2.444,0,0,0,220.352,231.907Z" transform="translate(-215.464 -229.464)" fill="#92e3a9"/>
                <circle id="Elipse_4058" data-name="Elipse 4058" cx="2.444" cy="2.444" r="2.444" transform="translate(110.525 87.928)" fill="#ffc935"/>
                <path id="Trazado_100669" data-name="Trazado 100669" d="M366.709,328.514a2.444,2.444,0,1,0-2.443,2.443A2.444,2.444,0,0,0,366.709,328.514Z" transform="translate(-237.171 -243.792)" fill="#ffc935"/>
              </g>
            </g>
          </g>
        </g>
      </g>
      <g id="Character_1" data-name="Character 1" transform="translate(88.355 68.79)">
        <g id="Grupo_53852" data-name="Grupo 53852">
          <line id="Línea_157" data-name="Línea 157" x2="241.027" transform="translate(0 262.32)" fill="none" stroke="#263238" stroke-miterlimit="10" stroke-width="1"/>
          <g id="Grupo_53851" data-name="Grupo 53851" transform="translate(32.669)">
            <g id="Grupo_53831" data-name="Grupo 53831" transform="translate(33.26 0.616)">
              <path id="Trazado_100670" data-name="Trazado 100670" d="M250.46,90.028S238.32,78.4,225.326,76.862s-16.586,10.088-21.373,15.9-11.969,2.394-18.637,1.2-12.824,10.259-2.052,20.86,29.238,3.932,35.222-3.762,7.011-17.27,14.534-19.493,16.243,1.369,16.243,1.369Z" transform="translate(-177.41 -76.723)" fill="#263238" stroke="#263238" stroke-miterlimit="10" stroke-width="1"/>
              <g id="Grupo_53830" data-name="Grupo 53830" transform="translate(5.858 4.922)">
                <path id="Trazado_100671" data-name="Trazado 100671" d="M245.713,88.978l-23.181-3.606-19.575,24.212-15.969-6.7" transform="translate(-184.688 -82.928)" fill="none" stroke="#ffc935" stroke-miterlimit="10" stroke-width="1"/>
                <path id="Trazado_100672" data-name="Trazado 100672" d="M207.755,113.374a2.444,2.444,0,1,0-2.443,2.443A2.444,2.444,0,0,0,207.755,113.374Z" transform="translate(-187.044 -86.718)" fill="#ffc935"/>
                <circle id="Elipse_4059" data-name="Elipse 4059" cx="2.444" cy="2.444" r="2.444" transform="translate(0 17.43)" fill="#ffc935"/>
                <path id="Trazado_100673" data-name="Trazado 100673" d="M230.74,84.946A2.444,2.444,0,1,0,228.3,87.39,2.444,2.444,0,0,0,230.74,84.946Z" transform="translate(-190.453 -82.502)" fill="#ffc935"/>
                <path id="Trazado_100674" data-name="Trazado 100674" d="M257.958,89.179a2.444,2.444,0,1,0-2.444,2.444A2.444,2.444,0,0,0,257.958,89.179Z" transform="translate(-194.489 -83.13)" fill="#ffc935"/>
              </g>
            </g>
            <g id="Grupo_53834" data-name="Grupo 53834" transform="translate(109.632 53.288)">
              <g id="Grupo_53832" data-name="Grupo 53832" transform="translate(2.685)">
                <path id="Trazado_100675" data-name="Trazado 100675" d="M272.519,148.283,295.095,176l31.72-22.861s9.144-14.574,10.288-14.574,9.43,6.287,8.858,9.43-7.144,7.43-9.145,8.288a46.3,46.3,0,0,1-5.43,1.714s-32.006,32.292-36.292,32.577S274.233,176,274.233,176,266.518,155.713,272.519,148.283Z" transform="translate(-270.234 -138.567)" fill="#fff" stroke="#263238" stroke-miterlimit="10" stroke-width="1"/>
                <path id="Trazado_100676" data-name="Trazado 100676" d="M335.319,154.41c0-1.161,4.644-11.147,4.644-11.147s3.019-4.645,3.948-4.181,6.27,4.413,5.573,5.574-5.341-.7-5.341-.7,2.787,4.877-.929,8.36" transform="translate(-279.887 -138.639)" fill="#fff" stroke="#263238" stroke-miterlimit="10" stroke-width="1"/>
                <line id="Línea_158" data-name="Línea 158" x2="5.109" y2="4.413" transform="translate(65.418 6.714)" fill="none" stroke="#263238" stroke-miterlimit="10" stroke-width="1"/>
              </g>
              <g id="Grupo_53833" data-name="Grupo 53833" transform="translate(0 4.23)">
                <path id="Trazado_100677" data-name="Trazado 100677" d="M267.082,155.4l26.108,29.669,35.6-28.086,13.45-13.45" transform="translate(-267.082 -143.533)" fill="none" stroke="#ffc935" stroke-miterlimit="10" stroke-width="1"/>
                <path id="Trazado_100678" data-name="Trazado 100678" d="M299.755,191.877a2.444,2.444,0,1,0-2.444,2.444A2.444,2.444,0,0,0,299.755,191.877Z" transform="translate(-271.203 -150.341)" fill="#ffc935"/>
                <path id="Trazado_100679" data-name="Trazado 100679" d="M341.472,158.3a2.444,2.444,0,1,0-2.444,2.443A2.444,2.444,0,0,0,341.472,158.3Z" transform="translate(-277.39 -145.361)" fill="#ffc935"/>
              </g>
            </g>
            <g id="Grupo_53841" data-name="Grupo 53841" transform="translate(55.358)">
              <g id="Grupo_53837" data-name="Grupo 53837" transform="translate(45.405)">
                <path id="Trazado_100680" data-name="Trazado 100680" d="M291.236,80.653s3.406-4.335,13.315-4.645,12.385,8.67,10.218,11.767-5.883,4.954-4.954,6.5,1.858,5.263-1.238,5.573-4.954-1.238-5.264-4.025S295.261,80.962,291.236,80.653Z" transform="translate(-261.795 -76)" fill="#263238" stroke="#263238" stroke-miterlimit="10" stroke-width="1"/>
                <g id="Grupo_53836" data-name="Grupo 53836" transform="translate(0 1.205)">
                  <path id="Trazado_100681" data-name="Trazado 100681" d="M302.038,96.561s-.608-5.782-5.781-11.867-17.953-9.128-26.776-6.085S257.309,88.649,256.7,97.473s7.607,20.387,9.737,22.517,1.521,5.781.3,7.3-1.825,2.434-1.825,2.434l9.432,17.649s3.043-14,5.477-17.953a32.013,32.013,0,0,1,3.651-5.173s12.476,3.651,14.606,1.826,5.781-13.084,5.781-13.084,4.26-1.826,3.651-3.956-5.172-3.042-5.477-6.693A28.507,28.507,0,0,1,302.038,96.561Z" transform="translate(-256.668 -77.414)" fill="#fff" stroke="#263238" stroke-miterlimit="10" stroke-width="1"/>
                  <g id="Grupo_53835" data-name="Grupo 53835" transform="translate(37.31 20.438)">
                    <ellipse id="Elipse_4060" data-name="Elipse 4060" cx="0.992" cy="1.983" rx="0.992" ry="1.983" transform="translate(2.644 4.704)" fill="#263238"/>
                    <path id="Trazado_100682" data-name="Trazado 100682" d="M300.475,101.982a4.051,4.051,0,0,1,4.958.662" transform="translate(-300.475 -101.411)" fill="none" stroke="#263238" stroke-miterlimit="10" stroke-width="1"/>
                    <path id="Trazado_100683" data-name="Trazado 100683" d="M306.493,122.325s-3.827.382-4.592-2.3" transform="translate(-300.686 -104.172)" fill="none" stroke="#263238" stroke-miterlimit="10" stroke-width="1"/>
                  </g>
                </g>
                <path id="Trazado_100684" data-name="Trazado 100684" d="M296.257,84.693c-5.172-6.085-17.953-9.128-26.776-6.085S257.309,88.649,256.7,97.473c-.6,8.65,7.282,19.924,9.6,22.373,2.22.1,7.432-.926,11.4-11.419,0,0,3.347.608,5.781-3.347s-.3-7.911,3.043-12.476c2.779-3.79,10.589-3.174,13.16-2.857A27.7,27.7,0,0,0,296.257,84.693Z" transform="translate(-256.668 -76.21)" fill="#263238" stroke="#263238" stroke-miterlimit="10" stroke-width="1"/>
                <path id="Trazado_100685" data-name="Trazado 100685" d="M283.938,114.136s-4.26-8.215-7.911-6.085-1.217,8.823.609,11.563,6.389-.913,6.389-.913" transform="translate(-259.259 -80.701)" fill="#fff" stroke="#263238" stroke-miterlimit="10" stroke-width="1"/>
              </g>
              <g id="Grupo_53840" data-name="Grupo 53840" transform="translate(0 18.568)">
                <g id="Grupo_53838" data-name="Grupo 53838" transform="translate(0 31.373)">
                  <path id="Trazado_100686" data-name="Trazado 100686" d="M258.027,134.841s13.431,28.863,15.717,34.578-.857,12-4.858,16.288a27.758,27.758,0,0,1-7.715,6c-.857.572-10,14.574-13.431,25.148s-4.858,19.432-15.146,22.576-25.719-4.287-28.577-16.575,4-23.432,11.717-28.577,13.145-10,15.146-13.431,5.716-20,9.145-29.148S253.456,133.126,258.027,134.841Z" transform="translate(-203.356 -134.637)" fill="#263238" stroke="#263238" stroke-miterlimit="10" stroke-width="1"/>
                  <path id="Trazado_100687" data-name="Trazado 100687" d="M271.168,185.707c4-4.287,7.145-10.573,4.858-16.288s-15.717-34.578-15.717-34.578c-4.572-1.714-14.574,7.715-18,16.86s-7.144,25.719-9.145,29.148c-1.937,3.32-7.095,7.98-14.422,12.941a64.534,64.534,0,0,0,32.612,19.459c4.021-9.9,11.339-21.033,12.1-21.542A27.758,27.758,0,0,0,271.168,185.707Z" transform="translate(-205.638 -134.637)" fill="gray" stroke="#263238" stroke-miterlimit="10" stroke-width="1"/>
                  <path id="Trazado_100688" data-name="Trazado 100688" d="M256.824,165.7s4.144,16.577,6.781,20.722" transform="translate(-211.286 -139.244)" fill="none" stroke="#263238" stroke-miterlimit="10" stroke-width="1"/>
                  <path id="Trazado_100689" data-name="Trazado 100689" d="M252.4,167.024s3.768,9.8,5.275,14.317" transform="translate(-210.63 -139.441)" fill="none" stroke="#263238" stroke-miterlimit="10" stroke-width="1"/>
                  <path id="Trazado_100690" data-name="Trazado 100690" d="M227.185,206.2a77.23,77.23,0,0,0,27.5-1.131" transform="translate(-206.89 -145.083)" fill="none" stroke="#263238" stroke-miterlimit="10" stroke-width="1"/>
                  <path id="Trazado_100691" data-name="Trazado 100691" d="M235.59,202.576s16.929-.881,27.5-4.144" transform="translate(-208.137 -144.099)" fill="none" stroke="#263238" stroke-miterlimit="10" stroke-width="1"/>
                </g>
                <g id="Grupo_53839" data-name="Grupo 53839" transform="translate(14.46)">
                  <path id="Trazado_100692" data-name="Trazado 100692" d="M279.34,100.67,265.4,140.606,246.94,183.179,223.2,223.115" transform="translate(-220.76 -98.227)" fill="none" stroke="#ffc935" stroke-miterlimit="10" stroke-width="1"/>
                  <path id="Trazado_100693" data-name="Trazado 100693" d="M291.134,100.244a2.444,2.444,0,1,0-2.443,2.444A2.443,2.443,0,0,0,291.134,100.244Z" transform="translate(-230.11 -97.801)" fill="#ffc935"/>
                  <path id="Trazado_100694" data-name="Trazado 100694" d="M274.767,147.135a2.444,2.444,0,1,0-2.444,2.443A2.444,2.444,0,0,0,274.767,147.135Z" transform="translate(-227.683 -104.755)" fill="#ffc935"/>
                  <circle id="Elipse_4061" data-name="Elipse 4061" cx="2.444" cy="2.444" r="2.444" transform="translate(23.735 82.509)" fill="#ffc935"/>
                  <circle id="Elipse_4062" data-name="Elipse 4062" cx="2.444" cy="2.444" r="2.444" transform="translate(0 122.444)" fill="#92e3a9"/>
                </g>
              </g>
            </g>
            <g id="Grupo_53845" data-name="Grupo 53845" transform="translate(0 127.699)">
              <g id="Grupo_53843" data-name="Grupo 53843">
                <path id="Trazado_100695" data-name="Trazado 100695" d="M204.75,236.743s-11.385,50.9-9.041,55.254,9.376,8.707,15.069,2.679,24.111-34.158,27.46-49.227S213.457,214.976,204.75,236.743Z" transform="translate(-146.817 -225.936)" fill="#263238" stroke="#263238" stroke-miterlimit="10" stroke-width="1"/>
                <g id="Grupo_53842" data-name="Grupo 53842" transform="translate(0 56.685)">
                  <path id="Trazado_100696" data-name="Trazado 100696" d="M190.6,292.492a79.324,79.324,0,0,0-17.079,16.074c-7.032,9.376-21.767,26.79-22.772,27.459s-12.39,6.7-12.39,8.037,13.4,25.115,14.735,25.785,2.009,1,2.009-2.344v-5.693c0-1.674,2.009-18.419,2.009-18.419s38.175-29.134,42.194-33.487,8.371-13.061,8.371-13.061" transform="translate(-138.358 -292.492)" fill="#263238" stroke="#263238" stroke-miterlimit="10" stroke-width="1"/>
                  <path id="Trazado_100697" data-name="Trazado 100697" d="M160.952,329.8c-5.149,6.193-9.662,11.4-10.2,11.758-1,.67-12.39,6.7-12.39,8.037s13.4,25.115,14.735,25.785,2.009,1,2.009-2.344v-5.693c0-1.674,2.009-18.419,2.009-18.419s4.888-3.73,11.35-8.72A22.92,22.92,0,0,1,160.952,329.8Z" transform="translate(-138.358 -298.025)" fill="#fff" stroke="#263238" stroke-miterlimit="10" stroke-width="1"/>
                  <path id="Trazado_100698" data-name="Trazado 100698" d="M152.757,353.9l-4.461-8.644c-3.641,2.049-9.938,5.638-9.938,6.635,0,1.34,13.4,25.115,14.735,25.785s2.009,1,2.009-2.344v-5.693c0-1.674,2.009-18.419,2.009-18.419l.192-.146C155.034,351.243,152.757,353.9,152.757,353.9Z" transform="translate(-138.358 -300.317)" fill="#fff" stroke="#263238" stroke-miterlimit="10" stroke-width="1"/>
                </g>
              </g>
              <g id="Grupo_53844" data-name="Grupo 53844" transform="translate(10.862 19.148)">
                <path id="Trazado_100699" data-name="Trazado 100699" d="M214.787,248.419l-15.824,43.7-41.82,41.066L153.754,350.9l3.391,12.433" transform="translate(-151.503 -248.419)" fill="none" stroke="#ffc935" stroke-miterlimit="10" stroke-width="1"/>
                <path id="Trazado_100700" data-name="Trazado 100700" d="M207.528,299.307a2.444,2.444,0,1,0-2.443,2.443A2.444,2.444,0,0,0,207.528,299.307Z" transform="translate(-158.753 -255.604)" fill="#ffc935"/>
                <path id="Trazado_100701" data-name="Trazado 100701" d="M159.753,347.524a2.444,2.444,0,1,0-2.444,2.443A2.444,2.444,0,0,0,159.753,347.524Z" transform="translate(-151.668 -262.755)" fill="#ffc935"/>
                <path id="Trazado_100702" data-name="Trazado 100702" d="M156,368.315a2.444,2.444,0,1,0-2.443,2.443A2.444,2.444,0,0,0,156,368.315Z" transform="translate(-151.111 -265.838)" fill="#ffc935"/>
                <path id="Trazado_100703" data-name="Trazado 100703" d="M159.538,381.586a2.444,2.444,0,1,0-2.444,2.444A2.444,2.444,0,0,0,159.538,381.586Z" transform="translate(-151.636 -267.807)" fill="#ffc935"/>
              </g>
            </g>
            <g id="Grupo_53848" data-name="Grupo 53848" transform="translate(58.938 122.432)">
              <path id="Trazado_100704" data-name="Trazado 100704" d="M215.931,219.752s34.158.669,60.948,11.051,26.455,12.725,25.45,16.743-10.046,6.7-42.194,7.7-42.194-1.674-52.575-15.07" transform="translate(-207.56 -219.752)" fill="#263238" stroke="#263238" stroke-miterlimit="10" stroke-width="1"/>
              <g id="Grupo_53846" data-name="Grupo 53846" transform="translate(21.09 24.11)">
                <path id="Trazado_100705" data-name="Trazado 100705" d="M274.523,254.424,243.38,304.99s-11.386,3.348-11.051,5.357,6.7,21.433,8.037,24.781,4.689,8.037,6.363,5.694.335-6.028,1.339-10.716,5.023-21.433,5.023-21.433,47.887-47.217,50.9-51.235,3.014-6.7-.669-9.377" transform="translate(-232.322 -248.061)" fill="#263238" stroke="#263238" stroke-miterlimit="10" stroke-width="1"/>
                <path id="Trazado_100706" data-name="Trazado 100706" d="M253.277,296.037l-9.9,16.068s-11.386,3.349-11.051,5.358,6.7,21.433,8.037,24.781,4.689,8.037,6.363,5.694.335-6.028,1.339-10.716,5.023-21.433,5.023-21.433,4.361-4.3,10.529-10.409A13.269,13.269,0,0,1,253.277,296.037Z" transform="translate(-232.322 -255.177)" fill="#fff" stroke="#263238" stroke-miterlimit="10" stroke-width="1"/>
                <path id="Trazado_100707" data-name="Trazado 100707" d="M232.33,320.261c.335,2.01,6.7,21.433,8.037,24.781s4.689,8.037,6.363,5.694.335-6.028,1.339-10.716,5.023-21.433,5.023-21.433c-3.013-1-8.037,3.349-8.037,3.349L243.38,314.9S231.994,318.252,232.33,320.261Z" transform="translate(-232.322 -257.975)" fill="#fff" stroke="#263238" stroke-miterlimit="10" stroke-width="1"/>
              </g>
              <g id="Grupo_53847" data-name="Grupo 53847" transform="translate(4.852 7.655)">
                <path id="Trazado_100708" data-name="Trazado 100708" d="M216.569,232.051l76.1,16.954-45.587,56.513-4.144,18.838,1.451,14.091" transform="translate(-213.748 -229.231)" fill="none" stroke="#ffc935" stroke-miterlimit="10" stroke-width="1"/>
                <path id="Trazado_100709" data-name="Trazado 100709" d="M218.145,231.183a2.444,2.444,0,1,0-2.444,2.444A2.444,2.444,0,0,0,218.145,231.183Z" transform="translate(-213.257 -228.74)" fill="#ffc935"/>
                <path id="Trazado_100710" data-name="Trazado 100710" d="M306.617,251.532a2.444,2.444,0,1,0-2.444,2.443A2.444,2.444,0,0,0,306.617,251.532Z" transform="translate(-226.379 -231.758)" fill="#ffc935"/>
                <circle id="Elipse_4063" data-name="Elipse 4063" cx="2.444" cy="2.444" r="2.444" transform="translate(31.647 74.597)" fill="#ffc935"/>
                <circle id="Elipse_4064" data-name="Elipse 4064" cx="2.444" cy="2.444" r="2.444" transform="translate(26.749 92.681)" fill="#ffc935"/>
                <path id="Trazado_100711" data-name="Trazado 100711" d="M251.764,357.041a2.444,2.444,0,1,0-2.443,2.443A2.444,2.444,0,0,0,251.764,357.041Z" transform="translate(-218.243 -247.406)" fill="#ffc935"/>
              </g>
            </g>
            <g id="Grupo_53850" data-name="Grupo 53850" transform="translate(27.443 55.838)">
              <path id="Trazado_100712" data-name="Trazado 100712" d="M247.165,141.583s-45.723,14.288-48.58,16.574c-2.331,1.865-15.5,27.308-20.274,36.622,0,0-7.731,9.673-7.731,12.53s6,4.287,6,4.287a4.288,4.288,0,0,0,3.715,1.714c2.286-.286,6-8.573,5.43-10-.394-.985-.109-4.144.106-6.011C191,190.214,207.444,169.3,207.444,169.3s43.151-8.287,46.293-12.86S256.025,141.012,247.165,141.583Z" transform="translate(-170.58 -141.562)" fill="#fff" stroke="#263238" stroke-miterlimit="10" stroke-width="1"/>
              <g id="Grupo_53849" data-name="Grupo 53849" transform="translate(3.481 4.926)">
                <path id="Trazado_100713" data-name="Trazado 100713" d="M251.482,150.215,202.5,164.908l-18.461,32.024-6.417,15.947" transform="translate(-175.106 -147.771)" fill="none" stroke="#ffc935" stroke-miterlimit="10" stroke-width="1"/>
                <path id="Trazado_100714" data-name="Trazado 100714" d="M266.362,149.789a2.444,2.444,0,1,0-2.444,2.443A2.444,2.444,0,0,0,266.362,149.789Z" transform="translate(-187.542 -147.345)" fill="#ffc935"/>
                <circle id="Elipse_4065" data-name="Elipse 4065" cx="2.444" cy="2.444" r="2.444" transform="translate(24.394 15.447)" fill="#ffc935"/>
                <circle id="Elipse_4066" data-name="Elipse 4066" cx="2.444" cy="2.444" r="2.444" transform="translate(6.494 46.717)" fill="#ffc935"/>
                <circle id="Elipse_4067" data-name="Elipse 4067" cx="2.444" cy="2.444" r="2.444" transform="translate(0 62.302)" fill="#ffc935"/>
              </g>
            </g>
          </g>
        </g>
      </g>
      <g id="Window_2" data-name="Window 2" transform="translate(70.411 36.801)">
        <g id="Grupo_53855" data-name="Grupo 53855">
          <rect id="Rectángulo_5169" data-name="Rectángulo 5169" width="268.59" height="303.91" fill="none" stroke="#263238" stroke-miterlimit="10" stroke-width="1"/>
          <g id="Grupo_53854" data-name="Grupo 53854">
            <rect id="Rectángulo_5170" data-name="Rectángulo 5170" width="268.59" height="13.142" fill="#263238" stroke="#263238" stroke-linecap="round" stroke-linejoin="round" stroke-width="1"/>
            <g id="Grupo_53853" data-name="Grupo 53853" transform="translate(5.532 2.939)">
              <path id="Trazado_100715" data-name="Trazado 100715" d="M91,44.679a2.788,2.788,0,1,1-2.788-2.788A2.789,2.789,0,0,1,91,44.679Z" transform="translate(-85.426 -41.891)" fill="#ddffa7" stroke="#263238" stroke-linecap="round" stroke-linejoin="round" stroke-width="1"/>
              <path id="Trazado_100716" data-name="Trazado 100716" d="M100.922,44.679a2.788,2.788,0,1,1-2.788-2.788A2.788,2.788,0,0,1,100.922,44.679Z" transform="translate(-86.897 -41.891)" fill="#ddffa7" stroke="#263238" stroke-linecap="round" stroke-linejoin="round" stroke-width="1"/>
              <path id="Trazado_100717" data-name="Trazado 100717" d="M110.842,44.679a2.788,2.788,0,1,1-2.788-2.788A2.788,2.788,0,0,1,110.842,44.679Z" transform="translate(-88.369 -41.891)" fill="#ddffa7" stroke="#263238" stroke-linecap="round" stroke-linejoin="round" stroke-width="1"/>
            </g>
          </g>
        </g>
      </g>
      <g id="Windows_1" data-name="Windows 1" transform="translate(26.977 148.585)">
        <g id="Grupo_53857" data-name="Grupo 53857" transform="translate(0 133.941)">
          <rect id="Rectángulo_5171" data-name="Rectángulo 5171" width="81.464" height="112.347" transform="translate(0 2.464)" fill="#ababab" stroke="#263238" stroke-linecap="round" stroke-linejoin="round" stroke-width="1"/>
          <rect id="Rectángulo_5172" data-name="Rectángulo 5172" width="81.464" height="24.224" transform="translate(0 2.464)" fill="gray" stroke="#263238" stroke-linecap="round" stroke-linejoin="round" stroke-width="1"/>
          <path id="Trazado_100718" data-name="Trazado 100718" d="M43.921,345.412A3.612,3.612,0,1,1,40.31,341.8,3.612,3.612,0,0,1,43.921,345.412Z" transform="translate(-29.233 -329.158)" fill="none" stroke="#fff" stroke-linecap="round" stroke-linejoin="round" stroke-width="1"/>
          <line id="Línea_159" data-name="Línea 159" x1="3.612" y2="4.013" transform="translate(4.655 19.064)" fill="none" stroke="#fff" stroke-linecap="round" stroke-linejoin="round" stroke-width="1"/>
          <line id="Línea_160" data-name="Línea 160" x2="79.724" transform="translate(0.418 26.486)" fill="none" stroke="#263238" stroke-linecap="round" stroke-linejoin="round" stroke-width="1"/>
          <rect id="Rectángulo_5173" data-name="Rectángulo 5173" width="81.464" height="9.857" fill="#263238" stroke="#263238" stroke-linecap="round" stroke-linejoin="round" stroke-width="1"/>
          <g id="Grupo_53856" data-name="Grupo 53856" transform="translate(5.885 2.504)">
            <path id="Trazado_100719" data-name="Trazado 100719" d="M40.123,332.535a2.639,2.639,0,1,1-2.639-2.639A2.639,2.639,0,0,1,40.123,332.535Z" transform="translate(-34.844 -329.896)" fill="gray" stroke="#263238" stroke-linecap="round" stroke-linejoin="round" stroke-width="1"/>
            <path id="Trazado_100720" data-name="Trazado 100720" d="M50.453,332.535a2.639,2.639,0,1,1-2.639-2.639A2.639,2.639,0,0,1,50.453,332.535Z" transform="translate(-36.376 -329.896)" fill="gray" stroke="#263238" stroke-linecap="round" stroke-linejoin="round" stroke-width="1"/>
            <path id="Trazado_100721" data-name="Trazado 100721" d="M60.782,332.535a2.639,2.639,0,1,1-2.639-2.639A2.639,2.639,0,0,1,60.782,332.535Z" transform="translate(-37.908 -329.896)" fill="gray" stroke="#263238" stroke-linecap="round" stroke-linejoin="round" stroke-width="1"/>
          </g>
          <line id="Línea_161" data-name="Línea 161" x2="79.724" transform="translate(0.418 43.278)" fill="none" stroke="#263238" stroke-linecap="round" stroke-linejoin="round" stroke-width="1"/>
          <path id="Trazado_100722" data-name="Trazado 100722" d="M42.71,367.785l-7.591-3.076v6.153Z" transform="translate(-28.999 -332.555)" fill="#fff"/>
          <line id="Línea_162" data-name="Línea 162" x2="79.724" transform="translate(0.418 60.069)" fill="none" stroke="#263238" stroke-linecap="round" stroke-linejoin="round" stroke-width="1"/>
          <path id="Trazado_100723" data-name="Trazado 100723" d="M42.71,387.5l-7.591-3.076v6.153Z" transform="translate(-28.999 -335.479)" fill="#fff"/>
          <line id="Línea_163" data-name="Línea 163" x2="79.724" transform="translate(0.418 76.861)" fill="none" stroke="#263238" stroke-linecap="round" stroke-linejoin="round" stroke-width="1"/>
          <path id="Trazado_100724" data-name="Trazado 100724" d="M42.71,407.217,35.12,404.14v6.153Z" transform="translate(-28.999 -338.403)" fill="#fff"/>
          <line id="Línea_164" data-name="Línea 164" x2="79.724" transform="translate(0.418 93.653)" fill="none" stroke="#263238" stroke-linecap="round" stroke-linejoin="round" stroke-width="1"/>
          <path id="Trazado_100725" data-name="Trazado 100725" d="M42.71,426.932l-7.591-3.076v6.153Z" transform="translate(-28.999 -341.328)" fill="#fff"/>
          <line id="Línea_165" data-name="Línea 165" x2="79.724" transform="translate(0.418 110.444)" fill="none" stroke="#263238" stroke-linecap="round" stroke-linejoin="round" stroke-width="1"/>
          <path id="Trazado_100726" data-name="Trazado 100726" d="M42.71,446.648l-7.591-3.076v6.153Z" transform="translate(-28.999 -344.252)" fill="#fff"/>
          <line id="Línea_166" data-name="Línea 166" x2="46.177" transform="translate(22.107 34.882)" fill="none" stroke="#fff" stroke-linecap="round" stroke-linejoin="round" stroke-width="1"/>
          <line id="Línea_167" data-name="Línea 167" x2="46.177" transform="translate(22.107 51.826)" fill="none" stroke="#fff" stroke-linecap="round" stroke-linejoin="round" stroke-width="1"/>
          <line id="Línea_168" data-name="Línea 168" x2="46.177" transform="translate(22.107 68.769)" fill="none" stroke="#fff" stroke-linecap="round" stroke-linejoin="round" stroke-width="1"/>
          <line id="Línea_169" data-name="Línea 169" x2="46.177" transform="translate(22.107 85.956)" fill="none" stroke="#fff" stroke-linecap="round" stroke-linejoin="round" stroke-width="1"/>
          <line id="Línea_170" data-name="Línea 170" x2="46.177" transform="translate(22.107 102.657)" fill="none" stroke="#fff" stroke-linecap="round" stroke-linejoin="round" stroke-width="1"/>
        </g>
        <g id="Grupo_53859" data-name="Grupo 53859" transform="translate(120.3 208.075)">
          <rect id="Rectángulo_5174" data-name="Rectángulo 5174" width="262.319" height="51.953" transform="translate(0.024)" fill="#ababab" stroke="#263238" stroke-linecap="round" stroke-linejoin="round" stroke-width="1"/>
          <g id="Grupo_53858" data-name="Grupo 53858" transform="translate(40.692 0.958)">
            <line id="Línea_171" data-name="Línea 171" y2="2.342" fill="none" stroke="#fff" stroke-linecap="round" stroke-linejoin="round" stroke-width="1"/>
            <line id="Línea_172" data-name="Línea 172" y2="2.342" transform="translate(4.897)" fill="none" stroke="#fff" stroke-linecap="round" stroke-linejoin="round" stroke-width="1"/>
            <line id="Línea_173" data-name="Línea 173" y2="2.342" transform="translate(9.794)" fill="none" stroke="#fff" stroke-linecap="round" stroke-linejoin="round" stroke-width="1"/>
            <line id="Línea_174" data-name="Línea 174" y2="2.342" transform="translate(14.692)" fill="none" stroke="#fff" stroke-linecap="round" stroke-linejoin="round" stroke-width="1"/>
            <line id="Línea_175" data-name="Línea 175" y2="2.342" transform="translate(19.589)" fill="none" stroke="#fff" stroke-linecap="round" stroke-linejoin="round" stroke-width="1"/>
            <line id="Línea_176" data-name="Línea 176" y2="2.342" transform="translate(24.486)" fill="none" stroke="#fff" stroke-linecap="round" stroke-linejoin="round" stroke-width="1"/>
            <line id="Línea_177" data-name="Línea 177" y2="2.342" transform="translate(29.383)" fill="none" stroke="#fff" stroke-linecap="round" stroke-linejoin="round" stroke-width="1"/>
            <line id="Línea_178" data-name="Línea 178" y2="2.342" transform="translate(34.28)" fill="none" stroke="#fff" stroke-linecap="round" stroke-linejoin="round" stroke-width="1"/>
            <line id="Línea_179" data-name="Línea 179" y2="2.342" transform="translate(39.178)" fill="none" stroke="#fff" stroke-linecap="round" stroke-linejoin="round" stroke-width="1"/>
            <line id="Línea_180" data-name="Línea 180" y2="2.342" transform="translate(44.075)" fill="none" stroke="#fff" stroke-linecap="round" stroke-linejoin="round" stroke-width="1"/>
            <line id="Línea_181" data-name="Línea 181" y2="2.342" transform="translate(48.972)" fill="none" stroke="#fff" stroke-linecap="round" stroke-linejoin="round" stroke-width="1"/>
            <line id="Línea_182" data-name="Línea 182" y2="2.342" transform="translate(53.869)" fill="none" stroke="#fff" stroke-linecap="round" stroke-linejoin="round" stroke-width="1"/>
            <line id="Línea_183" data-name="Línea 183" y2="2.342" transform="translate(58.766)" fill="none" stroke="#fff" stroke-linecap="round" stroke-linejoin="round" stroke-width="1"/>
            <line id="Línea_184" data-name="Línea 184" y2="2.342" transform="translate(63.664)" fill="none" stroke="#fff" stroke-linecap="round" stroke-linejoin="round" stroke-width="1"/>
            <line id="Línea_185" data-name="Línea 185" y2="2.342" transform="translate(68.561)" fill="none" stroke="#fff" stroke-linecap="round" stroke-linejoin="round" stroke-width="1"/>
            <line id="Línea_186" data-name="Línea 186" y2="2.342" transform="translate(73.458)" fill="none" stroke="#fff" stroke-linecap="round" stroke-linejoin="round" stroke-width="1"/>
            <line id="Línea_187" data-name="Línea 187" y2="2.342" transform="translate(78.355)" fill="none" stroke="#fff" stroke-linecap="round" stroke-linejoin="round" stroke-width="1"/>
            <line id="Línea_188" data-name="Línea 188" y2="2.342" transform="translate(83.252)" fill="none" stroke="#fff" stroke-linecap="round" stroke-linejoin="round" stroke-width="1"/>
            <line id="Línea_189" data-name="Línea 189" y2="2.342" transform="translate(88.15)" fill="none" stroke="#fff" stroke-linecap="round" stroke-linejoin="round" stroke-width="1"/>
            <line id="Línea_190" data-name="Línea 190" y2="2.342" transform="translate(93.047)" fill="none" stroke="#fff" stroke-linecap="round" stroke-linejoin="round" stroke-width="1"/>
            <line id="Línea_191" data-name="Línea 191" y2="2.342" transform="translate(97.944)" fill="none" stroke="#fff" stroke-linecap="round" stroke-linejoin="round" stroke-width="1"/>
            <line id="Línea_192" data-name="Línea 192" y2="2.342" transform="translate(102.841)" fill="none" stroke="#fff" stroke-linecap="round" stroke-linejoin="round" stroke-width="1"/>
            <line id="Línea_193" data-name="Línea 193" y2="2.342" transform="translate(107.738)" fill="none" stroke="#fff" stroke-linecap="round" stroke-linejoin="round" stroke-width="1"/>
            <line id="Línea_194" data-name="Línea 194" y2="2.342" transform="translate(112.636)" fill="none" stroke="#fff" stroke-linecap="round" stroke-linejoin="round" stroke-width="1"/>
            <line id="Línea_195" data-name="Línea 195" y2="2.342" transform="translate(117.533)" fill="none" stroke="#fff" stroke-linecap="round" stroke-linejoin="round" stroke-width="1"/>
            <line id="Línea_196" data-name="Línea 196" y2="2.342" transform="translate(122.43)" fill="none" stroke="#fff" stroke-linecap="round" stroke-linejoin="round" stroke-width="1"/>
            <line id="Línea_197" data-name="Línea 197" y2="2.342" transform="translate(127.648)" fill="none" stroke="#fff" stroke-linecap="round" stroke-linejoin="round" stroke-width="1"/>
            <line id="Línea_198" data-name="Línea 198" y2="2.342" transform="translate(132.867)" fill="none" stroke="#fff" stroke-linecap="round" stroke-linejoin="round" stroke-width="1"/>
            <line id="Línea_199" data-name="Línea 199" y2="2.342" transform="translate(138.085)" fill="none" stroke="#fff" stroke-linecap="round" stroke-linejoin="round" stroke-width="1"/>
            <line id="Línea_200" data-name="Línea 200" y2="2.342" transform="translate(143.303)" fill="none" stroke="#fff" stroke-linecap="round" stroke-linejoin="round" stroke-width="1"/>
            <line id="Línea_201" data-name="Línea 201" y2="2.342" transform="translate(148.522)" fill="none" stroke="#fff" stroke-linecap="round" stroke-linejoin="round" stroke-width="1"/>
            <line id="Línea_202" data-name="Línea 202" y2="2.342" transform="translate(153.74)" fill="none" stroke="#fff" stroke-linecap="round" stroke-linejoin="round" stroke-width="1"/>
            <line id="Línea_203" data-name="Línea 203" y2="2.342" transform="translate(158.958)" fill="none" stroke="#fff" stroke-linecap="round" stroke-linejoin="round" stroke-width="1"/>
            <line id="Línea_204" data-name="Línea 204" y2="2.342" transform="translate(164.177)" fill="none" stroke="#fff" stroke-linecap="round" stroke-linejoin="round" stroke-width="1"/>
            <line id="Línea_205" data-name="Línea 205" y2="2.342" transform="translate(169.395)" fill="none" stroke="#fff" stroke-linecap="round" stroke-linejoin="round" stroke-width="1"/>
            <line id="Línea_206" data-name="Línea 206" y2="2.342" transform="translate(174.613)" fill="none" stroke="#fff" stroke-linecap="round" stroke-linejoin="round" stroke-width="1"/>
            <line id="Línea_207" data-name="Línea 207" y2="2.342" transform="translate(179.832)" fill="none" stroke="#fff" stroke-linecap="round" stroke-linejoin="round" stroke-width="1"/>
            <line id="Línea_208" data-name="Línea 208" y2="2.342" transform="translate(185.05)" fill="none" stroke="#fff" stroke-linecap="round" stroke-linejoin="round" stroke-width="1"/>
            <line id="Línea_209" data-name="Línea 209" y2="2.342" transform="translate(190.268)" fill="none" stroke="#fff" stroke-linecap="round" stroke-linejoin="round" stroke-width="1"/>
            <line id="Línea_210" data-name="Línea 210" y2="2.342" transform="translate(195.487)" fill="none" stroke="#fff" stroke-linecap="round" stroke-linejoin="round" stroke-width="1"/>
            <line id="Línea_211" data-name="Línea 211" y2="2.342" transform="translate(200.705)" fill="none" stroke="#fff" stroke-linecap="round" stroke-linejoin="round" stroke-width="1"/>
            <line id="Línea_212" data-name="Línea 212" y2="2.342" transform="translate(205.923)" fill="none" stroke="#fff" stroke-linecap="round" stroke-linejoin="round" stroke-width="1"/>
            <line id="Línea_213" data-name="Línea 213" y2="2.342" transform="translate(211.142)" fill="none" stroke="#fff" stroke-linecap="round" stroke-linejoin="round" stroke-width="1"/>
            <line id="Línea_214" data-name="Línea 214" y2="2.342" transform="translate(216.36)" fill="none" stroke="#fff" stroke-linecap="round" stroke-linejoin="round" stroke-width="1"/>
            <line id="Línea_215" data-name="Línea 215" y2="2.342" transform="translate(226.797)" fill="none" stroke="#fff" stroke-linecap="round" stroke-linejoin="round" stroke-width="1"/>
            <line id="Línea_216" data-name="Línea 216" y2="2.342" transform="translate(175.169)" fill="none" stroke="#fff" stroke-linecap="round" stroke-linejoin="round" stroke-width="1"/>
            <line id="Línea_217" data-name="Línea 217" y2="2.342" transform="translate(180.387)" fill="none" stroke="#fff" stroke-linecap="round" stroke-linejoin="round" stroke-width="1"/>
            <line id="Línea_218" data-name="Línea 218" y2="2.342" transform="translate(185.605)" fill="none" stroke="#fff" stroke-linecap="round" stroke-linejoin="round" stroke-width="1"/>
            <line id="Línea_219" data-name="Línea 219" y2="2.342" transform="translate(190.824)" fill="none" stroke="#fff" stroke-linecap="round" stroke-linejoin="round" stroke-width="1"/>
            <line id="Línea_220" data-name="Línea 220" y2="2.342" transform="translate(196.042)" fill="none" stroke="#fff" stroke-linecap="round" stroke-linejoin="round" stroke-width="1"/>
            <line id="Línea_221" data-name="Línea 221" y2="2.342" transform="translate(201.26)" fill="none" stroke="#fff" stroke-linecap="round" stroke-linejoin="round" stroke-width="1"/>
            <line id="Línea_222" data-name="Línea 222" y2="2.342" transform="translate(206.479)" fill="none" stroke="#fff" stroke-linecap="round" stroke-linejoin="round" stroke-width="1"/>
            <line id="Línea_223" data-name="Línea 223" y2="2.342" transform="translate(211.697)" fill="none" stroke="#fff" stroke-linecap="round" stroke-linejoin="round" stroke-width="1"/>
            <line id="Línea_224" data-name="Línea 224" y2="2.342" transform="translate(216.915)" fill="none" stroke="#fff" stroke-linecap="round" stroke-linejoin="round" stroke-width="1"/>
          </g>
          <rect id="Rectángulo_5175" data-name="Rectángulo 5175" width="226.73" height="4.74" transform="translate(35.672 4.996)" fill="#ddffa7"/>
          <rect id="Rectángulo_5176" data-name="Rectángulo 5176" width="137.054" height="4.74" transform="translate(68.521 14.725)" fill="#263238"/>
          <rect id="Rectángulo_5177" data-name="Rectángulo 5177" width="9.657" height="4.74" transform="translate(218.315 14.725)" fill="#263238"/>
          <rect id="Rectángulo_5178" data-name="Rectángulo 5178" width="66.1" height="4.74" transform="translate(35.672 24.579)" fill="#ddffa7"/>
          <rect id="Rectángulo_5179" data-name="Rectángulo 5179" width="66.099" height="4.74" transform="translate(179.224 24.579)" fill="#ddffa7"/>
          <rect id="Rectángulo_5180" data-name="Rectángulo 5180" width="262.319" height="46.957" transform="translate(0.024 4.996)" fill="none" stroke="#263238" stroke-linecap="round" stroke-linejoin="round" stroke-width="1"/>
          <rect id="Rectángulo_5181" data-name="Rectángulo 5181" width="35.648" height="46.957" transform="translate(0.024 4.996)" fill="none" stroke="#263238" stroke-linecap="round" stroke-linejoin="round" stroke-width="1"/>
          <line id="Línea_225" data-name="Línea 225" x2="262.402" transform="translate(0 9.735)" fill="none" stroke="#263238" stroke-linecap="round" stroke-linejoin="round" stroke-width="1"/>
          <line id="Línea_226" data-name="Línea 226" x2="262.402" transform="translate(0 14.725)" fill="none" stroke="#263238" stroke-linecap="round" stroke-linejoin="round" stroke-width="1"/>
          <line id="Línea_227" data-name="Línea 227" x2="262.402" transform="translate(0 19.714)" fill="none" stroke="#263238" stroke-linecap="round" stroke-linejoin="round" stroke-width="1"/>
          <line id="Línea_228" data-name="Línea 228" x2="262.402" transform="translate(0 24.703)" fill="none" stroke="#263238" stroke-linecap="round" stroke-linejoin="round" stroke-width="1"/>
          <line id="Línea_229" data-name="Línea 229" x2="262.402" transform="translate(0 29.692)" fill="none" stroke="#263238" stroke-linecap="round" stroke-linejoin="round" stroke-width="1"/>
          <path id="Trazado_100727" data-name="Trazado 100727" d="M236.993,418.921l-1.289.96-1.205-.96V415.18h2.495Z" transform="translate(-178.87 -414.175)" fill="#fff" stroke="#263238" stroke-linecap="round" stroke-linejoin="round" stroke-width="1"/>
          <path id="Trazado_100728" data-name="Trazado 100728" d="M338.9,418.921l-1.289.96-1.205-.96V415.18H338.9Z" transform="translate(-193.985 -414.175)" fill="#fff" stroke="#263238" stroke-linecap="round" stroke-linejoin="round" stroke-width="1"/>
          <path id="Trazado_100729" data-name="Trazado 100729" d="M440.814,418.921l-1.289.96-1.205-.96V415.18h2.495Z" transform="translate(-209.099 -414.175)" fill="#fff" stroke="#263238" stroke-linecap="round" stroke-linejoin="round" stroke-width="1"/>
          <line id="Línea_230" data-name="Línea 230" y2="24.315" transform="translate(56.834 5.707)" fill="none" stroke="#263238" stroke-linecap="round" stroke-linejoin="round" stroke-width="1"/>
          <rect id="Rectángulo_5182" data-name="Rectángulo 5182" width="9.369" height="2.129" transform="translate(24.084 6.175)" fill="#4a4a4a"/>
          <rect id="Rectángulo_5183" data-name="Rectángulo 5183" width="9.369" height="2.129" transform="translate(24.084 11.072)" fill="#4a4a4a"/>
          <rect id="Rectángulo_5184" data-name="Rectángulo 5184" width="9.369" height="2.129" transform="translate(24.084 15.969)" fill="#4a4a4a"/>
          <rect id="Rectángulo_5185" data-name="Rectángulo 5185" width="9.369" height="2.129" transform="translate(24.084 20.866)" fill="#4a4a4a"/>
          <rect id="Rectángulo_5186" data-name="Rectángulo 5186" width="9.369" height="2.129" transform="translate(24.084 25.764)" fill="#4a4a4a"/>
          <rect id="Rectángulo_5187" data-name="Rectángulo 5187" width="5.749" height="2.129" transform="translate(16.632 6.175)" fill="#4a4a4a"/>
          <rect id="Rectángulo_5188" data-name="Rectángulo 5188" width="5.749" height="2.129" transform="translate(16.632 11.072)" fill="#4a4a4a"/>
          <rect id="Rectángulo_5189" data-name="Rectángulo 5189" width="5.749" height="2.129" transform="translate(16.632 15.969)" fill="#4a4a4a"/>
          <rect id="Rectángulo_5190" data-name="Rectángulo 5190" width="5.749" height="2.129" transform="translate(16.632 20.866)" fill="#4a4a4a"/>
          <rect id="Rectángulo_5191" data-name="Rectángulo 5191" width="5.749" height="2.129" transform="translate(16.632 25.764)" fill="#4a4a4a"/>
        </g>
        <g id="Grupo_53863" data-name="Grupo 53863" transform="translate(277.636)">
          <rect id="Rectángulo_5192" data-name="Rectángulo 5192" width="91.994" height="120.742" transform="translate(0 2.464)" fill="#ababab" stroke="#263238" stroke-linecap="round" stroke-linejoin="round" stroke-width="1"/>
          <rect id="Rectángulo_5193" data-name="Rectángulo 5193" width="91.994" height="9.856" transform="translate(0)" fill="#263238" stroke="#263238" stroke-linecap="round" stroke-linejoin="round" stroke-width="1"/>
          <g id="Grupo_53860" data-name="Grupo 53860" transform="translate(25.67 18.296)">
            <rect id="Rectángulo_5194" data-name="Rectángulo 5194" width="37.571" height="34.616" rx="3.47" fill="none" stroke="#263238" stroke-linecap="round" stroke-linejoin="round" stroke-width="1"/>
            <circle id="Elipse_4068" data-name="Elipse 4068" cx="4.01" cy="4.01" r="4.01" transform="translate(26.173 13.931)" fill="#ddffa7" stroke="#263238" stroke-linecap="round" stroke-linejoin="round" stroke-width="1"/>
          </g>
          <g id="Grupo_53861" data-name="Grupo 53861" transform="translate(20.067 63.421)">
            <line id="Línea_231" data-name="Línea 231" x1="54.879" transform="translate(0 4.01)" fill="none" stroke="#263238" stroke-linecap="round" stroke-linejoin="round" stroke-width="1"/>
            <line id="Línea_232" data-name="Línea 232" x1="54.879" transform="translate(0 16.675)" fill="none" stroke="#263238" stroke-linecap="round" stroke-linejoin="round" stroke-width="1"/>
            <line id="Línea_233" data-name="Línea 233" x1="54.879" transform="translate(0 29.339)" fill="none" stroke="#263238" stroke-linecap="round" stroke-linejoin="round" stroke-width="1"/>
            <line id="Línea_234" data-name="Línea 234" x1="54.879" transform="translate(0 42.004)" fill="none" stroke="#263238" stroke-linecap="round" stroke-linejoin="round" stroke-width="1"/>
            <circle id="Elipse_4069" data-name="Elipse 4069" cx="4.01" cy="4.01" r="4.01" transform="translate(31.872)" fill="#ddffa7" stroke="#263238" stroke-linecap="round" stroke-linejoin="round" stroke-width="1"/>
            <path id="Trazado_100730" data-name="Trazado 100730" d="M400.122,276.915a4.01,4.01,0,1,1-4.011-4.011A4.01,4.01,0,0,1,400.122,276.915Z" transform="translate(-379.648 -248.42)" fill="#ddffa7" stroke="#263238" stroke-linecap="round" stroke-linejoin="round" stroke-width="1"/>
            <circle id="Elipse_4070" data-name="Elipse 4070" cx="4.01" cy="4.01" r="4.01" transform="translate(39.471 37.571)" fill="#ddffa7" stroke="#263238" stroke-linecap="round" stroke-linejoin="round" stroke-width="1"/>
            <path id="Trazado_100734" data-name="Trazado 100734" d="M4.01,0A4.01,4.01,0,1,1,0,4.01,4.01,4.01,0,0,1,4.01,0Z" transform="translate(31.872 12.242)" fill="#ddffa7" stroke="#263238" stroke-linecap="round" stroke-width="1"/>
          </g>
          <g id="Grupo_53862" data-name="Grupo 53862" transform="translate(5.886 2.504)">
            <path id="Trazado_100731" data-name="Trazado 100731" d="M366.107,175.27a2.639,2.639,0,1,1-2.639-2.639A2.639,2.639,0,0,1,366.107,175.27Z" transform="translate(-360.828 -172.631)" fill="gray" stroke="#263238" stroke-linecap="round" stroke-linejoin="round" stroke-width="1"/>
            <path id="Trazado_100732" data-name="Trazado 100732" d="M376.436,175.27a2.639,2.639,0,1,1-2.639-2.639A2.639,2.639,0,0,1,376.436,175.27Z" transform="translate(-362.36 -172.631)" fill="gray" stroke="#263238" stroke-linecap="round" stroke-linejoin="round" stroke-width="1"/>
            <path id="Trazado_100733" data-name="Trazado 100733" d="M386.766,175.27a2.639,2.639,0,1,1-2.639-2.639A2.639,2.639,0,0,1,386.766,175.27Z" transform="translate(-363.892 -172.631)" fill="gray" stroke="#263238" stroke-linecap="round" stroke-linejoin="round" stroke-width="1"/>
          </g>
        </g>
      </g>
    </g>
  </g>
</svg>
