<svg xmlns="http://www.w3.org/2000/svg" xmlns:xlink="http://www.w3.org/1999/xlink" width="215.259" height="189.008" viewBox="0 0 215.259 189.008">
  <defs>
    <clipPath id="clip-path">
      <rect id="Rectángulo_5475" data-name="Rectángulo 5475" width="215.259" height="189.008" transform="translate(231.37 94.896)" fill="#fff" stroke="#707070" stroke-width="1"/>
    </clipPath>
  </defs>
  <g id="Enmascarar_grupo_59" data-name="Enmascarar grupo 59" transform="translate(-231.37 -94.896)" clip-path="url(#clip-path)">
    <g id="adobe-photoshop" transform="translate(248.616 94.896)">
      <g id="Grupo_54467" data-name="Grupo 54467" transform="translate(2.769 2.769)">
        <g id="Grupo_54464" data-name="Grupo 54464" transform="translate(0 0.001)">
          <path id="Trazado_101494" data-name="Trazado 101494" d="M171.479,185.051H11.623a7.686,7.686,0,0,1-7.685-7.685V9.268a7.685,7.685,0,0,1,7.685-7.685H171.479a7.686,7.686,0,0,1,7.685,7.685v168.1A7.686,7.686,0,0,1,171.479,185.051Z" transform="translate(-3.937 -1.582)" fill="#26a6fe"/>
        </g>
        <g id="Grupo_54465" data-name="Grupo 54465" transform="translate(157.814)">
          <path id="Trazado_101495" data-name="Trazado 101495" d="M111.528,9.27V177.365a7.688,7.688,0,0,1-7.688,7.688H94.113a7.685,7.685,0,0,0,7.684-7.688V9.27a7.685,7.685,0,0,0-7.684-7.688h9.727a7.688,7.688,0,0,1,7.688,7.688Z" transform="translate(-94.113 -1.582)" fill="#0593fc"/>
        </g>
        <g id="Grupo_54466" data-name="Grupo 54466" transform="translate(16.039 16.794)">
          <path id="Trazado_101496" data-name="Trazado 101496" d="M148.566,161.06H20.787a7.686,7.686,0,0,1-7.685-7.685V18.864a7.686,7.686,0,0,1,7.685-7.685H148.566a7.686,7.686,0,0,1,7.685,7.685V153.375A7.686,7.686,0,0,1,148.566,161.06Z" transform="translate(-13.102 -11.178)" fill="#0563c1"/>
        </g>
        <path id="Trazado_101497" data-name="Trazado 101497" d="M102.4,18.838V153.448a7.691,7.691,0,0,1-7.691,7.691H84.971a7.691,7.691,0,0,0,7.691-7.691V18.838a7.691,7.691,0,0,0-7.691-7.691h9.737A7.691,7.691,0,0,1,102.4,18.838Z" transform="translate(56.844 5.592)" fill="#055fa8"/>
      </g>
      <g id="Grupo_54480" data-name="Grupo 54480" transform="translate(0 0)">
        <g id="Grupo_54471" data-name="Grupo 54471" transform="translate(98.894 79.576)">
          <g id="Grupo_54470" data-name="Grupo 54470">
            <g id="Grupo_54469" data-name="Grupo 54469">
              <g id="Grupo_54468" data-name="Grupo 54468">
                <path id="Trazado_101498" data-name="Trazado 101498" d="M82.12,103.927a32.268,32.268,0,0,1-16.981-3.941,16.614,16.614,0,0,1-3.032-2.032,8.4,8.4,0,0,1-3.243-6.181,7.336,7.336,0,0,1,2.4-5.476c2.911-2.639,7.24-2.181,10.215.113a12.86,12.86,0,0,0,9.22,2.934c2.126-.163,6.014-.728,6.484-3.356.167-.936-1.524-2.283-4.021-3.2-1.346-.5-2.694-.99-4.031-1.511-5.149-2-10.621-4.377-14.457-8.492-3.762-4.035-4.541-10.459-2.632-15.563A16.181,16.181,0,0,1,69.2,49.294a29.535,29.535,0,0,1,22.01-2.887c4.963,1.271,11.871,5.144,11.514,11.081-.22,3.656-3.012,6.869-6.843,6.637A16.464,16.464,0,0,1,90.057,62.2C86.9,60.712,82.981,60.2,79.8,62.089c-.67.4-2.285,1.244-2.413,2.128a.765.765,0,0,0,.093.555c1.734.754,6.086,2.611,10.731,4.325a21.806,21.806,0,0,1,10.737,7.776,15.584,15.584,0,0,1,2.6,11.68,17.731,17.731,0,0,1-7.963,11.632,24.553,24.553,0,0,1-11.459,3.742Z" transform="translate(-58.864 -45.47)" fill="#26a6fe"/>
              </g>
            </g>
          </g>
        </g>
        <g id="Grupo_54475" data-name="Grupo 54475" transform="translate(110.04 89.059)">
          <g id="Grupo_54474" data-name="Grupo 54474">
            <g id="Grupo_54473" data-name="Grupo 54473">
              <g id="Grupo_54472" data-name="Grupo 54472">
                <path id="Trazado_101499" data-name="Trazado 101499" d="M72.606,60.153a.762.762,0,0,0,.093.552c1.732.755,6.085,2.613,10.73,4.327a21.8,21.8,0,0,1,10.737,7.776,15.59,15.59,0,0,1,2.6,11.681A17.742,17.742,0,0,1,88.8,96.122a24.605,24.605,0,0,1-11.459,3.742c-.474.033-.944.052-1.418.055a24,24,0,0,0,5.937-2.746A18.217,18.217,0,0,0,90.05,85.214c.781-4.371-.263-8.2-3.883-11.033a28.146,28.146,0,0,0-5.87-3.239L71.74,67.078C69.112,65.89,66,63.991,65.366,60.871c-.807-4.016,2.15-6.821,5.633-8.076a24.394,24.394,0,0,1,14.1-.648,47.507,47.507,0,0,0,5.526,1.207c3.057.333,5.689-.355,7.017-2.465a7.18,7.18,0,0,1,.3,2.535c-.218,3.653-3.013,6.869-6.844,6.636a16.547,16.547,0,0,1-5.822-1.924c-3.157-1.488-7.077-2-10.26-.111-.67.4-2.287,1.244-2.413,2.128Z" transform="translate(-65.232 -50.889)" fill="#0593fc"/>
              </g>
            </g>
          </g>
        </g>
        <g id="Grupo_54477" data-name="Grupo 54477" transform="translate(38.002 50.916)">
          <g id="Grupo_54476" data-name="Grupo 54476">
            <path id="Trazado_101500" data-name="Trazado 101500" d="M71.193,37.134a28.115,28.115,0,0,0-19.706-8.04H31.472a7.282,7.282,0,0,0-5.243,2.177,7.188,7.188,0,0,0-2.16,5.226v71.882a7.4,7.4,0,1,0,14.805,0V84.517c4.4-.023,9.726-.048,12.613-.048a28.115,28.115,0,0,0,19.706-8.04,27.225,27.225,0,0,0,0-39.295ZM51.486,69.664c-2.875,0-8.125.024-12.515.047-.023-4.525-.048-9.992-.048-12.93,0-2.482-.014-8.16-.028-12.883h12.59c7.2,0,13.28,5.9,13.28,12.883S58.685,69.664,51.486,69.664Z" transform="translate(-24.069 -29.094)" fill="#26a6fe"/>
          </g>
        </g>
        <g id="Grupo_54478" data-name="Grupo 54478" transform="translate(42.071 50.914)">
          <path id="Trazado_101501" data-name="Trazado 101501" d="M69.451,37.136a28.12,28.12,0,0,0-19.709-8.043H43.079a28.12,28.12,0,0,1,19.709,8.043,23.59,23.59,0,0,1,0,33.7c-5.326,5.182-12.325,6.908-19.709,6.908-2.4,0-6.488.018-10.33.037a2.291,2.291,0,0,0-2.28,2.295V108.38a7.388,7.388,0,0,1-4.075,6.607,7.325,7.325,0,0,0,3.335.8,7.405,7.405,0,0,0,7.4-7.4V84.518c4.4-.026,9.723-.048,12.61-.048a28.12,28.12,0,0,0,19.709-8.043,27.228,27.228,0,0,0,0-39.292Z" transform="translate(-26.394 -29.093)" fill="#0593fc"/>
        </g>
        <g id="Grupo_54479" data-name="Grupo 54479">
          <path id="Trazado_101502" data-name="Trazado 101502" d="M172.666,0H12.809A10.466,10.466,0,0,0,2.355,10.455v168.1a10.466,10.466,0,0,0,10.454,10.455h89.923a2.769,2.769,0,1,0,0-5.539H12.809a4.922,4.922,0,0,1-4.916-4.916V10.455a4.922,4.922,0,0,1,4.916-4.916H172.666a4.922,4.922,0,0,1,4.916,4.916v168.1a4.922,4.922,0,0,1-4.916,4.916H115.655a2.769,2.769,0,0,0,0,5.539h57.01a10.467,10.467,0,0,0,10.455-10.455V10.455A10.466,10.466,0,0,0,172.666,0Z" transform="translate(-2.355 0)" fill="#12263f"/>
          <path id="Trazado_101503" data-name="Trazado 101503" d="M160.207,154.562V20.051A10.466,10.466,0,0,0,149.753,9.6H21.974A10.467,10.467,0,0,0,11.52,20.051V154.562a10.466,10.466,0,0,0,10.455,10.455H149.753A10.466,10.466,0,0,0,160.207,154.562Zm-143.149,0V20.051a4.922,4.922,0,0,1,4.916-4.916H149.752a4.922,4.922,0,0,1,4.916,4.916V154.562a4.922,4.922,0,0,1-4.916,4.916H21.974A4.922,4.922,0,0,1,17.058,154.562Z" transform="translate(4.519 7.198)" fill="#12263f"/>
          <path id="Trazado_101504" data-name="Trazado 101504" d="M74.312,36.336a30.871,30.871,0,0,0-21.639-8.825H32.658A10.172,10.172,0,0,0,22.487,37.683V67.147a2.769,2.769,0,1,0,5.539,0V37.683a4.424,4.424,0,0,1,1.348-3.268,4.5,4.5,0,0,1,3.285-1.365H52.673A25.362,25.362,0,0,1,70.448,40.3a24.456,24.456,0,0,1,0,35.327,25.361,25.361,0,0,1-17.775,7.255c-2.953,0-8.5.026-12.627.048A2.77,2.77,0,0,0,37.292,85.7v23.861a4.633,4.633,0,1,1-9.266,0V80.1a2.769,2.769,0,0,0-5.539,0v29.464a10.172,10.172,0,0,0,20.344,0V88.459c3.584-.018,7.521-.034,9.843-.034A30.871,30.871,0,0,0,74.312,79.6a29.995,29.995,0,0,0,0-43.263Z" transform="translate(12.745 20.635)" fill="#12263f"/>
          <path id="Trazado_101505" data-name="Trazado 101505" d="M31.856,66.521a2.768,2.768,0,0,0,1.948.8h.015c4.079-.022,9.56-.047,12.5-.047,8.7,0,16.049-7.168,16.049-15.652s-7.35-15.652-16.049-15.652H33.728a2.769,2.769,0,0,0-2.769,2.777c.013,4.72.028,10.394.028,12.875,0,2.377.016,6.611.048,12.944a2.769,2.769,0,0,0,.822,1.954ZM46.319,41.509A10.456,10.456,0,0,1,56.829,51.623,10.456,10.456,0,0,1,46.319,61.736c-2.322,0-6.215.016-9.759.033-.023-4.809-.034-8.143-.034-10.147s-.009-6.116-.02-10.114Z" transform="translate(19.1 26.981)" fill="#12263f"/>
          <path id="Trazado_101506" data-name="Trazado 101506" d="M101.892,49.232a23.8,23.8,0,0,0-8.81-4.323A32.389,32.389,0,0,0,68.968,48.1a18.8,18.8,0,0,0-8.337,9.334c-2.393,6.4-1.108,13.8,3.2,18.422C68.1,80.434,74.06,83,79.31,85.039c1.23.479,2.479.939,3.685,1.384l.391.144a10.884,10.884,0,0,1,1.382.616,11.25,11.25,0,0,1-3.1.586A10.051,10.051,0,0,1,74.353,85.4c-4.3-3.317-10.09-3.3-13.766.028a10.073,10.073,0,0,0-3.305,7.554,11.138,11.138,0,0,0,4.205,8.254,19.247,19.247,0,0,0,3.534,2.375,35.536,35.536,0,0,0,16.5,4.33q1,0,1.974-.068A27.422,27.422,0,0,0,96.266,103.7a20.5,20.5,0,0,0,9.188-13.473,18.336,18.336,0,0,0-3.047-13.745,24.5,24.5,0,0,0-12.054-8.8c-2.392-.882-4.714-1.807-6.624-2.593a9.242,9.242,0,0,1,6.337.8l.16.075A18.264,18.264,0,0,0,96.9,68.074a8.818,8.818,0,0,0,6.923-2.688,10.216,10.216,0,0,0,2.852-6.547c.214-3.572-1.439-6.894-4.782-9.607Zm-.747,9.274a4.745,4.745,0,0,1-1.283,3.006,3.32,3.32,0,0,1-2.628,1.032,13.965,13.965,0,0,1-4.649-1.591l-.162-.076c-4.54-2.137-9.224-2.132-12.85.012L79.382,61c-1.214.7-3.246,1.876-3.553,4.005a3.493,3.493,0,0,0,.528,2.484,2.772,2.772,0,0,0,1.2,1.005c1.7.737,6.149,2.639,10.877,4.383a19.108,19.108,0,0,1,9.419,6.756A12.833,12.833,0,0,1,100,89.251a14.949,14.949,0,0,1-6.737,9.792,21.8,21.8,0,0,1-10.149,3.307,29.649,29.649,0,0,1-15.485-3.621A13.847,13.847,0,0,1,65.1,97.041a5.8,5.8,0,0,1-2.28-4.108,4.592,4.592,0,0,1,1.486-3.4,4.239,4.239,0,0,1,2.909-1.081,6.328,6.328,0,0,1,3.756,1.335,15.613,15.613,0,0,0,11.124,3.5c6.7-.514,8.59-3.346,9-5.631.442-2.477-1.668-4.769-5.789-6.289l-.392-.144c-1.184-.436-2.409-.888-3.593-1.349-4.68-1.82-9.963-4.075-13.436-7.8-2.864-3.072-3.712-8.3-2.063-12.7A13.647,13.647,0,0,1,71.8,52.86a26.735,26.735,0,0,1,19.908-2.585c3.782.968,9.689,4.059,9.438,8.231Z" transform="translate(38.844 32.921)" fill="#12263f"/>
        </g>
      </g>
    </g>
  </g>
</svg>
