<svg xmlns="http://www.w3.org/2000/svg" xmlns:xlink="http://www.w3.org/1999/xlink" width="216" height="189.659" viewBox="0 0 216 189.659">
  <defs>
    <clipPath id="clip-path">
      <rect id="Rectángulo_5478" data-name="Rectángulo 5478" width="216" height="189.659" transform="translate(229.37 511.896)" fill="#fff" stroke="#707070" stroke-width="1"/>
    </clipPath>
  </defs>
  <g id="Enmascarar_grupo_61" data-name="Enmascarar grupo 61" transform="translate(-229.37 -511.896)" clip-path="url(#clip-path)">
    <g id="capas" transform="translate(242.54 511.896)">
      <g id="Grupo_54482" data-name="Grupo 54482" transform="translate(2.778 2.778)">
        <g id="Grupo_54481" data-name="Grupo 54481">
          <path id="Trazado_101514" data-name="Trazado 101514" d="M81.106,116.269l-3.854-.883L16.9,84.158a1.852,1.852,0,0,1,0-3.29L81.106,47.645a3.7,3.7,0,0,1,3.4,0l60.5,33.223a1.852,1.852,0,0,1,0,3.29l-60.5,32.112a3.7,3.7,0,0,1-3.4,0Z" transform="translate(9.243 32.933)" fill="#fee97d"/>
          <path id="Trazado_101515" data-name="Trazado 101515" d="M122.3,80.868,58.095,47.645a3.7,3.7,0,0,0-3.4,0l-3.854,1.994,60.352,31.228a1.852,1.852,0,0,1,0,3.29L50.836,115.386l3.854,1.994a3.7,3.7,0,0,0,3.4,0L122.3,84.158a1.852,1.852,0,0,0,0-3.29Z" transform="translate(35.659 32.933)" fill="#fedf30"/>
          <path id="Trazado_101516" data-name="Trazado 101516" d="M108.539,19.414H98.116a1.852,1.852,0,0,1-1.852-1.852V3.434a1.852,1.852,0,0,1,1.852-1.852h10.423a1.852,1.852,0,0,1,1.852,1.852V17.562A1.852,1.852,0,0,1,108.539,19.414Z" transform="translate(70.007 -1.582)" fill="#fee97d"/>
          <path id="Trazado_101517" data-name="Trazado 101517" d="M108.394,1.582h-7.038a1.852,1.852,0,0,1,1.852,1.852V17.562a1.852,1.852,0,0,1-1.852,1.852h7.038a1.852,1.852,0,0,0,1.852-1.852V3.434A1.852,1.852,0,0,0,108.394,1.582Z" transform="translate(73.856 -1.582)" fill="#fedf30"/>
          <path id="Trazado_101518" data-name="Trazado 101518" d="M13.857,19.414H3.434a1.852,1.852,0,0,1-1.852-1.852V3.434A1.852,1.852,0,0,1,3.434,1.582H13.857a1.852,1.852,0,0,1,1.852,1.852V17.562A1.852,1.852,0,0,1,13.857,19.414Z" transform="translate(-1.582 -1.582)" fill="#fee97d"/>
          <path id="Trazado_101519" data-name="Trazado 101519" d="M13.712,1.582H6.674A1.852,1.852,0,0,1,8.526,3.434V17.562a1.852,1.852,0,0,1-1.852,1.852h7.038a1.852,1.852,0,0,0,1.852-1.852V3.434A1.852,1.852,0,0,0,13.712,1.582Z" transform="translate(2.268 -1.582)" fill="#fedf30"/>
          <path id="Trazado_101520" data-name="Trazado 101520" d="M108.539,114.1H98.116a1.852,1.852,0,0,1-1.852-1.852V98.116a1.852,1.852,0,0,1,1.852-1.852h10.423a1.852,1.852,0,0,1,1.852,1.852v14.127A1.852,1.852,0,0,1,108.539,114.1Z" transform="translate(70.007 70.007)" fill="#fee97d"/>
          <path id="Trazado_101521" data-name="Trazado 101521" d="M108.394,96.264h-7.038a1.852,1.852,0,0,1,1.852,1.852v14.127a1.852,1.852,0,0,1-1.852,1.852h7.038a1.852,1.852,0,0,0,1.852-1.852V98.116A1.852,1.852,0,0,0,108.394,96.264Z" transform="translate(73.856 70.007)" fill="#fedf30"/>
          <path id="Trazado_101522" data-name="Trazado 101522" d="M13.857,114.1H3.434a1.852,1.852,0,0,1-1.852-1.852V98.116a1.852,1.852,0,0,1,1.852-1.852H13.857a1.852,1.852,0,0,1,1.852,1.852v14.127A1.852,1.852,0,0,1,13.857,114.1Z" transform="translate(-1.582 70.007)" fill="#fee97d"/>
          <path id="Trazado_101523" data-name="Trazado 101523" d="M13.712,96.264H6.674a1.852,1.852,0,0,1,1.852,1.852v14.127A1.852,1.852,0,0,1,6.674,114.1h7.038a1.852,1.852,0,0,0,1.852-1.852V98.116A1.852,1.852,0,0,0,13.712,96.264Z" transform="translate(2.268 70.007)" fill="#fedf30"/>
          <path id="Trazado_101524" data-name="Trazado 101524" d="M81.106,103.318l-3.854-1.254L16.9,70.836a1.852,1.852,0,0,1,0-3.29L81.106,34.323a3.7,3.7,0,0,1,3.4,0l60.5,33.223a1.852,1.852,0,0,1,0,3.29l-60.5,32.482a3.7,3.7,0,0,1-3.4,0Z" transform="translate(9.243 22.86)" fill="#6cf5c2"/>
          <path id="Trazado_101525" data-name="Trazado 101525" d="M122.3,67.546,58.095,34.323a3.7,3.7,0,0,0-3.4,0l-3.854,1.994,60.352,31.228a1.852,1.852,0,0,1,0,3.29L50.836,102.064l3.854,1.994a3.7,3.7,0,0,0,3.4,0L122.3,70.836a1.852,1.852,0,0,0,0-3.29Z" transform="translate(35.659 22.86)" fill="#05e39c"/>
          <path id="Trazado_101526" data-name="Trazado 101526" d="M81.106,90.207l-3.854-1.624L16.9,57.355a1.852,1.852,0,0,1,0-3.29L77.252,22.836l3.854-1.624a3.7,3.7,0,0,1,3.4,0l60.5,32.852a1.852,1.852,0,0,1,0,3.29L84.51,90.207a3.7,3.7,0,0,1-3.4,0Z" transform="translate(9.243 12.947)" fill="#e592b8"/>
          <path id="Trazado_101527" data-name="Trazado 101527" d="M122.3,54.224,58.095,21a3.7,3.7,0,0,0-3.4,0L50.836,23l60.352,31.228a1.852,1.852,0,0,1,0,3.29L50.836,88.743l3.854,1.994a3.7,3.7,0,0,0,3.4,0L122.3,57.514a1.852,1.852,0,0,0,0-3.29Z" transform="translate(35.659 12.787)" fill="#e175a5"/>
        </g>
      </g>
      <g id="Grupo_54483" data-name="Grupo 54483">
        <path id="Trazado_101528" data-name="Trazado 101528" d="M185.028,0H170.9a4.636,4.636,0,0,0-4.63,4.63V8.916H23.388V4.63A4.635,4.635,0,0,0,18.758,0H4.63A4.635,4.635,0,0,0,0,4.63V18.758a4.635,4.635,0,0,0,4.63,4.63H8.916V68.938a2.778,2.778,0,1,0,5.556,0V23.388h4.285a4.635,4.635,0,0,0,4.63-4.63V14.472H166.27v4.285a4.636,4.636,0,0,0,4.63,4.63h4.285V135.682a2.778,2.778,0,0,0,5.556,0V23.388h4.286a4.635,4.635,0,0,0,4.63-4.63V4.63A4.635,4.635,0,0,0,185.028,0ZM17.832,17.832H5.556V5.556H17.832Zm166.271,0H171.827V5.556H184.1Z" fill="#12263f"/>
        <path id="Trazado_101529" data-name="Trazado 101529" d="M185.028,132.572h-4.285v-18.48a2.778,2.778,0,0,0-5.556,0v18.48H170.9a4.636,4.636,0,0,0-4.63,4.63v4.285H23.388V137.2a4.636,4.636,0,0,0-4.63-4.63H14.472V47.347a2.778,2.778,0,1,0-5.556,0v85.225H4.63A4.636,4.636,0,0,0,0,137.2V151.33a4.635,4.635,0,0,0,4.63,4.63H18.758a4.635,4.635,0,0,0,4.63-4.63v-4.285H166.27v4.285a4.636,4.636,0,0,0,4.63,4.63h14.128a4.635,4.635,0,0,0,4.63-4.63V137.2A4.636,4.636,0,0,0,185.028,132.572ZM17.832,150.4H5.556V138.128H17.832Zm166.271,0H171.827V138.128H184.1Z" transform="translate(0 33.698)" fill="#12263f"/>
        <path id="Trazado_101530" data-name="Trazado 101530" d="M14.317,103.853a4.615,4.615,0,0,0,2.5,4.112L42.211,121.1a2.778,2.778,0,0,0,2.553-4.935l-23.8-12.316,16.56-8.569,43.5,22.51a6.492,6.492,0,0,0,5.958,0l43.5-22.51,16.56,8.569-62.616,32.4a.93.93,0,0,1-.851,0L55.521,121.736a2.778,2.778,0,0,0-2.554,4.935l28.058,14.518a6.492,6.492,0,0,0,5.958,0l64.206-33.223a4.63,4.63,0,0,0,0-8.225l-14.658-7.585,14.659-7.585a4.63,4.63,0,0,0,0-8.225l-14.658-7.584,14.659-7.585a4.63,4.63,0,0,0,0-8.225L86.983,19.729a6.5,6.5,0,0,0-5.958,0L16.82,52.952a4.631,4.631,0,0,0,0,8.225l14.658,7.585L16.82,76.347a4.631,4.631,0,0,0,0,8.225l14.658,7.585L16.82,99.742a4.613,4.613,0,0,0-2.5,4.112ZM83.579,24.664a.931.931,0,0,1,.852,0l62.616,32.4L84.43,89.465a.93.93,0,0,1-.851,0l-62.616-32.4ZM37.523,71.89l43.5,22.51h0a6.492,6.492,0,0,0,5.958,0l43.5-22.51,16.56,8.569L84.43,112.86a.93.93,0,0,1-.851,0l-62.616-32.4Z" transform="translate(10.825 14.37)" fill="#12263f"/>
      </g>
    </g>
  </g>
</svg>
