<svg xmlns="http://www.w3.org/2000/svg" xmlns:xlink="http://www.w3.org/1999/xlink" width="216" height="216" viewBox="0 0 216 216">
  <defs>
    <clipPath id="clip-path">
      <rect id="Rectángulo_5255" data-name="Rectángulo 5255" width="216" height="216" transform="translate(265 4440.629)" fill="#fff" stroke="#707070" stroke-width="1"/>
    </clipPath>
  </defs>
  <g id="Enmascarar_grupo_47" data-name="Enmascarar grupo 47" transform="translate(-265 -4440.629)" clip-path="url(#clip-path)">
    <g id="adobe" transform="translate(286.519 4441)">
      <path id="Trazado_101205" data-name="Trazado 101205" d="M180.164,29.422V208.514a2.105,2.105,0,0,1-2.1,2.1H16.41a2.105,2.105,0,0,1-2.1-2.1V3.935a2.105,2.105,0,0,1,2.1-2.1H153.329Z" transform="translate(-11.147 1.327)" fill="#e6eaee"/>
      <path id="Trazado_101206" data-name="Trazado 101206" d="M128.013,29.423V208.515a2.105,2.105,0,0,1-2.1,2.1H110.969a2.106,2.106,0,0,0,2.1-2.1V30.278a2.1,2.1,0,0,0-.6-1.467L86.234,1.83h14.944Z" transform="translate(41.004 1.327)" fill="#cdd3d9"/>
      <path id="Trazado_101207" data-name="Trazado 101207" d="M121.732,29.422,94.9,1.83V27.317a2.105,2.105,0,0,0,2.1,2.1Z" transform="translate(47.284 1.327)" fill="#5c6d7d"/>
      <path id="Trazado_101208" data-name="Trazado 101208" d="M178.477,143.512H16.41a2.105,2.105,0,0,1-2.1-2.1v-46.3H180.582v46.3A2.105,2.105,0,0,1,178.477,143.512Z" transform="translate(-11.147 68.96)" fill="#ffc935"/>
      <path id="Trazado_101209" data-name="Trazado 101209" d="M114.972,143.512H101.887V95.465l15.2-.353V141.4A2.11,2.11,0,0,1,114.972,143.512Z" transform="translate(52.353 68.96)" fill="#f7b657"/>
      <path id="Trazado_101210" data-name="Trazado 101210" d="M185.062,30.735c0-.035,0-.069-.005-.1a3.116,3.116,0,0,0-.041-.361c0-.015,0-.03-.007-.045a3.119,3.119,0,0,0-.1-.387c-.011-.032-.022-.063-.033-.1a3.154,3.154,0,0,0-.145-.341c-.006-.012-.011-.025-.017-.037a3.17,3.17,0,0,0-.212-.346q-.029-.042-.059-.082a3.18,3.18,0,0,0-.268-.32L157.269.956a3.116,3.116,0,0,0-.317-.28l-.085-.064a3.2,3.2,0,0,0-.339-.219l-.011-.007a3.189,3.189,0,0,0-.373-.169l-.1-.037a3.129,3.129,0,0,0-.36-.1l-.037-.01a3.2,3.2,0,0,0-.4-.054c-.037,0-.073,0-.11-.005S155.049,0,155.006,0h-95.2a3.157,3.157,0,1,0,0,6.314h92.043v24.5a3.156,3.156,0,0,0,3.157,3.157h23.746v126.94H72.817a3.157,3.157,0,1,0,0,6.314H178.752v42.086H18.789V167.228H50a3.157,3.157,0,0,0,0-6.314H18.789V6.314H37.376a3.157,3.157,0,1,0,0-6.314H17.742a5.273,5.273,0,0,0-5.267,5.267V210.362a5.273,5.273,0,0,0,5.267,5.267H179.8a5.273,5.273,0,0,0,5.267-5.267V30.818C185.066,30.79,185.063,30.763,185.062,30.735Zm-26.9-19.8,16.271,16.73H158.163Z" transform="translate(-12.474)" fill="#12263f"/>
      <path id="Trazado_101211" data-name="Trazado 101211" d="M69.409,61.323H60.755a2.105,2.105,0,0,1-2.1-2.1V50.565a2.105,2.105,0,0,1,2.1-2.1h8.654a2.105,2.105,0,0,1,2.1,2.1v8.654A2.105,2.105,0,0,1,69.409,61.323Z" transform="translate(21.005 35.135)" fill="#ddffa7"/>
      <path id="Trazado_101212" data-name="Trazado 101212" d="M68.2,49.82V59.965a1.359,1.359,0,0,1-1.359,1.359H63.218a1.359,1.359,0,0,0,1.359-1.359V49.82a1.357,1.357,0,0,0-1.359-1.359h3.626A1.357,1.357,0,0,1,68.2,49.82Z" transform="translate(24.317 35.136)" fill="#1ac4ae"/>
      <circle id="Elipse_4072" data-name="Elipse 4072" cx="6.04" cy="6.04" r="6.04" transform="translate(39.768 83.988)" fill="#ddffa7"/>
      <path id="Trazado_101213" data-name="Trazado 101213" d="M45.832,54.727a6.044,6.044,0,0,1-7.854,5.761,6.039,6.039,0,0,0,0-11.523,6.044,6.044,0,0,1,7.854,5.761Z" transform="translate(6.017 35.3)" fill="#1ac4ae"/>
      <circle id="Elipse_4073" data-name="Elipse 4073" cx="6.04" cy="6.04" r="6.04" transform="translate(118.334 83.988)" fill="#ddffa7"/>
      <path id="Trazado_101214" data-name="Trazado 101214" d="M91.377,54.727a6.044,6.044,0,0,1-7.854,5.761,6.039,6.039,0,0,0,0-11.523,6.044,6.044,0,0,1,7.854,5.761Z" transform="translate(39.038 35.3)" fill="#1ac4ae"/>
      <circle id="Elipse_4074" data-name="Elipse 4074" cx="6.04" cy="6.04" r="6.04" transform="translate(120.745 36.691)" fill="#ddffa7"/>
      <path id="Trazado_101215" data-name="Trazado 101215" d="M92.773,27.31a6.044,6.044,0,0,1-7.854,5.761,6.039,6.039,0,0,0,0-11.523,6.044,6.044,0,0,1,7.854,5.761Z" transform="translate(40.05 15.422)" fill="#1ac4ae"/>
      <circle id="Elipse_4075" data-name="Elipse 4075" cx="6.04" cy="6.04" r="6.04" transform="translate(39.852 131.736)" fill="#ddffa7"/>
      <path id="Trazado_101216" data-name="Trazado 101216" d="M45.881,82.406a6.044,6.044,0,0,0-7.854-5.761,6.039,6.039,0,0,1,0,11.523,6.044,6.044,0,0,0,7.854-5.761Z" transform="translate(6.052 55.369)" fill="#1ac4ae"/>
      <path id="Trazado_101217" data-name="Trazado 101217" d="M121.461,66.736a9.212,9.212,0,0,0-8.639,6.04H92.8v-1.17a5.264,5.264,0,0,0-5.094-5.253A49.382,49.382,0,0,1,92.4,54.558a44.5,44.5,0,0,1,24.038-20.505A9.193,9.193,0,1,0,114.7,27.96,51.431,51.431,0,0,0,86.753,51.73a55.092,55.092,0,0,0-5.532,14.614H78.888a5.267,5.267,0,0,0-5.262,5.262v1.17H51.533a9.2,9.2,0,1,0,0,6.314H73.626v1.17a5.267,5.267,0,0,0,5.262,5.262h.36a49.309,49.309,0,0,1-4.8,12.237,44.5,44.5,0,0,1-24.038,20.507,9.193,9.193,0,1,0,1.74,6.1A51.418,51.418,0,0,0,80.1,100.586a54.85,54.85,0,0,0,5.627-15.066h1.819A5.267,5.267,0,0,0,92.8,80.259v-1.17h20.018a9.2,9.2,0,1,0,8.639-12.353Zm2.409-40.982a2.883,2.883,0,1,1-2.883,2.883A2.887,2.887,0,0,1,123.87,25.754ZM42.895,78.815a2.883,2.883,0,1,1,2.883-2.883A2.887,2.887,0,0,1,42.895,78.815Zm.084,47.747a2.883,2.883,0,1,1,2.883-2.883A2.886,2.886,0,0,1,42.979,126.562ZM86.49,79.207H79.941V72.657H86.49Zm34.971-.392a2.883,2.883,0,1,1,2.883-2.883A2.887,2.887,0,0,1,121.461,78.815Z" transform="translate(2.913 14.095)" fill="#12263f"/>
      <path id="Trazado_101218" data-name="Trazado 101218" d="M74.338,101.246a3.11,3.11,0,0,1,.11-.547L85.01,66.277c.492-1.641,2.517-2.408,4.543-2.408,2.079,0,4.1.766,4.6,2.408L104.712,100.7a2.434,2.434,0,0,1,.109.547c0,1.7-2.572,2.956-4.487,2.956-1.2,0-2.134-.383-2.408-1.423L95.846,95.5H83.314l-2.08,7.279c-.274,1.04-1.2,1.423-2.408,1.423C76.91,104.2,74.338,103,74.338,101.246ZM94.313,89.918l-4.762-16.8-4.762,16.8Z" transform="translate(32.379 46.308)" fill="#12263f"/>
      <path id="Trazado_101219" data-name="Trazado 101219" d="M101.374,68.269a3.883,3.883,0,1,1-3.831-3.448A3.709,3.709,0,0,1,101.374,68.269ZM101.1,79.706v21.562c0,1.095-1.587,2.243-3.557,2.243-2.025,0-3.5-1.149-3.5-2.243V79.706c0-1.313,1.477-2.189,3.5-2.189C99.513,77.518,101.1,78.393,101.1,79.706Z" transform="translate(46.386 46.998)" fill="#12263f"/>
    </g>
  </g>
</svg>
