<svg xmlns="http://www.w3.org/2000/svg" xmlns:xlink="http://www.w3.org/1999/xlink" width="216" height="216" viewBox="0 0 216 216">
  <defs>
    <clipPath id="clip-path">
      <rect id="Rectángulo_5264" data-name="Rectángulo 5264" width="216" height="216" transform="translate(265 4921)" fill="#fff" stroke="#707070" stroke-width="1"/>
    </clipPath>
  </defs>
  <g id="Enmascarar_grupo_48" data-name="Enmascarar grupo 48" transform="translate(-265 -4921)" clip-path="url(#clip-path)">
    <g id="pluma" transform="translate(265 4921.002)">
      <path id="Trazado_101220" data-name="Trazado 101220" d="M122.537,29.014,52.97,52.341,2.441,190.865l138.523-50.528L164.293,70.77Zm0,0" transform="translate(1.777 20.911)" fill="#b0e7f8"/>
      <path id="Trazado_101221" data-name="Trazado 101221" d="M67.916,39.386l59.529,59.529a9.048,9.048,0,0,0,12.8,0L161.62,77.537a9.051,9.051,0,0,0,0-12.8L102.091,5.21a9.048,9.048,0,0,0-12.8,0L67.916,26.587a9.048,9.048,0,0,0,0,12.8Zm0,0" transform="translate(47.512 1.652)" fill="#ddffa7"/>
      <path id="Trazado_101222" data-name="Trazado 101222" d="M73.68,74.942A12.755,12.755,0,1,1,60.925,62.187,12.755,12.755,0,0,1,73.68,74.942Zm0,0" transform="translate(35.067 45.061)" fill="#8690a6"/>
      <path id="Trazado_101223" data-name="Trazado 101223" d="M212.116,63.531,152.585,4a13.281,13.281,0,0,0-18.762,0L112.445,25.379a13.283,13.283,0,0,0,0,18.764l4.07,4.07L53.407,69.376a4.211,4.211,0,0,0-2.622,2.553L.256,210.454a4.218,4.218,0,0,0,5.409,5.409l63.555-23.184a4.218,4.218,0,1,0-2.891-7.925L20.677,201.4l66.672-66.67a16.974,16.974,0,1,0-5.966-5.966L14.711,195.441,58.013,76.73l65.165-21.852L161.24,92.939,139.388,158.1,98.112,173.16A4.218,4.218,0,1,0,101,181.085l43.185-15.753a4.219,4.219,0,0,0,2.554-2.62L167.9,99.6l4.07,4.07a13.268,13.268,0,0,0,18.764,0l21.377-21.377a13.27,13.27,0,0,0,0-18.764ZM89.955,114.089a8.537,8.537,0,1,1,0,12.073A8.506,8.506,0,0,1,89.955,114.089ZM206.15,76.329l-7.722,7.722a4.2,4.2,0,0,0-.295-.328L163.309,48.9a4.218,4.218,0,1,0-5.966,5.966l34.823,34.825c.105.1.216.2.328.293l-7.722,7.724a4.832,4.832,0,0,1-6.832,0L118.409,38.177a4.837,4.837,0,0,1,0-6.832L139.788,9.967a4.835,4.835,0,0,1,6.832,0L206.15,69.5a4.834,4.834,0,0,1,0,6.832Zm0,0" transform="translate(0 -0.122)" fill="#12263f"/>
      <path id="Trazado_101224" data-name="Trazado 101224" d="M87.653,20.732a4.209,4.209,0,1,0,2.986,1.233A4.245,4.245,0,0,0,87.653,20.732Zm0,0" transform="translate(60.741 14.882)" fill="#12263f"/>
      <path id="Trazado_101225" data-name="Trazado 101225" d="M50.213,103.448a4.22,4.22,0,1,0,2.981,1.236A4.252,4.252,0,0,0,50.213,103.448Zm0,0" transform="translate(33.484 75.099)" fill="#12263f"/>
    </g>
  </g>
</svg>
