<svg xmlns="http://www.w3.org/2000/svg" xmlns:xlink="http://www.w3.org/1999/xlink" width="216" height="190" viewBox="0 0 216 190">
  <defs>
    <clipPath id="clip-path">
      <rect id="Rectángulo_6210" data-name="Rectángulo 6210" width="216" height="190" transform="translate(1235.37 711.555)" fill="#fff" stroke="#707070" stroke-width="1"/>
    </clipPath>
  </defs>
  <g id="Enmascarar_grupo_68" data-name="Enmascarar grupo 68" transform="translate(-1235.37 -711.555)" clip-path="url(#clip-path)">
    <g id="transformar" transform="translate(1248.596 711.896)">
      <path id="Trazado_105032" data-name="Trazado 105032" d="M13.033,1.629H3.146A1.546,1.546,0,0,0,1.605,3.17v9.888A1.546,1.546,0,0,0,3.146,14.6h9.888a1.546,1.546,0,0,0,1.541-1.541V3.17A1.546,1.546,0,0,0,13.033,1.629Z" transform="translate(1.158 1.232)" fill="#ff5050"/>
      <path id="Trazado_105033" data-name="Trazado 105033" d="M9.01,13.058V3.17a1.546,1.546,0,0,1,1.541-1.541h-7.4A1.546,1.546,0,0,0,1.605,3.17v9.888A1.546,1.546,0,0,0,3.146,14.6h7.4A1.546,1.546,0,0,1,9.01,13.058Z" transform="translate(1.158 1.232)" fill="#ed3a3a"/>
      <path id="Trazado_105034" data-name="Trazado 105034" d="M143.632,85.292l-86.2-28.734a.757.757,0,0,0-.957.957l28.734,86.2a.756.756,0,0,0,1.391.1l19.157-37.65a.757.757,0,0,1,.331-.331l37.65-19.157A.756.756,0,0,0,143.632,85.292Z" transform="translate(42.612 42.733)" fill="#ffc850"/>
      <path id="Trazado_105035" data-name="Trazado 105035" d="M65.538,59.261l-8.11-2.7a.757.757,0,0,0-.957.957l28.734,86.2a.756.756,0,0,0,1.391.1L90.9,135.36Z" transform="translate(42.612 42.733)" fill="#f9b428"/>
      <path id="Trazado_105036" data-name="Trazado 105036" d="M56.472,57.419l28.734,86.2a.756.756,0,0,0,1.392.1l19.157-37.65a.753.753,0,0,1,.139-.192L56.654,56.645A.747.747,0,0,0,56.472,57.419Z" transform="translate(42.613 42.829)" fill="#fc932b"/>
      <path id="Trazado_105037" data-name="Trazado 105037" d="M56.44,57.1a.737.737,0,0,0,.029.317L80.783,130.36,85.2,143.622a.763.763,0,0,0,1.392.1l4.306-8.463L68.717,68.71,56.652,56.645A.753.753,0,0,0,56.44,57.1Z" transform="translate(42.615 42.829)" fill="#e87b18"/>
      <path id="Trazado_105038" data-name="Trazado 105038" d="M61.089,1.629H51.2A1.546,1.546,0,0,0,49.66,3.17v9.888A1.546,1.546,0,0,0,51.2,14.6h9.888a1.546,1.546,0,0,0,1.541-1.541V3.17A1.546,1.546,0,0,0,61.089,1.629Z" transform="translate(37.493 1.232)" fill="#ff5050"/>
      <path id="Trazado_105039" data-name="Trazado 105039" d="M57.066,13.058V3.17a1.546,1.546,0,0,1,1.541-1.541H51.2A1.546,1.546,0,0,0,49.661,3.17v9.888A1.546,1.546,0,0,0,51.2,14.6h7.4A1.546,1.546,0,0,1,57.066,13.058Z" transform="translate(37.493 1.232)" fill="#ed3a3a"/>
      <path id="Trazado_105040" data-name="Trazado 105040" d="M13.033,49.685H3.146a1.546,1.546,0,0,0-1.541,1.541v9.888a1.546,1.546,0,0,0,1.541,1.541h9.888a1.546,1.546,0,0,0,1.541-1.541V51.226A1.546,1.546,0,0,0,13.033,49.685Z" transform="translate(1.158 37.567)" fill="#ff5050"/>
      <path id="Trazado_105041" data-name="Trazado 105041" d="M9.01,61.114V51.226a1.546,1.546,0,0,1,1.541-1.541h-7.4a1.546,1.546,0,0,0-1.541,1.541v9.888a1.546,1.546,0,0,0,1.541,1.541h7.4A1.546,1.546,0,0,1,9.01,61.114Z" transform="translate(1.158 37.567)" fill="#ed3a3a"/>
      <path id="Trazado_105042" data-name="Trazado 105042" d="M61.089,49.685H51.2a1.546,1.546,0,0,0-1.541,1.541v9.888A1.546,1.546,0,0,0,51.2,62.655h9.888a1.546,1.546,0,0,0,1.541-1.541V51.226A1.546,1.546,0,0,0,61.089,49.685Z" transform="translate(37.493 37.567)" fill="#ff5050"/>
      <path id="Trazado_105043" data-name="Trazado 105043" d="M57.066,61.114V51.226a1.546,1.546,0,0,1,1.541-1.541H51.2a1.546,1.546,0,0,0-1.541,1.541v9.888A1.546,1.546,0,0,0,51.2,62.655h7.4A1.545,1.545,0,0,1,57.066,61.114Z" transform="translate(37.493 37.567)" fill="#ed3a3a"/>
      <path id="Trazado_105044" data-name="Trazado 105044" d="M52.405,18.523h9.888a4.322,4.322,0,0,0,4.317-4.318V4.318A4.323,4.323,0,0,0,62.293,0H52.405a4.322,4.322,0,0,0-4.318,4.318v9.888A4.323,4.323,0,0,0,52.405,18.523Zm1.235-12.97h7.416v7.416H53.641V5.553Z" transform="translate(36.304)" fill="#12263f"/>
      <path id="Trazado_105045" data-name="Trazado 105045" d="M14.237,0H4.35A4.323,4.323,0,0,0,.031,4.318v9.888a4.322,4.322,0,0,0,4.318,4.318h9.888a4.322,4.322,0,0,0,4.317-4.318V4.318A4.322,4.322,0,0,0,14.237,0ZM13,12.969H5.585V5.553H13Z" transform="translate(-0.031)" fill="#12263f"/>
      <path id="Trazado_105046" data-name="Trazado 105046" d="M14.237,48.056H4.349A4.322,4.322,0,0,0,.032,52.374v9.888a4.322,4.322,0,0,0,4.318,4.318h9.888a4.322,4.322,0,0,0,4.317-4.318V52.374A4.323,4.323,0,0,0,14.237,48.056ZM13,61.025H5.585V53.609H13Z" transform="translate(-0.031 36.335)" fill="#12263f"/>
      <path id="Trazado_105047" data-name="Trazado 105047" d="M57.333,15.754a2.777,2.777,0,1,0-5.553,0v2.623a2.777,2.777,0,1,0,5.553,0Z" transform="translate(39.096 9.812)" fill="#12263f"/>
      <path id="Trazado_105048" data-name="Trazado 105048" d="M57.333,24.718a2.777,2.777,0,1,0-5.553,0v2.623a2.777,2.777,0,1,0,5.553,0Z" transform="translate(39.096 16.59)" fill="#12263f"/>
      <path id="Trazado_105049" data-name="Trazado 105049" d="M54.557,39.87a2.776,2.776,0,0,0-2.777,2.777V45.27a2.777,2.777,0,1,0,5.553,0V42.647A2.776,2.776,0,0,0,54.557,39.87Z" transform="translate(39.096 30.145)" fill="#12263f"/>
      <path id="Trazado_105050" data-name="Trazado 105050" d="M57.333,33.682a2.777,2.777,0,1,0-5.553,0v2.623a2.777,2.777,0,1,0,5.553,0Z" transform="translate(39.096 23.368)" fill="#12263f"/>
      <path id="Trazado_105051" data-name="Trazado 105051" d="M3.724,28.078a2.777,2.777,0,1,0,5.553,0V25.454a2.777,2.777,0,1,0-5.553,0v2.623Z" transform="translate(2.761 17.146)" fill="#12263f"/>
      <path id="Trazado_105052" data-name="Trazado 105052" d="M6.5,21.89a2.776,2.776,0,0,0,2.777-2.777V16.49a2.777,2.777,0,1,0-5.553,0v2.623A2.776,2.776,0,0,0,6.5,21.89Z" transform="translate(2.761 10.369)" fill="#12263f"/>
      <path id="Trazado_105053" data-name="Trazado 105053" d="M3.724,46.006a2.777,2.777,0,1,0,5.553,0V43.383a2.777,2.777,0,1,0-5.553,0v2.623Z" transform="translate(2.761 30.702)" fill="#12263f"/>
      <path id="Trazado_105054" data-name="Trazado 105054" d="M3.724,37.042a2.777,2.777,0,1,0,5.553,0V34.419a2.777,2.777,0,0,0-5.553,0v2.623Z" transform="translate(2.761 23.924)" fill="#12263f"/>
      <path id="Trazado_105055" data-name="Trazado 105055" d="M37.108,3.693H34.484a2.777,2.777,0,1,0,0,5.553h2.623a2.777,2.777,0,0,0,0-5.553Z" transform="translate(23.919 2.792)" fill="#12263f"/>
      <path id="Trazado_105056" data-name="Trazado 105056" d="M28.144,3.693H25.52a2.777,2.777,0,1,0,0,5.553h2.624a2.777,2.777,0,0,0,0-5.553Z" transform="translate(17.141 2.792)" fill="#12263f"/>
      <path id="Trazado_105057" data-name="Trazado 105057" d="M46.072,3.693H43.449a2.777,2.777,0,1,0,0,5.553h2.623a2.777,2.777,0,1,0,0-5.553Z" transform="translate(30.697 2.792)" fill="#12263f"/>
      <path id="Trazado_105058" data-name="Trazado 105058" d="M19.18,3.693H16.556a2.777,2.777,0,0,0,0,5.553H19.18a2.777,2.777,0,0,0,0-5.553Z" transform="translate(10.363 2.792)" fill="#12263f"/>
      <path id="Trazado_105059" data-name="Trazado 105059" d="M36.372,51.748H33.749a2.777,2.777,0,1,0,0,5.553h2.623a2.777,2.777,0,0,0,0-5.553Z" transform="translate(23.363 39.127)" fill="#12263f"/>
      <path id="Trazado_105060" data-name="Trazado 105060" d="M18.444,51.748H15.82a2.777,2.777,0,1,0,0,5.553h2.624a2.777,2.777,0,0,0,0-5.553Z" transform="translate(9.807 39.127)" fill="#12263f"/>
      <path id="Trazado_105061" data-name="Trazado 105061" d="M45.336,51.748H42.713a2.777,2.777,0,1,0,0,5.553h2.623a2.777,2.777,0,0,0,0-5.553Z" transform="translate(30.14 39.127)" fill="#12263f"/>
      <path id="Trazado_105062" data-name="Trazado 105062" d="M27.408,51.748H24.784a2.777,2.777,0,1,0,0,5.553h2.624a2.777,2.777,0,1,0,0-5.553Z" transform="translate(16.585 39.127)" fill="#12263f"/>
      <path id="Trazado_105063" data-name="Trazado 105063" d="M150.833,88.972,116.786,77.622a2.777,2.777,0,0,0-1.756,5.269l29.465,9.822-31.768,16.164L72.6,68.747l30.1,10.032a2.777,2.777,0,0,0,1.756-5.269L66.61,60.9V52.373a4.322,4.322,0,0,0-4.317-4.318H52.4a4.322,4.322,0,0,0-4.318,4.318v9.888A4.322,4.322,0,0,0,52.4,66.579h8.379l28.11,84.33a3.534,3.534,0,0,0,6.5.485l18.859-37.064,37.064-18.858A3.535,3.535,0,0,0,150.833,88.972ZM53.641,53.61h7.416v7.416H53.641V53.61ZM68.67,72.674,108.8,112.8,92.636,144.572Z" transform="translate(36.303 36.335)" fill="#12263f"/>
    </g>
  </g>
</svg>
