<svg xmlns="http://www.w3.org/2000/svg" xmlns:xlink="http://www.w3.org/1999/xlink" width="216" height="216" viewBox="0 0 216 216">
  <defs>
    <clipPath id="clip-path">
      <rect id="Rectángulo_5272" data-name="Rectángulo 5272" width="216" height="216" transform="translate(265 5399)" fill="#fff" stroke="#707070" stroke-width="1"/>
    </clipPath>
  </defs>
  <g id="Enmascarar_grupo_50" data-name="Enmascarar grupo 50" transform="translate(-265 -5399)" clip-path="url(#clip-path)">
    <g id="transparente" transform="translate(265 5433.383)">
      <g id="Grupo_54086" data-name="Grupo 54086" transform="translate(3.164 3.164)">
        <path id="Trazado_101233" data-name="Trazado 101233" d="M198.847,162.635H14.487A12.656,12.656,0,0,1,1.831,149.979V34.385A12.656,12.656,0,0,1,14.487,21.729H198.847A12.656,12.656,0,0,1,211.5,34.385V149.979A12.656,12.656,0,0,1,198.847,162.635Z" transform="translate(-1.831 -21.729)" fill="#ddffa7"/>
        <path id="Trazado_101234" data-name="Trazado 101234" d="M133.833,34.385V149.979a12.655,12.655,0,0,1-12.656,12.656H108.521a12.655,12.655,0,0,0,12.656-12.656V34.385a12.655,12.655,0,0,0-12.656-12.656h12.656A12.655,12.655,0,0,1,133.833,34.385Z" transform="translate(75.839 -21.729)" fill="#ddffa7"/>
        <path id="Trazado_101235" data-name="Trazado 101235" d="M191.405,144.646H11.265a2.11,2.11,0,0,1-2.109-2.109V31.162a2.11,2.11,0,0,1,2.109-2.109H191.405a2.11,2.11,0,0,1,2.109,2.109V142.537A2.11,2.11,0,0,1,191.405,144.646Z" transform="translate(3.501 -16.396)" fill="#d1edff"/>
        <path id="Trazado_101236" data-name="Trazado 101236" d="M154.68,31.162V142.537a2.11,2.11,0,0,1-2.109,2.109H62.5V29.053h90.07A2.11,2.11,0,0,1,154.68,31.162Z" transform="translate(42.336 -16.396)" fill="#e6f6ff"/>
        <path id="Trazado_101237" data-name="Trazado 101237" d="M193.515,86.357v32.4H9.155V105.924l33.012-35.21a6.329,6.329,0,0,1,9.361.143L75.871,98.469c.131.148.266.291.409.43a8.434,8.434,0,0,0,11.6.236l1.839-1.671L143.2,48.874a6.326,6.326,0,0,1,8.48-.025Z" transform="translate(3.501 -3.164)" fill="#bd8580"/>
        <path id="Trazado_101238" data-name="Trazado 101238" d="M154.68,88.623H62.5v12.656h90.07a2.11,2.11,0,0,0,2.109-2.109Z" transform="translate(42.336 26.971)" fill="#a2dbff"/>
        <path id="Trazado_101239" data-name="Trazado 101239" d="M9.155,88.623h92.18v12.656H11.265A2.11,2.11,0,0,1,9.155,99.17Z" transform="translate(3.501 26.971)" fill="#9ff497"/>
        <path id="Trazado_101240" data-name="Trazado 101240" d="M154.68,86.357v32.4H62.5V86.91l41.863-38.036a6.326,6.326,0,0,1,8.48-.025Z" transform="translate(42.336 -3.164)" fill="#b8e3ff"/>
        <path id="Trazado_101241" data-name="Trazado 101241" d="M122.465,66.12l-3.67,3.291a29.528,29.528,0,0,1-39.572-.131l-3.48-3.16,18.98-17.246a6.326,6.326,0,0,1,8.48-.025Z" transform="translate(51.976 -3.164)" fill="#fff"/>
        <path id="Trazado_101242" data-name="Trazado 101242" d="M29.136,61.689A12.656,12.656,0,1,1,41.792,49.033,12.656,12.656,0,0,1,29.136,61.689Z" transform="translate(8.833 -11.064)" fill="#ff9aa2"/>
        <path id="Trazado_101243" data-name="Trazado 101243" d="M53.17,73.939A21.1,21.1,0,0,1,22,74.373l-.405-.43L33.11,61.662a6.329,6.329,0,0,1,9.361.143Z" transform="translate(12.558 5.888)" fill="#fff"/>
      </g>
      <g id="Grupo_54087" data-name="Grupo 54087">
        <path id="Trazado_101244" data-name="Trazado 101244" d="M200.18,19.9H15.82A15.838,15.838,0,0,0,0,35.718V151.312a15.838,15.838,0,0,0,15.82,15.82H174.226a3.164,3.164,0,0,0,0-6.328H15.82a9.5,9.5,0,0,1-9.492-9.492V35.718a9.5,9.5,0,0,1,9.492-9.492H200.18a9.5,9.5,0,0,1,9.492,9.492V151.312a9.5,9.5,0,0,1-9.492,9.492H188.992a3.164,3.164,0,0,0,0,6.328H200.18A15.838,15.838,0,0,0,216,151.312V35.718A15.838,15.838,0,0,0,200.18,19.9Z" transform="translate(0 -19.897)" fill="#12263f"/>
        <path id="Trazado_101245" data-name="Trazado 101245" d="M91.066,30.386A3.164,3.164,0,0,0,87.9,27.222H12.6A5.279,5.279,0,0,0,7.324,32.5V143.87a5.279,5.279,0,0,0,5.273,5.273H192.738a5.279,5.279,0,0,0,5.273-5.273V32.5a5.279,5.279,0,0,0-5.273-5.273h-90.07A3.164,3.164,0,0,0,99.5,30.386v69.687L87.081,111.36a5.3,5.3,0,0,1-7.5-.416L55.235,83.333a9.554,9.554,0,0,0-14.045-.215L13.652,112.491V33.55H87.9a3.164,3.164,0,0,0,3.164-3.164ZM13.652,142.815v-6.328H99.5v6.328Zm111.9-57.856,1.353,1.228a32.6,32.6,0,0,0,43.812.145l1.56-1.4,19.409,17.4v27.824H105.832V102.874Zm4.706-4.275,16.4-14.9a3.156,3.156,0,0,1,4.24-.014l16.637,14.916-1.045.937a26.293,26.293,0,0,1-35.332-.118Zm-24.424,62.131v-6.328h85.852v6.328Zm0-109.266h85.852V93.836L155.122,61.056a9.467,9.467,0,0,0-12.72.042L105.832,94.324Zm-60.025,53.9a3.176,3.176,0,0,1,4.682.072l8.7,9.871a17.717,17.717,0,0,1-11.383,4.1h-.035a17.718,17.718,0,0,1-11.341-4.047ZM32.1,102.069a23.973,23.973,0,0,0,15.676,5.75h.047a24.345,24.345,0,0,0,15.552-5.687l11.46,13a11.656,11.656,0,0,0,16.5.914l8.168-7.421v21.536H13.652v-8.416Z" transform="translate(5.332 -14.565)" fill="#12263f"/>
        <path id="Trazado_101246" data-name="Trazado 101246" d="M14.648,50.366a15.82,15.82,0,1,0,15.82-15.82A15.838,15.838,0,0,0,14.648,50.366Zm25.313,0a9.492,9.492,0,1,1-9.492-9.492A9.5,9.5,0,0,1,39.961,50.366Z" transform="translate(10.664 -9.233)" fill="#12263f"/>
      </g>
    </g>
  </g>
</svg>
