<svg xmlns="http://www.w3.org/2000/svg" xmlns:xlink="http://www.w3.org/1999/xlink" width="216" height="216" viewBox="0 0 216 216">
  <defs>
    <clipPath id="clip-path">
      <rect id="Rectángulo_5276" data-name="Rectángulo 5276" width="216" height="216" transform="translate(265 5641)" fill="#fff" stroke="#707070" stroke-width="1"/>
    </clipPath>
  </defs>
  <g id="Enmascarar_grupo_51" data-name="Enmascarar grupo 51" transform="translate(-265 -5641)" clip-path="url(#clip-path)">
    <g id="rueda-de-color_1_" data-name="rueda-de-color (1)" transform="translate(265 5641)">
      <g id="Grupo_54100" data-name="Grupo 54100" transform="translate(3.484 3.484)">
        <g id="Grupo_54088" data-name="Grupo 54088" transform="translate(90.581 138.17)">
          <path id="Trazado_101247" data-name="Trazado 101247" d="M105.714,113.535,90.942,98.764,76.17,83.992a27.921,27.921,0,0,1-19.719,8.152v62.71a90.168,90.168,0,0,0,64.034-26.547Z" transform="translate(-56.452 -83.992)" fill="#e6e9ed"/>
        </g>
        <g id="Grupo_54089" data-name="Grupo 54089" transform="translate(167.226)">
          <path id="Trazado_101248" data-name="Trazado 101248" d="M142.613,21.277a17.247,17.247,0,0,1-5.052,12.194L125.194,45.839,100.806,21.452,113.174,9.084a17.245,17.245,0,0,1,29.439,12.194Z" transform="translate(-100.806 -4.032)" fill="#cf9e76"/>
        </g>
        <g id="Grupo_54090" data-name="Grupo 54090" transform="translate(153.29 13.935)">
          <path id="Trazado_101249" data-name="Trazado 101249" d="M132.388,41.292a7.39,7.39,0,0,1-10.452,10.452l-1.324-1.324L96.226,26.032,94.9,24.708a7.39,7.39,0,0,1,10.452-10.452l1.324,1.324,24.387,24.387Z" transform="translate(-92.742 -12.097)" fill="#dfb28b"/>
        </g>
        <g id="Grupo_54091" data-name="Grupo 54091" transform="translate(87.097 27.871)">
          <path id="Trazado_101250" data-name="Trazado 101250" d="M131.081,61.968,120.629,72.419l-2.822,2.822-7.63,7.63-7.839,7.839-2.613,2.613L89.274,103.774l-3.693,3.693-6.759,6.759L54.435,89.839l6.759-6.759L77.952,66.323,93.42,50.854l15.19-15.19,15.5-15.5L148.5,44.548,133,60.052Z" transform="translate(-54.435 -20.161)" fill="#e6e9ed"/>
        </g>
        <g id="Grupo_54092" data-name="Grupo 54092" transform="translate(118.243 67.761)">
          <path id="Trazado_101251" data-name="Trazado 101251" d="M119.875,43.246l-1.916,1.916L107.507,55.614l-2.822,2.822-7.63,7.63L89.217,73.9,86.6,76.517,76.153,86.969,72.46,90.661a25.428,25.428,0,0,1,.209,3.275h62.71A90.117,90.117,0,0,0,119.875,43.246Z" transform="translate(-72.46 -43.246)" fill="#f0d0b4"/>
        </g>
        <g id="Grupo_54093" data-name="Grupo 54093" transform="translate(110.299 118.452)">
          <path id="Trazado_101252" data-name="Trazado 101252" d="M117.822,72.581H76.015A27.921,27.921,0,0,1,67.863,92.3l14.772,14.772,14.772,14.772,14.772,14.772a90.168,90.168,0,0,0,26.547-64.034Z" transform="translate(-67.863 -72.581)" fill="#ffeaa7"/>
        </g>
        <g id="Grupo_54094" data-name="Grupo 54094" transform="translate(76.645 97.548)">
          <path id="Trazado_101253" data-name="Trazado 101253" d="M83.226,84.871,65.806,88.355,61,93.163A7.39,7.39,0,0,1,50.547,82.711L55.355,77.9l3.484-17.419Z" transform="translate(-48.387 -60.484)" fill="#ff826e"/>
        </g>
        <g id="Grupo_54095" data-name="Grupo 54095" transform="translate(90.581 27.871)">
          <path id="Trazado_101254" data-name="Trazado 101254" d="M56.452,20.161v62.71a25.431,25.431,0,0,1,3.275.209L76.484,66.323,91.952,50.854l15.19-15.19A90.117,90.117,0,0,0,56.452,20.161Z" transform="translate(-56.452 -20.161)" fill="#69d6f4"/>
        </g>
        <g id="Grupo_54096" data-name="Grupo 54096" transform="translate(26.547 138.17)">
          <path id="Trazado_101255" data-name="Trazado 101255" d="M63.71,83.992,48.938,98.764,34.167,113.535,19.4,128.307a90.168,90.168,0,0,0,64.034,26.547V92.144A27.922,27.922,0,0,1,63.71,83.992Z" transform="translate(-19.395 -83.992)" fill="#cf9e76"/>
        </g>
        <g id="Grupo_54097" data-name="Grupo 54097" transform="translate(26.547 27.871)">
          <path id="Trazado_101256" data-name="Trazado 101256" d="M19.4,46.708,34.167,61.48,48.938,76.252,63.71,91.023a27.921,27.921,0,0,1,19.719-8.152V20.161A90.168,90.168,0,0,0,19.4,46.708Z" transform="translate(-19.395 -20.161)" fill="#b4dd7f"/>
        </g>
        <g id="Grupo_54098" data-name="Grupo 54098" transform="translate(0 118.452)">
          <path id="Trazado_101257" data-name="Trazado 101257" d="M66.742,72.581H4.032a90.168,90.168,0,0,0,26.547,64.034l14.772-14.772,14.772-14.772L74.894,92.3a27.921,27.921,0,0,1-8.152-19.719Z" transform="translate(-4.032 -72.581)" fill="#ff826e"/>
        </g>
        <g id="Grupo_54099" data-name="Grupo 54099" transform="translate(0 54.418)">
          <path id="Trazado_101258" data-name="Trazado 101258" d="M60.123,65.067,45.351,50.3,30.579,35.524A90.168,90.168,0,0,0,4.032,99.558h62.71a27.921,27.921,0,0,1,8.152-19.719Z" transform="translate(-4.032 -35.524)" fill="#838f9b"/>
        </g>
      </g>
      <path id="Trazado_101259" data-name="Trazado 101259" d="M218.016,22.745A20.728,20.728,0,0,0,182.63,8.089l-10.02,10.02a10.822,10.822,0,0,0-17.3,8.717,10.764,10.764,0,0,0,2.153,6.435L146.266,44.453A94.212,94.212,0,1,0,175.579,73.77l11.2-11.2a10.825,10.825,0,0,0,17.3-8.72,10.764,10.764,0,0,0-2.153-6.435L211.944,37.4A20.592,20.592,0,0,0,218.016,22.745ZM169.242,70.251,154.286,55.295l-4.926,4.926,14.956,14.956L158.79,80.7,150.8,72.714l-4.926,4.926,7.989,7.989-5.525,5.525L133.382,76.2l-4.926,4.926,14.956,14.956-5.525,5.525L129.9,93.618l-4.926,4.926,7.989,7.989-5.525,5.525L112.479,97.1l-4.926,4.926,14.956,14.956-5.525,5.525L97.523,103.048,162.274,38.3l19.461,19.461Zm13.848,57.184a86.752,86.752,0,0,1-23.046,55.554l-9.908-9.908a72.765,72.765,0,0,0,18.931-45.642H183.09Zm-43.907-17.273a44.734,44.734,0,0,1,2,10.305H128.878Zm-23.554,38.263,9.88,9.88a45.042,45.042,0,0,1-25.944,10.758V155.1a31.2,31.2,0,0,0,16.064-6.675ZM92.6,169.064a45.032,45.032,0,0,1-25.944-10.758l9.88-9.88A31.2,31.2,0,0,0,92.6,155.1ZM61.726,153.38a45.042,45.042,0,0,1-10.758-25.944H64.931A31.2,31.2,0,0,0,71.606,143.5Zm3.205-32.912H50.968A45.032,45.032,0,0,1,61.726,94.523l9.88,9.88A31.2,31.2,0,0,0,64.931,120.468Zm11.6-20.99-9.88-9.88A45.042,45.042,0,0,1,92.6,78.839V92.8A31.19,31.19,0,0,0,76.533,99.477ZM92.6,71.871a51.974,51.974,0,0,0-30.871,12.8l-9.849-9.849A65.816,65.816,0,0,1,92.6,57.936ZM56.8,89.6A51.974,51.974,0,0,0,44,120.468H30.065A65.816,65.816,0,0,1,46.951,79.748ZM44,127.436a51.974,51.974,0,0,0,12.8,30.871l-9.849,9.849a65.816,65.816,0,0,1-16.886-40.719Zm17.726,35.8a51.974,51.974,0,0,0,30.871,12.8v13.936a65.836,65.836,0,0,1-40.719-16.886Zm37.838,12.8a51.974,51.974,0,0,0,30.871-12.8l9.849,9.849a65.816,65.816,0,0,1-40.719,16.886Zm20.99-32.532a31.2,31.2,0,0,0,6.675-16.064h13.963a45.032,45.032,0,0,1-10.758,25.944Zm-24.474,4.839a24.374,24.374,0,0,1-5.6-48.1l-1.09,1.09L85.9,118.75l-4.059,4.059a10.874,10.874,0,0,0,15.378,15.378l4.059-4.059,17.419-3.484,1.09-1.09a24.412,24.412,0,0,1-23.711,18.785Zm1.766-20.628-5.55,5.55a3.907,3.907,0,0,1-5.525-5.525l5.55-5.55,2.414-12.072L109.919,125.3Zm1.718-36.556V78.846a44.663,44.663,0,0,1,10.305,2ZM115.27,75.449a51.641,51.641,0,0,0-15.705-3.571v-14a66,66,0,0,1,26.265,7.013ZM92.6,50.968A72.767,72.767,0,0,0,46.951,69.9l-9.908-9.908A86.752,86.752,0,0,1,92.6,36.945ZM42.025,74.822A72.763,72.763,0,0,0,23.1,120.468H9.071A86.752,86.752,0,0,1,32.117,64.914ZM23.1,127.435a72.749,72.749,0,0,0,18.931,45.642l-9.912,9.912A86.771,86.771,0,0,1,9.071,127.435Zm23.858,50.572A72.765,72.765,0,0,0,92.6,196.939v14.023a86.752,86.752,0,0,1-55.554-23.046Zm52.61,18.928A72.749,72.749,0,0,0,145.207,178l9.908,9.908a86.752,86.752,0,0,1-55.554,23.046V196.935Zm45.646-28.78-9.849-9.849a51.974,51.974,0,0,0,12.8-30.871H162.1A65.816,65.816,0,0,1,145.21,168.155Zm2.944-47.687a51.791,51.791,0,0,0-3.571-15.705L155.146,94.2a66.1,66.1,0,0,1,7.013,26.265H148.154Zm-17.193-60.71a73.029,73.029,0,0,0-31.4-8.849V36.984a86.515,86.515,0,0,1,41.646,12.525Zm52.087,60.71H169.123a72.967,72.967,0,0,0-8.849-31.4l10.25-10.25A86.515,86.515,0,0,1,183.049,120.468Zm10.159-62.71a3.947,3.947,0,0,1-2.763-1.143L163.417,29.587a3.907,3.907,0,0,1,2.763-6.668,3.947,3.947,0,0,1,2.763,1.143L195.97,51.09a3.907,3.907,0,0,1-2.763,6.668Zm13.81-25.282-9.9,9.9L177.652,22.919l9.9-9.9a13.761,13.761,0,1,1,19.461,19.461Z" transform="translate(-2.016 -2.016)" fill="#12263f"/>
    </g>
  </g>
</svg>
