<svg xmlns="http://www.w3.org/2000/svg" xmlns:xlink="http://www.w3.org/1999/xlink" width="123" height="123" viewBox="0 0 123 123">
  <defs>
    <clipPath id="clip-path">
      <rect id="Rectángulo_5168" data-name="Rectángulo 5168" width="123" height="123" transform="translate(230 896)" fill="#fff" stroke="#707070" stroke-width="1"/>
    </clipPath>
  </defs>
  <g id="Enmascarar_grupo_44" data-name="Enmascarar grupo 44" transform="translate(-230 -896)" clip-path="url(#clip-path)">
    <g id="Fill_Outline" data-name="Fill Outline" transform="translate(225.9 891.9)">
      <g id="Color">
        <path id="Trazado_100579" data-name="Trazado 100579" d="M14.35,18.45h102.5a8.2,8.2,0,0,1,8.2,8.2v65.6a8.2,8.2,0,0,1-8.2,8.2H16.4A10.25,10.25,0,0,1,6.15,90.2V26.65a8.2,8.2,0,0,1,8.2-8.2Z" fill="#e9f1f2"/>
        <path id="Trazado_100580" data-name="Trazado 100580" d="M125.05,75.85v16.4a8.2,8.2,0,0,1-8.2,8.2H16.4A10.25,10.25,0,0,1,6.15,90.2V26.65a8.2,8.2,0,0,1,8.2-8.2H45.1v16.4a40.988,40.988,0,0,0,41,41Z" fill="#d0d8da"/>
        <path id="Trazado_100581" data-name="Trazado 100581" d="M22.55,116.85h86.1a4.1,4.1,0,0,1,4.1,4.1v4.1H18.45v-4.1A4.1,4.1,0,0,1,22.55,116.85Z" fill="#e9f1f2"/>
        <path id="Trazado_100582" data-name="Trazado 100582" d="M112.75,120.95v4.1H18.45v-4.1a4.112,4.112,0,0,1,4.1-4.1h2.419a6.084,6.084,0,0,0,5.781,4.1Z" fill="#d0d8da"/>
        <path id="Trazado_100583" data-name="Trazado 100583" d="M86.1,100.45h-41a22.187,22.187,0,0,1-13.011,14.225L26.65,116.85h77.9l-5.439-2.175A22.187,22.187,0,0,1,86.1,100.45Z" fill="#d0d8da"/>
        <path id="Trazado_100584" data-name="Trazado 100584" d="M86.1,100.45h-41a22.187,22.187,0,0,1-13.011,14.225L26.65,116.85Z" fill="#93999a"/>
        <path id="Trazado_100585" data-name="Trazado 100585" d="M57.4,14.35H69.7V20.5a6.15,6.15,0,1,1-12.3,0Z" fill="#ffea00"/>
        <path id="Trazado_100586" data-name="Trazado 100586" d="M65.6,6.15h4.1v8.2H57.4A8.2,8.2,0,0,1,65.6,6.15Z" fill="#93999a"/>
        <path id="Trazado_100587" data-name="Trazado 100587" d="M91.752,33.456,82,34.85l-10.25-8.2H55.35L43.05,28.7,38.183,41.676a3.524,3.524,0,0,0,6.32,3.05L49.2,36.9h6.15V47.15h16.4V38.13l8.2,4.92,12.872-1.609a4.028,4.028,0,1,0-1.07-7.985Z" fill="#bfe97b"/>
        <path id="Trazado_100588" data-name="Trazado 100588" d="M96.124,36.121,85.649,38.212A9.635,9.635,0,0,1,78.8,37.043l-4.756-2.87A9.623,9.623,0,0,0,69.085,32.8a9.569,9.569,0,0,1-7.878-4.133c.1,0,.193.033.293.033a6.1,6.1,0,0,0,4.553-2.05H55.35L43.05,28.7,38.191,41.676a3.522,3.522,0,0,0,6.314,3.054L49.2,36.9h6.15V47.15h16.4V38.13l8.2,4.92,12.874-1.6a4.032,4.032,0,0,0,3.3-5.33Z" fill="#ddffa7"/>
        <path id="Trazado_100589" data-name="Trazado 100589" d="M71.75,47.15H55.35L53.3,59.45,42.7,61.5,41,69.7l20.5-2.05,6.15-12.3,8.2,4.1,2.05,12.3,8.2,2.05L84.05,55.35Z" fill="#bfe97b"/>
        <path id="Trazado_100590" data-name="Trazado 100590" d="M71.631,52.2a5.394,5.394,0,0,0,2.837,2.837l1.73.742A7.817,7.817,0,0,1,80.749,61.4a7.776,7.776,0,0,0,4.592,5.638L86.1,73.8l-8.2-2.05-2.05-12.3-8.2-4.1L61.5,67.65,41,69.7l1.7-8.2,10.6-2.05,2.05-12.3h16.4l-.41,1.64a5.391,5.391,0,0,0,.283,3.413Z" fill="#ddffa7"/>
        <path id="Trazado_100591" data-name="Trazado 100591" d="M77.9,71.75h6.15a8.2,8.2,0,0,1,8.2,8.2H77.9Z" fill="#ffea00"/>
        <path id="Trazado_100592" data-name="Trazado 100592" d="M45.838,42.517l-1.332,2.214a3.524,3.524,0,0,1-6.54-1.8,3.364,3.364,0,0,1,.226-1.25L43.05,28.7l2.05-.349v6.5a39.361,39.361,0,0,0,.738,7.667Z" fill="#83be25"/>
        <path id="Trazado_100593" data-name="Trazado 100593" d="M61.5,67.65,41,69.7l1.7-8.2,10.6-2.05a40.9,40.9,0,0,0,8.2,8.2Z" fill="#83be25"/>
        <path id="Trazado_100594" data-name="Trazado 100594" d="M92.25,79.95H77.9V75.03a41.509,41.509,0,0,0,8.2.82h5.043A8.177,8.177,0,0,1,92.25,79.95Z" fill="#ffd000"/>
        <path id="Trazado_100595" data-name="Trazado 100595" d="M31.775,64.575h6.15a8.2,8.2,0,0,1,8.2,8.2H31.775Z" transform="translate(107.625 29.725) rotate(90)" fill="#ffb700"/>
        <path id="Trazado_100596" data-name="Trazado 100596" d="M61.5,18.45a6.15,6.15,0,0,0,6.15,6.15,2,2,0,0,0,.492-.041A6,6,0,0,1,63.55,26.65,6.15,6.15,0,0,1,57.4,20.5V14.35H69.7V16.4H63.55A2.05,2.05,0,0,0,61.5,18.45Z" fill="#ffd000"/>
        <path id="Trazado_100597" data-name="Trazado 100597" d="M69.7,12.3v2.05H57.4A8.2,8.2,0,0,1,61.6,7.2a6.113,6.113,0,0,0,6.048,5.1Z" fill="#656b76"/>
        <circle id="Elipse_4055" data-name="Elipse 4055" cx="4.1" cy="4.1" r="4.1" transform="translate(41 84.05)" fill="#48cae4"/>
        <path id="Trazado_100598" data-name="Trazado 100598" d="M48.831,89.831a4.1,4.1,0,1,1-5.412-5.412A3.877,3.877,0,0,0,43.05,86.1a4.112,4.112,0,0,0,4.1,4.1,3.877,3.877,0,0,0,1.681-.369Z" fill="#00b4d8"/>
        <path id="Trazado_100599" data-name="Trazado 100599" d="M108.65,69.7h8.2v8.2h-8.2Z" fill="#ff7373"/>
        <path id="Trazado_100600" data-name="Trazado 100600" d="M108.65,75.85h8.2V77.9h-8.2Z" fill="#ef5350"/>
        <path id="Trazado_100601" data-name="Trazado 100601" d="M108.65,61.5h8.2v8.2h-8.2Z" fill="#ef5350"/>
        <path id="Trazado_100602" data-name="Trazado 100602" d="M108.65,53.3h8.2v8.2h-8.2Z" fill="#e53935"/>
        <path id="Trazado_100603" data-name="Trazado 100603" d="M108.65,45.1h8.2v8.2h-8.2Z" fill="#c62828"/>
      </g>
      <g id="Outline_copy" data-name="Outline copy">
        <path id="Trazado_100604" data-name="Trazado 100604" d="M125.05,69.7A2.05,2.05,0,0,0,123,71.75v20.5a6.15,6.15,0,0,1-6.15,6.15H16.4a8.2,8.2,0,0,1-8.2-8.2V26.65a6.15,6.15,0,0,1,6.15-6.15H49.2a2.05,2.05,0,0,0,0-4.1H14.35A10.262,10.262,0,0,0,4.1,26.65V90.2a12.312,12.312,0,0,0,12.3,12.3H42.117A20,20,0,0,1,31.328,112.77l-5.072,2.03H22.55a6.15,6.15,0,0,0-6.15,6.15v4.1a2.05,2.05,0,0,0,2.05,2.05h32.8a2.05,2.05,0,1,0,0-4.1H20.5v-2.05a2.05,2.05,0,0,1,2.05-2.05h86.1a2.05,2.05,0,0,1,2.05,2.05V123H59.45a2.05,2.05,0,1,0,0,4.1h53.3a2.05,2.05,0,0,0,2.05-2.05v-4.1a6.15,6.15,0,0,0-6.15-6.15h-3.706l-5.072-2.03A20,20,0,0,1,89.083,102.5H116.85A10.262,10.262,0,0,0,127.1,92.25V71.75A2.05,2.05,0,0,0,125.05,69.7ZM94.776,114.8H36.424a24.073,24.073,0,0,0,10.152-12.3H84.624a24.073,24.073,0,0,0,10.152,12.3Z" fill="#12263f"/>
        <path id="Trazado_100605" data-name="Trazado 100605" d="M116.85,16.4H77.9a2.05,2.05,0,0,0,0,4.1h38.95A6.15,6.15,0,0,1,123,26.65v36.9a2.05,2.05,0,1,0,4.1,0V26.65A10.262,10.262,0,0,0,116.85,16.4Z" fill="#12263f"/>
        <path id="Trazado_100606" data-name="Trazado 100606" d="M41.129,27.98,36.262,40.957a5.574,5.574,0,0,0,10,4.826l4.1-6.833H53.3a2.05,2.05,0,0,0,4.1,0V36.9a2.05,2.05,0,0,0-2.05-2.05H49.2a2.05,2.05,0,0,0-1.757.994l-4.7,7.821A1.475,1.475,0,0,1,40.1,42.388L44.553,30.52,55.52,28.7H71.03l9.688,7.751a2.05,2.05,0,0,0,1.572.428l9.752-1.394a1.966,1.966,0,0,1,1.574.465,1.945,1.945,0,0,1,.683,1.494,1.98,1.98,0,0,1-1.732,1.962L80.4,40.928l-7.585-4.555A2.05,2.05,0,0,0,69.7,38.13V45.1H55.35a2.05,2.05,0,0,0-2.021,1.712l-1.816,10.9-9.02,1.743H34.85A2.05,2.05,0,0,0,32.8,61.5V75.85a2.05,2.05,0,0,0,2.05,2.05,10.25,10.25,0,0,0,9.51-6.476L61.7,69.69a2.05,2.05,0,0,0,1.63-1.123L68.566,58.1,74,60.817l1.878,11.275A2.05,2.05,0,0,0,77.9,73.8h6.15a6.162,6.162,0,0,1,5.8,4.1H77.9a2.05,2.05,0,0,0,0,4.1H92.25a2.05,2.05,0,0,0,2.05-2.05,10.25,10.25,0,0,0-6.511-9.52l-1.7-15.305a2.05,2.05,0,0,0-.9-1.48L73.8,46.053V41.748L78.894,44.8a2.034,2.034,0,0,0,1.31.277l12.872-1.607a6.078,6.078,0,1,0-1.613-12.048l-8.874,1.267-9.557-7.646A2.05,2.05,0,0,0,71.75,24.6H70.61a8.116,8.116,0,0,0,1.14-4.1V6.15A2.05,2.05,0,0,0,69.7,4.1H65.6A10.262,10.262,0,0,0,55.35,14.35V20.5a8.116,8.116,0,0,0,1.14,4.1H55.35a1.845,1.845,0,0,0-.336.029l-12.3,2.05a2.05,2.05,0,0,0-1.585,1.3ZM41,67.65a6.162,6.162,0,0,1-4.1,5.8v-9.9H41ZM83.583,69.7H79.636L77.871,59.112a2.05,2.05,0,0,0-1.1-1.5l-8.2-4.1a2.05,2.05,0,0,0-2.751.918L60.174,65.723,45.1,67.24v-4.1l8.587-1.66a2.05,2.05,0,0,0,1.64-1.675l1.759-10.6H71.135l10.99,7.327ZM65.6,8.2h2.05v4.1H59.8a6.162,6.162,0,0,1,5.8-4.1ZM59.45,20.5V16.4h8.2v4.1a4.1,4.1,0,1,1-8.2,0Z" fill="#12263f"/>
        <path id="Trazado_100607" data-name="Trazado 100607" d="M45.1,82a6.15,6.15,0,0,0-5.773,4.1H26.65a2.05,2.05,0,1,0,0,4.1H39.327a6.113,6.113,0,0,0,11.546,0H108.65a2.05,2.05,0,0,0,0-4.1H50.873A6.15,6.15,0,0,0,45.1,82Zm0,8.2a2.05,2.05,0,1,1,2.05-2.05A2.05,2.05,0,0,1,45.1,90.2Z" fill="#12263f"/>
        <path id="Trazado_100608" data-name="Trazado 100608" d="M116.85,79.95a2.05,2.05,0,0,0,2.05-2.05V45.1a2.05,2.05,0,0,0-2.05-2.05h-8.2a2.05,2.05,0,0,0-2.05,2.05V77.9a2.05,2.05,0,0,0,2.05,2.05Zm-6.15-16.4h4.1v4.1h-4.1Zm4.1-4.1h-4.1v-4.1h4.1Zm0,16.4h-4.1v-4.1h4.1Zm-4.1-28.7h4.1v4.1h-4.1Z" fill="#12263f"/>
        <path id="Trazado_100609" data-name="Trazado 100609" d="M14.35,43.05h8.2a2.05,2.05,0,0,0,0-4.1h-8.2a2.05,2.05,0,0,0,0,4.1Z" fill="#12263f"/>
        <path id="Trazado_100610" data-name="Trazado 100610" d="M14.35,51.25h8.2a2.05,2.05,0,1,0,0-4.1h-8.2a2.05,2.05,0,1,0,0,4.1Z" fill="#12263f"/>
        <path id="Trazado_100611" data-name="Trazado 100611" d="M24.6,57.4a2.05,2.05,0,0,0-2.05-2.05h-8.2a2.05,2.05,0,0,0,0,4.1h8.2A2.05,2.05,0,0,0,24.6,57.4Z" fill="#12263f"/>
        <path id="Trazado_100612" data-name="Trazado 100612" d="M22.55,65.6a2.05,2.05,0,0,0-2.05-2.05H14.35a2.05,2.05,0,0,0,0,4.1H20.5A2.05,2.05,0,0,0,22.55,65.6Z" fill="#12263f"/>
        <path id="Trazado_100613" data-name="Trazado 100613" d="M14.35,71.75a2.05,2.05,0,1,0,0,4.1h4.1a2.05,2.05,0,1,0,0-4.1Z" fill="#12263f"/>
      </g>
    </g>
  </g>
</svg>
